<?xml version="1.0" encoding="UTF-8"?>
<!DOCTYPE svg PUBLIC "-//W3C//DTD SVG 1.1//EN" "http://www.w3.org/Graphics/SVG/1.1/DTD/svg11.dtd">
<svg xmlns="http://www.w3.org/2000/svg" version="1.1" width="50px" height="51px" style="shape-rendering:geometricPrecision; text-rendering:geometricPrecision; image-rendering:optimizeQuality; fill-rule:evenodd; clip-rule:evenodd" xmlns:xlink="http://www.w3.org/1999/xlink">
<g><path style="opacity:0.631" fill="#1a3e1b" d="M 24.5,-0.5 C 25.8333,-0.5 27.1667,-0.5 28.5,-0.5C 28.5,-0.166667 28.5,0.166667 28.5,0.5C 26.1944,0.992551 23.861,1.32588 21.5,1.5C 22.5,0.833333 23.5,0.166667 24.5,-0.5 Z"/></g>
<g><path style="opacity:0.988" fill="#214c1d" d="M 28.5,1.5 C 28.5,1.16667 28.5,0.833333 28.5,0.5C 30.1992,0.339822 31.8659,0.506489 33.5,1C 36.0111,3.33955 38.6778,5.17289 41.5,6.5C 39.9582,5.69929 38.2915,5.36596 36.5,5.5C 35.8333,5.16667 35.1667,4.83333 34.5,4.5C 32.8867,2.9121 30.8867,1.9121 28.5,1.5 Z"/></g>
<g><path style="opacity:0.992" fill="#3b6a32" d="M 28.5,0.5 C 28.5,0.833333 28.5,1.16667 28.5,1.5C 26.1346,2.00844 23.8013,2.67511 21.5,3.5C 20.5713,4.68884 20.238,6.02218 20.5,7.5C 19.5489,6.08134 19.2155,4.41467 19.5,2.5C 20.4916,2.67158 21.1583,2.33825 21.5,1.5C 23.861,1.32588 26.1944,0.992551 28.5,0.5 Z"/></g>
<g><path style="opacity:0.992" fill="#2c5928" d="M 9.5,6.5 C 6.34631,5.90541 3.34631,5.90541 0.5,6.5C 0.615011,8.94678 1.61501,10.9468 3.5,12.5C 1.93819,12.2671 0.60486,11.6005 -0.5,10.5C -0.5,8.83333 -0.5,7.16667 -0.5,5.5C 1.48777,5.1729 3.48777,4.83956 5.5,4.5C 7.35455,4.34024 8.68788,5.00691 9.5,6.5 Z"/></g>
<g><path style="opacity:1" fill="#417a35" d="M 9.5,6.5 C 10.8333,6.83333 12.1667,7.16667 13.5,7.5C 13.5569,8.60895 13.8902,9.60895 14.5,10.5C 11.8675,9.12722 9.03421,8.12722 6,7.5C 4.72024,7.61348 3.88691,8.28014 3.5,9.5C 4.63023,10.6223 5.29689,11.9557 5.5,13.5C 4.50838,13.6716 3.84171,13.3382 3.5,12.5C 1.61501,10.9468 0.615011,8.94678 0.5,6.5C 3.34631,5.90541 6.34631,5.90541 9.5,6.5 Z"/></g>
<g><path style="opacity:1" fill="#539244" d="M 36.5,5.5 C 38.2915,5.36596 39.9582,5.69929 41.5,6.5C 41.5,7.16667 41.5,7.83333 41.5,8.5C 39.2719,8.22313 37.6053,7.22313 36.5,5.5 Z"/></g>
<g><path style="opacity:1" fill="#5ea744" d="M 34.5,4.5 C 35.1667,4.83333 35.8333,5.16667 36.5,5.5C 37.6053,7.22313 39.2719,8.22313 41.5,8.5C 42.1667,8.83333 42.8333,9.16667 43.5,9.5C 43.5,9.83333 43.5,10.1667 43.5,10.5C 43.6747,12.6208 43.3414,14.6208 42.5,16.5C 41.6618,16.8417 41.3284,17.5084 41.5,18.5C 39.0301,21.0616 39.0301,23.8949 41.5,27C 42.5,27.3333 43.5,27.6667 44.5,28C 40.3833,31.3568 35.7166,33.1902 30.5,33.5C 30.7413,35.8863 30.0746,37.8863 28.5,39.5C 27.7387,40.3909 26.7387,41.0576 25.5,41.5C 24.2867,41.2528 23.62,40.5862 23.5,39.5C 24.8333,37.8333 24.8333,36.1667 23.5,34.5C 22.7375,33.7321 21.7375,33.2321 20.5,33C 23.042,32.4544 25.042,31.1211 26.5,29C 24.58,26.2059 21.9133,24.7059 18.5,24.5C 16.4848,22.424 14.4848,20.424 12.5,18.5C 11.8333,18.5 11.1667,18.5 10.5,18.5C 9.92499,16.5887 8.92499,14.922 7.5,13.5C 7.23798,12.0222 7.57131,10.6888 8.5,9.5C 11.6377,11.1439 14.6377,12.9773 17.5,15C 19.1341,15.4935 20.8008,15.6602 22.5,15.5C 22.2539,11.8494 22.2539,8.34937 22.5,5C 26.4018,3.36527 30.4018,3.1986 34.5,4.5 Z"/></g>
<g><path style="opacity:0.945" fill="#184017" d="M 19.5,2.5 C 19.2155,4.41467 19.5489,6.08134 20.5,7.5C 20.5,7.83333 20.5,8.16667 20.5,8.5C 20.5,9.83333 20.5,11.1667 20.5,12.5C 19.5,12.5 18.5,12.5 17.5,12.5C 16.5,11.8333 15.5,11.1667 14.5,10.5C 13.8902,9.60895 13.5569,8.60895 13.5,7.5C 15.1477,8.80978 16.8144,10.1431 18.5,11.5C 18.4792,8.42824 18.8125,5.42824 19.5,2.5 Z"/></g>
<g><path style="opacity:0.498" fill="#0a370e" d="M 41.5,6.5 C 42.9063,6.97306 43.573,7.97306 43.5,9.5C 42.8333,9.16667 42.1667,8.83333 41.5,8.5C 41.5,7.83333 41.5,7.16667 41.5,6.5 Z"/></g>
<g><path style="opacity:0.463" fill="#073107" d="M 43.5,10.5 C 44.8149,13.6274 44.4815,16.6274 42.5,19.5C 42.5,18.5 42.5,17.5 42.5,16.5C 43.3414,14.6208 43.6747,12.6208 43.5,10.5 Z"/></g>
<g><path style="opacity:1" fill="#5c9f45" d="M 28.5,1.5 C 30.8867,1.9121 32.8867,2.9121 34.5,4.5C 30.4018,3.1986 26.4018,3.36527 22.5,5C 22.2539,8.34937 22.2539,11.8494 22.5,15.5C 20.8008,15.6602 19.1341,15.4935 17.5,15C 14.6377,12.9773 11.6377,11.1439 8.5,9.5C 7.57131,10.6888 7.23798,12.0222 7.5,13.5C 6.83333,13.5 6.16667,13.5 5.5,13.5C 5.29689,11.9557 4.63023,10.6223 3.5,9.5C 3.88691,8.28014 4.72024,7.61348 6,7.5C 9.03421,8.12722 11.8675,9.12722 14.5,10.5C 15.5,11.1667 16.5,11.8333 17.5,12.5C 18.5676,13.4345 19.901,13.7678 21.5,13.5C 21.7845,11.5853 21.4511,9.91866 20.5,8.5C 20.5,8.16667 20.5,7.83333 20.5,7.5C 20.238,6.02218 20.5713,4.68884 21.5,3.5C 23.8013,2.67511 26.1346,2.00844 28.5,1.5 Z"/></g>
<g><path style="opacity:1" fill="#407732" d="M 20.5,8.5 C 21.4511,9.91866 21.7845,11.5853 21.5,13.5C 19.901,13.7678 18.5676,13.4345 17.5,12.5C 18.5,12.5 19.5,12.5 20.5,12.5C 20.5,11.1667 20.5,9.83333 20.5,8.5 Z"/></g>
<g><path style="opacity:0.984" fill="#204d21" d="M 5.5,13.5 C 6.16667,13.5 6.83333,13.5 7.5,13.5C 8.92499,14.922 9.92499,16.5887 10.5,18.5C 8.5,17.1667 6.83333,15.5 5.5,13.5 Z"/></g>
<g><path style="opacity:1" fill="#508945" d="M 12.5,18.5 C 14.4848,20.424 16.4848,22.424 18.5,24.5C 17.8333,24.5 17.1667,24.5 16.5,24.5C 14.8564,24.1898 13.8564,23.1898 13.5,21.5C 13.4431,20.391 13.1098,19.391 12.5,18.5 Z"/></g>
<g><path style="opacity:1" fill="#5ba046" d="M 41.5,18.5 C 41.3379,20.5273 41.5045,22.5273 42,24.5C 43.9483,25.1094 45.7816,25.776 47.5,26.5C 47.4431,27.609 47.1098,28.609 46.5,29.5C 44.7697,30.0256 43.4363,31.0256 42.5,32.5C 40.4471,32.4021 38.7804,33.0687 37.5,34.5C 34.2678,34.7717 32.2678,36.4384 31.5,39.5C 30.5,39.5 29.5,39.5 28.5,39.5C 30.0746,37.8863 30.7413,35.8863 30.5,33.5C 35.7166,33.1902 40.3833,31.3568 44.5,28C 43.5,27.6667 42.5,27.3333 41.5,27C 39.0301,23.8949 39.0301,21.0616 41.5,18.5 Z"/></g>
<g><path style="opacity:0.953" fill="#1a4c1a" d="M 10.5,18.5 C 11.1667,18.5 11.8333,18.5 12.5,18.5C 13.1098,19.391 13.4431,20.391 13.5,21.5C 12.1667,20.8333 11.1667,19.8333 10.5,18.5 Z"/></g>
<g><path style="opacity:0.808" fill="#194913" d="M 42.5,16.5 C 42.5,17.5 42.5,18.5 42.5,19.5C 42.3433,20.8734 42.51,22.2068 43,23.5C 45.3258,23.88 47.1591,24.88 48.5,26.5C 48.1667,26.5 47.8333,26.5 47.5,26.5C 45.7816,25.776 43.9483,25.1094 42,24.5C 41.5045,22.5273 41.3379,20.5273 41.5,18.5C 41.3284,17.5084 41.6618,16.8417 42.5,16.5 Z"/></g>
<g><path style="opacity:0.945" fill="#254f22" d="M 16.5,24.5 C 17.1667,24.5 17.8333,24.5 18.5,24.5C 18.8333,25.1667 19.1667,25.8333 19.5,26.5C 17.9731,26.573 16.9731,25.9063 16.5,24.5 Z"/></g>
<g><path style="opacity:0.89" fill="#1e461c" d="M 19.5,26.5 C 21.0269,26.427 22.0269,27.0937 22.5,28.5C 20.9731,28.573 19.9731,27.9063 19.5,26.5 Z"/></g>
<g><path style="opacity:1" fill="#44783a" d="M 47.5,26.5 C 47.8333,26.5 48.1667,26.5 48.5,26.5C 48.8333,26.5 49.1667,26.5 49.5,26.5C 49.5,27.5 49.5,28.5 49.5,29.5C 48.5,29.5 47.5,29.5 46.5,29.5C 47.1098,28.609 47.4431,27.609 47.5,26.5 Z"/></g>
<g><path style="opacity:0.906" fill="#1b4917" d="M 22.5,28.5 C 24.8418,28.7748 24.8418,29.6081 22.5,31C 21.2068,31.49 19.8734,31.6567 18.5,31.5C 20.0764,30.8571 21.4097,29.8571 22.5,28.5 Z"/></g>
<g><path style="opacity:0.78" fill="#134212" d="M 46.5,29.5 C 47.5,29.5 48.5,29.5 49.5,29.5C 49.5,29.8333 49.5,30.1667 49.5,30.5C 47.079,30.8782 44.7457,31.5448 42.5,32.5C 43.4363,31.0256 44.7697,30.0256 46.5,29.5 Z"/></g>
<g><path style="opacity:1" fill="#5a9a47" d="M 18.5,24.5 C 21.9133,24.7059 24.58,26.2059 26.5,29C 25.042,31.1211 23.042,32.4544 20.5,33C 21.7375,33.2321 22.7375,33.7321 23.5,34.5C 21.901,34.2322 20.5676,34.5655 19.5,35.5C 19.5,35.8333 19.5,36.1667 19.5,36.5C 17.7085,36.366 16.0418,36.6993 14.5,37.5C 13.1266,37.6567 11.7932,37.49 10.5,37C 11.056,36.6174 11.3893,36.1174 11.5,35.5C 13.674,35.2503 15.3406,34.2503 16.5,32.5C 16.8417,31.6618 17.5084,31.3284 18.5,31.5C 19.8734,31.6567 21.2068,31.49 22.5,31C 24.8418,29.6081 24.8418,28.7748 22.5,28.5C 22.0269,27.0937 21.0269,26.427 19.5,26.5C 19.1667,25.8333 18.8333,25.1667 18.5,24.5 Z"/></g>
<g><path style="opacity:0.047" fill="#133d12" d="M 42.5,32.5 C 41.3646,34.2132 39.698,34.8799 37.5,34.5C 38.7804,33.0687 40.4471,32.4021 42.5,32.5 Z"/></g>
<g><path style="opacity:1" fill="#306129" d="M 16.5,32.5 C 15.3406,34.2503 13.674,35.2503 11.5,35.5C 10.8333,35.5 10.1667,35.5 9.5,35.5C 11.5093,33.9348 13.8427,32.9348 16.5,32.5 Z"/></g>
<g><path style="opacity:0.227" fill="#0b390e" d="M 19.5,36.5 C 19.5,36.1667 19.5,35.8333 19.5,35.5C 20.8333,35.5 22.1667,35.5 23.5,35.5C 23.5,36.8333 23.5,38.1667 23.5,39.5C 23.1667,39.5 22.8333,39.5 22.5,39.5C 22.5,38.5 22.5,37.5 22.5,36.5C 21.5,36.5 20.5,36.5 19.5,36.5 Z"/></g>
<g><path style="opacity:1" fill="#47823d" d="M 19.5,35.5 C 20.5676,34.5655 21.901,34.2322 23.5,34.5C 24.8333,36.1667 24.8333,37.8333 23.5,39.5C 23.5,38.1667 23.5,36.8333 23.5,35.5C 22.1667,35.5 20.8333,35.5 19.5,35.5 Z"/></g>
<g><path style="opacity:1" fill="#4f8640" d="M 9.5,35.5 C 10.1667,35.5 10.8333,35.5 11.5,35.5C 11.3893,36.1174 11.056,36.6174 10.5,37C 11.7932,37.49 13.1266,37.6567 14.5,37.5C 14.5,37.8333 14.5,38.1667 14.5,38.5C 12.4534,38.5111 10.4534,38.8444 8.5,39.5C 6.19656,39.1237 5.86322,38.1237 7.5,36.5C 7.84171,35.6618 8.50838,35.3284 9.5,35.5 Z"/></g>
<g><path style="opacity:0.353" fill="#113b11" d="M 19.5,36.5 C 18.2196,37.9313 16.5529,38.5979 14.5,38.5C 14.5,38.1667 14.5,37.8333 14.5,37.5C 16.0418,36.6993 17.7085,36.366 19.5,36.5 Z"/></g>
<g><path style="opacity:0.584" fill="#1a4017" d="M 7.5,36.5 C 5.86322,38.1237 6.19656,39.1237 8.5,39.5C 10.4534,38.8444 12.4534,38.5111 14.5,38.5C 11.8291,40.1181 8.82909,40.7847 5.5,40.5C 5.15684,38.5168 5.82351,37.1834 7.5,36.5 Z"/></g>
<g><path style="opacity:0.78" fill="#204521" d="M 22.5,39.5 C 22.4326,40.9587 22.7659,42.2921 23.5,43.5C 22.4138,43.38 21.7472,42.7133 21.5,41.5C 21.5427,40.5836 21.8761,39.9169 22.5,39.5 Z"/></g>
<g><path style="opacity:1" fill="#477b3b" d="M 22.5,39.5 C 22.8333,39.5 23.1667,39.5 23.5,39.5C 23.62,40.5862 24.2867,41.2528 25.5,41.5C 26.7387,41.0576 27.7387,40.3909 28.5,39.5C 29.5,39.5 30.5,39.5 31.5,39.5C 31.9383,41.126 32.2716,42.7927 32.5,44.5C 32.3601,46.0296 31.6935,47.0296 30.5,47.5C 30.6495,46.448 30.4828,45.448 30,44.5C 29.0766,45.7588 28.2432,47.0921 27.5,48.5C 26.8302,46.7086 26.1635,45.0419 25.5,43.5C 24.8333,43.5 24.1667,43.5 23.5,43.5C 22.7659,42.2921 22.4326,40.9587 22.5,39.5 Z"/></g>
<g><path style="opacity:0.427" fill="#053300" d="M 28.5,40.5 C 30.337,40.6395 30.6704,41.3061 29.5,42.5C 28.7025,42.0431 28.3691,41.3764 28.5,40.5 Z"/></g>
<g><path style="opacity:0.941" fill="#1e4b19" d="M 37.5,34.5 C 35.6729,35.9319 34.0063,37.5986 32.5,39.5C 33.4066,42.4212 33.7399,45.4212 33.5,48.5C 32.209,48.7373 31.209,48.404 30.5,47.5C 31.6935,47.0296 32.3601,46.0296 32.5,44.5C 32.2716,42.7927 31.9383,41.126 31.5,39.5C 32.2678,36.4384 34.2678,34.7717 37.5,34.5 Z"/></g>
<g><path style="opacity:1" fill="#244d22" d="M 25.5,43.5 C 26.1635,45.0419 26.8302,46.7086 27.5,48.5C 28.2432,47.0921 29.0766,45.7588 30,44.5C 30.4828,45.448 30.6495,46.448 30.5,47.5C 29.5987,48.2905 28.9321,49.2905 28.5,50.5C 27.5,50.5 26.5,50.5 25.5,50.5C 24.3139,48.2078 24.3139,45.8744 25.5,43.5 Z"/></g>
</svg>
