<?xml version="1.0" encoding="UTF-8"?>
<!DOCTYPE svg PUBLIC "-//W3C//DTD SVG 1.1//EN" "http://www.w3.org/Graphics/SVG/1.1/DTD/svg11.dtd">
<svg xmlns="http://www.w3.org/2000/svg" version="1.1" width="53px" height="71px" style="shape-rendering:geometricPrecision; text-rendering:geometricPrecision; image-rendering:optimizeQuality; fill-rule:evenodd; clip-rule:evenodd" xmlns:xlink="http://www.w3.org/1999/xlink">
<g><path style="opacity:1" fill="#004623" d="M 20.5,2.5 C 23.6029,3.04238 26.4362,4.37571 29,6.5C 29.6397,8.26502 29.4731,9.93169 28.5,11.5C 27.0698,13.4547 27.4031,15.1214 29.5,16.5C 32.8333,17.5 36.1667,18.5 39.5,19.5C 39.5,19.8333 39.5,20.1667 39.5,20.5C 38.5,21.1667 37.5,21.8333 36.5,22.5C 35.5,22.5 34.5,22.5 33.5,22.5C 33.2475,25.3198 33.7475,27.9865 35,30.5C 38.4627,31.2876 41.4627,32.9543 44,35.5C 44.5908,41.4985 45.0908,47.4985 45.5,53.5C 44.8347,55.6979 44.1681,58.0312 43.5,60.5C 41.8014,61.8146 40.1347,61.8146 38.5,60.5C 38.0198,57.5568 37.0198,54.8902 35.5,52.5C 35.2505,49.9979 34.9172,47.4979 34.5,45C 34.3917,43.3189 33.7251,42.1522 32.5,41.5C 31.1021,37.7892 28.4354,35.4558 24.5,34.5C 23.2485,32.9991 22.2485,31.3325 21.5,29.5C 20.0416,28.218 18.7082,28.218 17.5,29.5C 13.4087,30.5213 9.57537,31.5213 6,32.5C 5.15532,30.3885 4.32198,28.3885 3.5,26.5C 3.44312,25.391 3.10978,24.391 2.5,23.5C 6.51383,23.6655 10.5138,23.4988 14.5,23C 15.6843,21.8545 15.6843,20.6879 14.5,19.5C 14.5,18.1667 14.5,16.8333 14.5,15.5C 14.9658,11.3628 14.9658,7.02945 14.5,2.5C 16.5,2.5 18.5,2.5 20.5,2.5 Z"/></g>
<g><path style="opacity:1" fill="#014324" d="M 45.5,14.5 C 47.248,15.7894 47.5814,17.2894 46.5,19C 44.1902,19.4966 41.8568,19.6633 39.5,19.5C 36.1667,18.5 32.8333,17.5 29.5,16.5C 31.7354,16.7947 33.7354,16.4614 35.5,15.5C 35.6107,14.8826 35.944,14.3826 36.5,14C 39.592,13.2642 42.592,13.4309 45.5,14.5 Z"/></g>
<g><path style="opacity:1" fill="#002a14" d="M 28.5,11.5 C 28.33,12.8221 28.6634,13.9887 29.5,15C 31.4727,15.4955 33.4727,15.6621 35.5,15.5C 33.7354,16.4614 31.7354,16.7947 29.5,16.5C 27.4031,15.1214 27.0698,13.4547 28.5,11.5 Z"/></g>
<g><path style="opacity:1" fill="#02351c" d="M 45.5,14.5 C 46.1667,14.5 46.8333,14.5 47.5,14.5C 49.7267,16.2287 50.7267,18.562 50.5,21.5C 46.8648,20.8857 43.1981,20.5524 39.5,20.5C 39.5,20.1667 39.5,19.8333 39.5,19.5C 41.8568,19.6633 44.1902,19.4966 46.5,19C 47.5814,17.2894 47.248,15.7894 45.5,14.5 Z"/></g>
<g><path style="opacity:0.755" fill="#012110" d="M 12.5,-0.5 C 14.5,-0.5 16.5,-0.5 18.5,-0.5C 21.2823,0.933014 24.2823,2.09968 27.5,3C 31.8347,5.66376 32.5013,8.99709 29.5,13C 29.8333,13.3333 30.1667,13.6667 30.5,14C 33.9276,13.4014 37.4276,12.568 41,11.5C 43.8021,11.3199 45.9687,12.3199 47.5,14.5C 46.8333,14.5 46.1667,14.5 45.5,14.5C 42.592,13.4309 39.592,13.2642 36.5,14C 35.944,14.3826 35.6107,14.8826 35.5,15.5C 33.4727,15.6621 31.4727,15.4955 29.5,15C 28.6634,13.9887 28.33,12.8221 28.5,11.5C 29.4731,9.93169 29.6397,8.26502 29,6.5C 26.4362,4.37571 23.6029,3.04238 20.5,2.5C 18.1576,0.955659 15.6576,0.622326 13,1.5C 13.0343,6.18559 13.5343,10.8523 14.5,15.5C 13.2616,17.2143 12.595,19.2143 12.5,21.5C 8.44539,21.1758 4.44539,21.5091 0.5,22.5C 1.03514,24.261 2.03514,25.5943 3.5,26.5C 3.27863,29.2788 3.61197,31.9455 4.5,34.5C 5.09682,35.1386 5.93015,35.472 7,35.5C 8.69915,35.6134 9.86581,34.9468 10.5,33.5C 12.8333,33.5 15.1667,33.5 17.5,33.5C 13.2582,34.8864 8.92489,36.0531 4.5,37C 2.58103,33.1528 0.914359,29.3195 -0.5,25.5C -0.5,23.8333 -0.5,22.1667 -0.5,20.5C 3.5,20.5 7.5,20.5 11.5,20.5C 13.1057,15.1428 12.7724,9.9761 10.5,5C 10.7579,2.99066 11.4245,1.15733 12.5,-0.5 Z"/></g>
<g><path style="opacity:1" fill="#063a21" d="M 20.5,2.5 C 18.5,2.5 16.5,2.5 14.5,2.5C 14.9658,7.02945 14.9658,11.3628 14.5,15.5C 13.5343,10.8523 13.0343,6.18559 13,1.5C 15.6576,0.622326 18.1576,0.955659 20.5,2.5 Z"/></g>
<g><path style="opacity:1" fill="#04371f" d="M 14.5,15.5 C 14.5,16.8333 14.5,18.1667 14.5,19.5C 13.596,20.209 13.2627,21.209 13.5,22.5C 9.62859,22.185 5.96192,22.5184 2.5,23.5C 3.10978,24.391 3.44312,25.391 3.5,26.5C 2.03514,25.5943 1.03514,24.261 0.5,22.5C 4.44539,21.5091 8.44539,21.1758 12.5,21.5C 12.595,19.2143 13.2616,17.2143 14.5,15.5 Z"/></g>
<g><path style="opacity:1" fill="#043f23" d="M 14.5,19.5 C 15.6843,20.6879 15.6843,21.8545 14.5,23C 10.5138,23.4988 6.51383,23.6655 2.5,23.5C 5.96192,22.5184 9.62859,22.185 13.5,22.5C 13.2627,21.209 13.596,20.209 14.5,19.5 Z"/></g>
<g><path style="opacity:1" fill="#023d21" d="M 36.5,22.5 C 34.86,23.7901 34.36,25.4567 35,27.5C 37.6566,29.5494 40.4899,31.3828 43.5,33C 44.8932,34.1711 45.7265,35.6711 46,37.5C 46.8206,44.3464 46.654,51.013 45.5,57.5C 45.5,56.1667 45.5,54.8333 45.5,53.5C 45.0908,47.4985 44.5908,41.4985 44,35.5C 41.4627,32.9543 38.4627,31.2876 35,30.5C 33.7475,27.9865 33.2475,25.3198 33.5,22.5C 34.5,22.5 35.5,22.5 36.5,22.5 Z"/></g>
<g><path style="opacity:1" fill="#033c20" d="M 32.5,41.5 C 30.9731,41.573 29.9731,40.9063 29.5,39.5C 29.0269,38.0937 28.0269,37.427 26.5,37.5C 25.8333,37.5 25.1667,37.5 24.5,37.5C 23.2003,34.5677 21.2003,32.2344 18.5,30.5C 18.1667,30.5 17.8333,30.5 17.5,30.5C 17.5,30.1667 17.5,29.8333 17.5,29.5C 18.7082,28.218 20.0416,28.218 21.5,29.5C 22.2485,31.3325 23.2485,32.9991 24.5,34.5C 28.4354,35.4558 31.1021,37.7892 32.5,41.5 Z"/></g>
<g><path style="opacity:1" fill="#034325" d="M 3.5,26.5 C 4.32198,28.3885 5.15532,30.3885 6,32.5C 9.57537,31.5213 13.4087,30.5213 17.5,29.5C 17.5,29.8333 17.5,30.1667 17.5,30.5C 15.4922,32.0826 13.1589,33.0826 10.5,33.5C 8.56475,34.1495 6.56475,34.4828 4.5,34.5C 3.61197,31.9455 3.27863,29.2788 3.5,26.5 Z"/></g>
<g><path style="opacity:0.443" fill="#012411" d="M 17.5,30.5 C 17.8333,30.5 18.1667,30.5 18.5,30.5C 18.5,31.1667 18.5,31.8333 18.5,32.5C 18.5,33.1667 18.1667,33.5 17.5,33.5C 15.1667,33.5 12.8333,33.5 10.5,33.5C 13.1589,33.0826 15.4922,32.0826 17.5,30.5 Z"/></g>
<g><path style="opacity:1" fill="#03321c" d="M 10.5,33.5 C 9.86581,34.9468 8.69915,35.6134 7,35.5C 5.93015,35.472 5.09682,35.1386 4.5,34.5C 6.56475,34.4828 8.56475,34.1495 10.5,33.5 Z"/></g>
<g><path style="opacity:0.408" fill="#001d0c" d="M 18.5,30.5 C 21.2003,32.2344 23.2003,34.5677 24.5,37.5C 21.8851,36.5501 19.8851,34.8835 18.5,32.5C 18.5,31.8333 18.5,31.1667 18.5,30.5 Z"/></g>
<g><path style="opacity:0.443" fill="#01200f" d="M 47.5,14.5 C 49.2838,14.8925 50.9505,15.5592 52.5,16.5C 52.5,17.8333 52.5,19.1667 52.5,20.5C 51.1213,21.6089 49.4547,22.2755 47.5,22.5C 42.76,20.358 39.0933,21.5246 36.5,26C 39.2983,28.2375 42.2983,30.2375 45.5,32C 47.1148,36.9985 48.1148,42.1651 48.5,47.5C 47.5722,55.1854 46.5722,62.852 45.5,70.5C 44.1667,70.5 42.8333,70.5 41.5,70.5C 35.8995,62.0507 32.2328,52.7174 30.5,42.5C 28.0592,41.291 26.0592,39.6243 24.5,37.5C 25.1667,37.5 25.8333,37.5 26.5,37.5C 26.9731,38.9063 27.9731,39.573 29.5,39.5C 29.9731,40.9063 30.9731,41.573 32.5,41.5C 32.1257,45.6474 33.1257,49.3141 35.5,52.5C 35.7424,56.479 36.7424,60.1456 38.5,63.5C 39.5955,65.358 40.9288,67.0246 42.5,68.5C 44.1112,67.6798 44.7778,66.3464 44.5,64.5C 44.9926,62.1944 45.3259,59.861 45.5,57.5C 46.654,51.013 46.8206,44.3464 46,37.5C 45.7265,35.6711 44.8932,34.1711 43.5,33C 40.4899,31.3828 37.6566,29.5494 35,27.5C 34.36,25.4567 34.86,23.7901 36.5,22.5C 37.5,21.8333 38.5,21.1667 39.5,20.5C 43.1981,20.5524 46.8648,20.8857 50.5,21.5C 50.7267,18.562 49.7267,16.2287 47.5,14.5 Z"/></g>
<g><path style="opacity:1" fill="#063a21" d="M 35.5,52.5 C 37.0198,54.8902 38.0198,57.5568 38.5,60.5C 38.5,61.5 38.5,62.5 38.5,63.5C 36.7424,60.1456 35.7424,56.479 35.5,52.5 Z"/></g>
<g><path style="opacity:1" fill="#073f24" d="M 32.5,41.5 C 33.7251,42.1522 34.3917,43.3189 34.5,45C 34.9172,47.4979 35.2505,49.9979 35.5,52.5C 33.1257,49.3141 32.1257,45.6474 32.5,41.5 Z"/></g>
<g><path style="opacity:1" fill="#03341d" d="M 26.5,37.5 C 28.0269,37.427 29.0269,38.0937 29.5,39.5C 27.9731,39.573 26.9731,38.9063 26.5,37.5 Z"/></g>
<g><path style="opacity:1" fill="#034022" d="M 45.5,53.5 C 45.5,54.8333 45.5,56.1667 45.5,57.5C 45.3259,59.861 44.9926,62.1944 44.5,64.5C 43.8485,65.0906 43.1818,65.7573 42.5,66.5C 41.7174,64.7118 40.3841,63.7118 38.5,63.5C 38.5,62.5 38.5,61.5 38.5,60.5C 40.1347,61.8146 41.8014,61.8146 43.5,60.5C 44.1681,58.0312 44.8347,55.6979 45.5,53.5 Z"/></g>
<g><path style="opacity:1" fill="#063820" d="M 38.5,63.5 C 40.3841,63.7118 41.7174,64.7118 42.5,66.5C 43.1818,65.7573 43.8485,65.0906 44.5,64.5C 44.7778,66.3464 44.1112,67.6798 42.5,68.5C 40.9288,67.0246 39.5955,65.358 38.5,63.5 Z"/></g>
</svg>
