<?xml version="1.0" encoding="UTF-8"?>
<!DOCTYPE svg PUBLIC "-//W3C//DTD SVG 1.1//EN" "http://www.w3.org/Graphics/SVG/1.1/DTD/svg11.dtd">
<svg xmlns="http://www.w3.org/2000/svg" version="1.1" width="36px" height="31px" style="shape-rendering:geometricPrecision; text-rendering:geometricPrecision; image-rendering:optimizeQuality; fill-rule:evenodd; clip-rule:evenodd" xmlns:xlink="http://www.w3.org/1999/xlink">
<g><path style="opacity:0.733" fill="#285f2a" d="M 13.5,-0.5 C 14.8333,-0.5 16.1667,-0.5 17.5,-0.5C 20.0762,1.88753 21.0762,4.88753 20.5,8.5C 20.1667,8.5 19.8333,8.5 19.5,8.5C 20.0922,5.36947 19.0922,3.03614 16.5,1.5C 15.6522,0.375047 14.6522,0.375047 13.5,1.5C 13.5,0.833333 13.5,0.166667 13.5,-0.5 Z"/></g>
<g><path style="opacity:1" fill="#50974c" d="M 16.5,1.5 C 15.3709,3.62816 15.2042,5.96149 16,8.5C 16.6708,9.25244 17.5041,9.58577 18.5,9.5C 18.7148,11.1788 18.0481,12.1788 16.5,12.5C 16.5,11.8333 16.1667,11.5 15.5,11.5C 13.9767,8.36517 13.31,5.03184 13.5,1.5C 14.6522,0.375047 15.6522,0.375047 16.5,1.5 Z"/></g>
<g><path style="opacity:1" fill="#4d9f45" d="M 16.5,1.5 C 19.0922,3.03614 20.0922,5.36947 19.5,8.5C 19.5,8.83333 19.5,9.16667 19.5,9.5C 19.1667,9.5 18.8333,9.5 18.5,9.5C 17.5041,9.58577 16.6708,9.25244 16,8.5C 15.2042,5.96149 15.3709,3.62816 16.5,1.5 Z"/></g>
<g><path style="opacity:0.659" fill="#245429" d="M 13.5,1.5 C 13.31,5.03184 13.9767,8.36517 15.5,11.5C 15.1667,11.5 14.8333,11.5 14.5,11.5C 12.4544,8.21594 12.1211,4.88261 13.5,1.5 Z"/></g>
<g><path style="opacity:0.675" fill="#265c2a" d="M 32.5,4.5 C 33.5,4.5 34.5,4.5 35.5,4.5C 35.5,5.83333 35.5,7.16667 35.5,8.5C 35.1667,8.5 34.8333,8.5 34.5,8.5C 34.4729,6.80072 33.8062,5.46739 32.5,4.5 Z"/></g>
<g><path style="opacity:0.592" fill="#1d4922" d="M 26.5,4.5 C 25.1667,6.5 23.5,8.16667 21.5,9.5C 22.1667,6.83333 23.8333,5.16667 26.5,4.5 Z"/></g>
<g><path style="opacity:1" fill="#4b9646" d="M 32.5,4.5 C 33.8062,5.46739 34.4729,6.80072 34.5,8.5C 33.197,10.1423 31.8637,11.8089 30.5,13.5C 26.9878,14.0545 23.9878,13.3878 21.5,11.5C 21.5,10.8333 21.5,10.1667 21.5,9.5C 23.5,8.16667 25.1667,6.5 26.5,4.5C 28.6112,3.25844 30.6112,3.25844 32.5,4.5 Z"/></g>
<g><path style="opacity:0.88" fill="#063910" d="M 19.5,8.5 C 19.8333,8.5 20.1667,8.5 20.5,8.5C 20.5,9.16667 20.8333,9.5 21.5,9.5C 21.5,10.1667 21.5,10.8333 21.5,11.5C 20.8333,11.5 20.5,11.8333 20.5,12.5C 19.596,11.791 19.2627,10.791 19.5,9.5C 19.5,9.16667 19.5,8.83333 19.5,8.5 Z"/></g>
<g><path style="opacity:0.184" fill="#124215" d="M 34.5,8.5 C 34.6308,11.3667 33.2974,13.0334 30.5,13.5C 31.8637,11.8089 33.197,10.1423 34.5,8.5 Z"/></g>
<g><path style="opacity:1" fill="#39703c" d="M 10.5,13.5 C 10.5,13.8333 10.5,14.1667 10.5,14.5C 9.12656,14.3433 7.79323,14.51 6.5,15C 7.25244,15.6708 7.58577,16.5041 7.5,17.5C 5.73758,16.7377 4.73758,15.4044 4.5,13.5C 6.5,12.1667 8.5,12.1667 10.5,13.5 Z"/></g>
<g><path style="opacity:1" fill="#39733a" d="M 21.5,11.5 C 23.9878,13.3878 26.9878,14.0545 30.5,13.5C 29.0813,14.4511 27.4147,14.7845 25.5,14.5C 24.1667,14.5 22.8333,14.5 21.5,14.5C 19.3023,14.5912 18.9689,13.9245 20.5,12.5C 20.5,11.8333 20.8333,11.5 21.5,11.5 Z"/></g>
<g><path style="opacity:1" fill="#235526" d="M 18.5,9.5 C 18.8333,9.5 19.1667,9.5 19.5,9.5C 19.2627,10.791 19.596,11.791 20.5,12.5C 18.9689,13.9245 19.3023,14.5912 21.5,14.5C 20.8333,15.1667 20.1667,15.8333 19.5,16.5C 19.5,17.1667 19.5,17.8333 19.5,18.5C 17.9925,16.8185 16.9925,14.8185 16.5,12.5C 18.0481,12.1788 18.7148,11.1788 18.5,9.5 Z"/></g>
<g><path style="opacity:0.427" fill="#0e3416" d="M 4.5,13.5 C 4.73758,15.4044 5.73758,16.7377 7.5,17.5C 7.83333,18.1667 8.16667,18.8333 8.5,19.5C 4.88666,18.6197 3.55333,16.6197 4.5,13.5 Z"/></g>
<g><path style="opacity:0.384" fill="#04330d" d="M 10.5,14.5 C 10.5,14.1667 10.5,13.8333 10.5,13.5C 12.5,13.5 13.5,14.5 13.5,16.5C 12.8333,16.1667 12.1667,15.8333 11.5,15.5C 11.5,14.8333 11.1667,14.5 10.5,14.5 Z"/></g>
<g><path style="opacity:0.867" fill="#033507" d="M 21.5,14.5 C 22.8333,14.5 24.1667,14.5 25.5,14.5C 25.5,15.1667 25.5,15.8333 25.5,16.5C 23.5,16.5 21.5,16.5 19.5,16.5C 20.1667,15.8333 20.8333,15.1667 21.5,14.5 Z"/></g>
<g><path style="opacity:1" fill="#51a049" d="M 10.5,14.5 C 11.1667,14.5 11.5,14.8333 11.5,15.5C 11.719,16.675 11.3857,17.675 10.5,18.5C 9.58317,17.8728 8.58317,17.5394 7.5,17.5C 7.58577,16.5041 7.25244,15.6708 6.5,15C 7.79323,14.51 9.12656,14.3433 10.5,14.5 Z"/></g>
<g><path style="opacity:1" fill="#0b3015" d="M 14.5,11.5 C 14.8333,11.5 15.1667,11.5 15.5,11.5C 16.1667,11.5 16.5,11.8333 16.5,12.5C 16.9925,14.8185 17.9925,16.8185 19.5,18.5C 19.5,18.8333 19.5,19.1667 19.5,19.5C 18.8333,19.5 18.1667,19.5 17.5,19.5C 17.1667,18.1667 16.8333,18.1667 16.5,19.5C 14.8212,19.7148 13.8212,19.0481 13.5,17.5C 14.4778,17.189 15.1445,16.5223 15.5,15.5C 14.7542,14.2638 14.4208,12.9305 14.5,11.5 Z"/></g>
<g><path style="opacity:0.847" fill="#346a35" d="M 19.5,16.5 C 21.5,16.5 23.5,16.5 25.5,16.5C 28.0101,16.0535 30.0101,16.7202 31.5,18.5C 31.1667,18.5 30.8333,18.5 30.5,18.5C 30.1667,18.5 29.8333,18.5 29.5,18.5C 28.2067,17.8418 26.7067,17.5085 25,17.5C 23.0145,17.5687 21.5145,18.2353 20.5,19.5C 20.1667,19.5 19.8333,19.5 19.5,19.5C 19.5,19.1667 19.5,18.8333 19.5,18.5C 19.5,17.8333 19.5,17.1667 19.5,16.5 Z"/></g>
<g><path style="opacity:1" fill="#4a8d47" d="M 29.5,18.5 C 27.1432,18.3367 24.8098,18.5034 22.5,19C 23.2524,19.6708 23.5858,20.5041 23.5,21.5C 22.8333,21.5 22.1667,21.5 21.5,21.5C 20.6618,21.1583 20.3284,20.4916 20.5,19.5C 21.5145,18.2353 23.0145,17.5687 25,17.5C 26.7067,17.5085 28.2067,17.8418 29.5,18.5 Z"/></g>
<g><path style="opacity:1" fill="#50a049" d="M 29.5,18.5 C 29.8333,18.5 30.1667,18.5 30.5,18.5C 30.8383,22.1507 29.1716,23.8174 25.5,23.5C 24.5,23.1667 23.8333,22.5 23.5,21.5C 23.5858,20.5041 23.2524,19.6708 22.5,19C 24.8098,18.5034 27.1432,18.3367 29.5,18.5 Z"/></g>
<g><path style="opacity:1" fill="#3d7e3a" d="M 11.5,15.5 C 12.1667,15.8333 12.8333,16.1667 13.5,16.5C 13.5,16.8333 13.5,17.1667 13.5,17.5C 13.8212,19.0481 14.8212,19.7148 16.5,19.5C 16.5,20.1667 16.5,20.8333 16.5,21.5C 14.8041,19.871 13.8041,20.2043 13.5,22.5C 12.4739,21.147 11.1405,20.147 9.5,19.5C 9.16667,19.5 8.83333,19.5 8.5,19.5C 8.16667,18.8333 7.83333,18.1667 7.5,17.5C 8.58317,17.5394 9.58317,17.8728 10.5,18.5C 11.3857,17.675 11.719,16.675 11.5,15.5 Z"/></g>
<g><path style="opacity:1" fill="#0f3b15" d="M 9.5,19.5 C 11.1405,20.147 12.4739,21.147 13.5,22.5C 13.427,24.0269 14.0937,25.0269 15.5,25.5C 15.5,25.8333 15.5,26.1667 15.5,26.5C 14.7611,26.631 14.0944,26.4643 13.5,26C 12.6006,24.3484 11.6006,22.8484 10.5,21.5C 9.66175,21.1583 9.32842,20.4916 9.5,19.5 Z"/></g>
<g><path style="opacity:1" fill="#53994c" d="M 16.5,21.5 C 17.1667,21.5 17.5,21.8333 17.5,22.5C 17.7148,24.1788 17.0481,25.1788 15.5,25.5C 14.0937,25.0269 13.427,24.0269 13.5,22.5C 13.8041,20.2043 14.8041,19.871 16.5,21.5 Z"/></g>
<g><path style="opacity:1" fill="#458843" d="M 30.5,18.5 C 30.8333,18.5 31.1667,18.5 31.5,18.5C 31.427,20.0269 32.0937,21.0269 33.5,21.5C 33.4431,22.609 33.1098,23.609 32.5,24.5C 30.059,25.7563 27.7257,25.7563 25.5,24.5C 25.5,24.1667 25.5,23.8333 25.5,23.5C 29.1716,23.8174 30.8383,22.1507 30.5,18.5 Z"/></g>
<g><path style="opacity:0.412" fill="#1b511e" d="M 31.5,18.5 C 32.9063,18.9731 33.573,19.9731 33.5,21.5C 32.0937,21.0269 31.427,20.0269 31.5,18.5 Z"/></g>
<g><path style="opacity:0.553" fill="#0d3f14" d="M 16.5,19.5 C 16.8333,19.5 17.1667,19.5 17.5,19.5C 18.1098,20.391 18.4431,21.391 18.5,22.5C 18.1667,22.5 17.8333,22.5 17.5,22.5C 17.5,21.8333 17.1667,21.5 16.5,21.5C 16.5,20.8333 16.5,20.1667 16.5,19.5 Z"/></g>
<g><path style="opacity:0.898" fill="#2c6032" d="M 21.5,21.5 C 22.1667,21.5 22.8333,21.5 23.5,21.5C 23.8333,22.5 24.5,23.1667 25.5,23.5C 25.5,23.8333 25.5,24.1667 25.5,24.5C 23.5956,24.2624 22.2623,23.2624 21.5,21.5 Z"/></g>
<g><path style="opacity:0.129" fill="#14441c" d="M 33.5,21.5 C 34.8852,22.9473 34.5518,23.9473 32.5,24.5C 33.1098,23.609 33.4431,22.609 33.5,21.5 Z"/></g>
<g><path style="opacity:1" fill="#3f7d3f" d="M 17.5,22.5 C 17.8333,22.5 18.1667,22.5 18.5,22.5C 18.6602,24.1992 18.4935,25.8659 18,27.5C 17.3292,26.7476 16.4959,26.4142 15.5,26.5C 15.5,26.1667 15.5,25.8333 15.5,25.5C 17.0481,25.1788 17.7148,24.1788 17.5,22.5 Z"/></g>
<g><path style="opacity:0.898" fill="#16331f" d="M 8.5,19.5 C 8.83333,19.5 9.16667,19.5 9.5,19.5C 9.32842,20.4916 9.66175,21.1583 10.5,21.5C 7.80621,24.8605 4.80621,27.8605 1.5,30.5C 0.833333,30.5 0.166667,30.5 -0.5,30.5C -0.5,29.5 -0.5,28.5 -0.5,27.5C 3.12032,25.5472 6.12032,22.8805 8.5,19.5 Z"/></g>
<g><path style="opacity:0.788" fill="#16421c" d="M 18.5,22.5 C 19.4614,24.2646 19.7947,26.2646 19.5,28.5C 17.6203,28.7709 16.287,28.1042 15.5,26.5C 16.4959,26.4142 17.3292,26.7476 18,27.5C 18.4935,25.8659 18.6602,24.1992 18.5,22.5 Z"/></g>
</svg>
