<?xml version="1.0" encoding="UTF-8"?>
<!DOCTYPE svg PUBLIC "-//W3C//DTD SVG 1.1//EN" "http://www.w3.org/Graphics/SVG/1.1/DTD/svg11.dtd">
<svg xmlns="http://www.w3.org/2000/svg" version="1.1" width="35px" height="30px" style="shape-rendering:geometricPrecision; text-rendering:geometricPrecision; image-rendering:optimizeQuality; fill-rule:evenodd; clip-rule:evenodd" xmlns:xlink="http://www.w3.org/1999/xlink">
<g><path style="opacity:0.714" fill="#012911" d="M 24.5,4.5 C 25.8062,5.46739 26.4729,6.80072 26.5,8.5C 24.1727,8.75293 22.1727,8.08626 20.5,6.5C 21.3202,4.88882 22.6536,4.22216 24.5,4.5 Z"/></g>
<g><path style="opacity:1" fill="#022e17" d="M 6.5,5.5 C 8.16667,5.5 9.83333,5.5 11.5,5.5C 11.7822,6.77765 12.4489,7.77765 13.5,8.5C 13.5,9.16667 13.1667,9.5 12.5,9.5C 10.5,9.5 8.5,9.5 6.5,9.5C 7.60853,8.71003 8.94186,8.21003 10.5,8C 8.7444,7.7978 7.07774,7.2978 5.5,6.5C 5.62358,5.89333 5.95691,5.55999 6.5,5.5 Z"/></g>
<g><path style="opacity:1" fill="#0c5130" d="M 24.5,4.5 C 22.6536,4.22216 21.3202,4.88882 20.5,6.5C 22.1727,8.08626 24.1727,8.75293 26.5,8.5C 27.1667,8.5 27.5,8.83333 27.5,9.5C 27.7373,10.791 27.404,11.791 26.5,12.5C 26.5,11.5 26.5,10.5 26.5,9.5C 22.19,8.91979 17.8566,8.58645 13.5,8.5C 12.4489,7.77765 11.7822,6.77765 11.5,5.5C 13.5996,5.47724 15.4329,6.14391 17,7.5C 18.8204,6.39612 20.3204,4.89612 21.5,3C 23.1575,2.27484 24.1575,2.77484 24.5,4.5 Z"/></g>
<g><path style="opacity:1" fill="#02723a" d="M 24.5,13.5 C 24.2503,15.674 23.2503,17.3406 21.5,18.5C 19.7121,19.3604 18.0455,20.3604 16.5,21.5C 9.63221,22.1115 7.29887,19.1115 9.5,12.5C 12.8068,12.0307 15.9735,11.0307 19,9.5C 20.7659,10.2335 22.5992,10.5668 24.5,10.5C 24.5,11.5 24.5,12.5 24.5,13.5 Z"/></g>
<g><path style="opacity:1" fill="#086a3a" d="M 13.5,8.5 C 17.8566,8.58645 22.19,8.91979 26.5,9.5C 26.5,10.5 26.5,11.5 26.5,12.5C 25.8333,12.5 25.5,12.8333 25.5,13.5C 25.1667,13.5 24.8333,13.5 24.5,13.5C 24.5,12.5 24.5,11.5 24.5,10.5C 22.5992,10.5668 20.7659,10.2335 19,9.5C 15.9735,11.0307 12.8068,12.0307 9.5,12.5C 10.0998,11.1001 11.0998,10.1001 12.5,9.5C 13.1667,9.5 13.5,9.16667 13.5,8.5 Z"/></g>
<g><path style="opacity:1" fill="#00371b" d="M 27.5,9.5 C 28.4345,10.5676 28.7678,11.901 28.5,13.5C 27.5,13.5 26.5,13.5 25.5,13.5C 25.5,12.8333 25.8333,12.5 26.5,12.5C 27.404,11.791 27.7373,10.791 27.5,9.5 Z"/></g>
<g><path style="opacity:0.5" fill="#011e0e" d="M 6.5,4.5 C 6.5,4.83333 6.5,5.16667 6.5,5.5C 5.95691,5.55999 5.62358,5.89333 5.5,6.5C 7.07774,7.2978 8.7444,7.7978 10.5,8C 8.94186,8.21003 7.60853,8.71003 6.5,9.5C 4.5,10.1667 3.16667,11.5 2.5,13.5C 0.668025,14.1405 0.334692,15.1405 1.5,16.5C 2.73619,15.7542 4.06953,15.4208 5.5,15.5C 5.26269,16.791 5.59603,17.791 6.5,18.5C 7.33825,18.8417 7.67158,19.5084 7.5,20.5C 7.5,21.5 7.5,22.5 7.5,23.5C 3.35714,25.314 3.69047,26.314 8.5,26.5C 9.56764,27.4345 10.901,27.7678 12.5,27.5C 9.67269,28.3683 6.67269,28.3683 3.5,27.5C 2.96478,24.7615 3.96478,22.9282 6.5,22C 5.283,20.3523 4.44966,18.519 4,16.5C 2.64387,17.3802 1.14387,17.7135 -0.5,17.5C -0.5,16.1667 -0.5,14.8333 -0.5,13.5C 2.30315,10.7173 4.63649,7.71734 6.5,4.5 Z"/></g>
<g><path style="opacity:1" fill="#0e5031" d="M 6.5,9.5 C 8.5,9.5 10.5,9.5 12.5,9.5C 11.0998,10.1001 10.0998,11.1001 9.5,12.5C 9.16667,12.5 8.83333,12.5 8.5,12.5C 8.63101,11.7611 8.46434,11.0944 8,10.5C 6.29424,11.3079 5.46091,12.6412 5.5,14.5C 4.20895,14.7373 3.20895,14.404 2.5,13.5C 3.16667,11.5 4.5,10.1667 6.5,9.5 Z"/></g>
<g><path style="opacity:0.667" fill="#02210f" d="M 24.5,-0.5 C 25.8333,-0.5 27.1667,-0.5 28.5,-0.5C 28.5668,1.40078 28.2335,3.23411 27.5,5C 29.0073,8.02122 30.0073,11.1879 30.5,14.5C 31.8333,14.5 33.1667,14.5 34.5,14.5C 34.5,15.8333 34.5,17.1667 34.5,18.5C 31.9649,19.3487 29.4649,20.3487 27,21.5C 25.5603,20.8524 24.0603,20.5191 22.5,20.5C 22.6663,24.0021 21.6663,27.0021 19.5,29.5C 17.8333,29.5 16.1667,29.5 14.5,29.5C 14.5,28.1667 13.8333,27.5 12.5,27.5C 10.901,27.7678 9.56764,27.4345 8.5,26.5C 11.6305,27.0922 13.9639,26.0922 15.5,23.5C 15.8333,22.8333 16.1667,22.1667 16.5,21.5C 18.9935,21.1307 19.6602,21.7973 18.5,23.5C 17.5207,24.7653 16.5207,26.0986 15.5,27.5C 17.7329,28.0161 19.3996,27.0161 20.5,24.5C 21.4614,22.7354 21.7947,20.7354 21.5,18.5C 24.2658,19.2318 26.9325,19.2318 29.5,18.5C 30.6431,18.0919 31.6431,17.4252 32.5,16.5C 30.7015,15.2121 29.0348,15.2121 27.5,16.5C 25.9519,16.1788 25.2852,15.1788 25.5,13.5C 26.5,13.5 27.5,13.5 28.5,13.5C 28.7678,11.901 28.4345,10.5676 27.5,9.5C 27.5,8.83333 27.1667,8.5 26.5,8.5C 26.4729,6.80072 25.8062,5.46739 24.5,4.5C 24.1575,2.77484 23.1575,2.27484 21.5,3C 20.3204,4.89612 18.8204,6.39612 17,7.5C 15.4329,6.14391 13.5996,5.47724 11.5,5.5C 9.83333,5.5 8.16667,5.5 6.5,5.5C 6.5,5.16667 6.5,4.83333 6.5,4.5C 9.92374,3.00906 13.2571,3.34239 16.5,5.5C 17.941,4.13492 19.2744,2.63492 20.5,1C 22.0581,0.78997 23.3915,0.28997 24.5,-0.5 Z"/></g>
<g><path style="opacity:1" fill="#012f16" d="M 8.5,12.5 C 6.72017,13.9899 6.05351,15.9899 6.5,18.5C 5.59603,17.791 5.26269,16.791 5.5,15.5C 4.06953,15.4208 2.73619,15.7542 1.5,16.5C 0.334692,15.1405 0.668025,14.1405 2.5,13.5C 3.20895,14.404 4.20895,14.7373 5.5,14.5C 5.46091,12.6412 6.29424,11.3079 8,10.5C 8.46434,11.0944 8.63101,11.7611 8.5,12.5 Z"/></g>
<g><path style="opacity:1" fill="#0b6138" d="M 8.5,12.5 C 8.83333,12.5 9.16667,12.5 9.5,12.5C 7.29887,19.1115 9.63221,22.1115 16.5,21.5C 16.1667,22.1667 15.8333,22.8333 15.5,23.5C 14.8333,23.1667 14.1667,22.8333 13.5,22.5C 11.1417,22.7475 9.14166,22.0808 7.5,20.5C 7.67158,19.5084 7.33825,18.8417 6.5,18.5C 6.05351,15.9899 6.72017,13.9899 8.5,12.5 Z"/></g>
<g><path style="opacity:1" fill="#06361d" d="M 27.5,16.5 C 29.0348,15.2121 30.7015,15.2121 32.5,16.5C 31.6431,17.4252 30.6431,18.0919 29.5,18.5C 29.5,17.1667 28.8333,16.5 27.5,16.5 Z"/></g>
<g><path style="opacity:1" fill="#0a4a2b" d="M 24.5,13.5 C 24.8333,13.5 25.1667,13.5 25.5,13.5C 25.2852,15.1788 25.9519,16.1788 27.5,16.5C 28.8333,16.5 29.5,17.1667 29.5,18.5C 26.9325,19.2318 24.2658,19.2318 21.5,18.5C 23.2503,17.3406 24.2503,15.674 24.5,13.5 Z"/></g>
<g><path style="opacity:1" fill="#0c4c2a" d="M 21.5,18.5 C 21.7947,20.7354 21.4614,22.7354 20.5,24.5C 19.5084,24.6716 18.8417,24.3382 18.5,23.5C 19.6602,21.7973 18.9935,21.1307 16.5,21.5C 18.0455,20.3604 19.7121,19.3604 21.5,18.5 Z"/></g>
<g><path style="opacity:1" fill="#003616" d="M 7.5,20.5 C 9.14166,22.0808 11.1417,22.7475 13.5,22.5C 13.5299,23.4972 13.0299,24.1639 12,24.5C 10.5603,23.8524 9.06025,23.5191 7.5,23.5C 7.5,22.5 7.5,21.5 7.5,20.5 Z"/></g>
<g><path style="opacity:1" fill="#0e5031" d="M 13.5,22.5 C 14.1667,22.8333 14.8333,23.1667 15.5,23.5C 13.9639,26.0922 11.6305,27.0922 8.5,26.5C 7.89022,25.609 7.55688,24.609 7.5,23.5C 9.06025,23.5191 10.5603,23.8524 12,24.5C 13.0299,24.1639 13.5299,23.4972 13.5,22.5 Z"/></g>
<g><path style="opacity:1" fill="#07331f" d="M 7.5,23.5 C 7.55688,24.609 7.89022,25.609 8.5,26.5C 3.69047,26.314 3.35714,25.314 7.5,23.5 Z"/></g>
<g><path style="opacity:1" fill="#0c3822" d="M 18.5,23.5 C 18.8417,24.3382 19.5084,24.6716 20.5,24.5C 19.3996,27.0161 17.7329,28.0161 15.5,27.5C 16.5207,26.0986 17.5207,24.7653 18.5,23.5 Z"/></g>
</svg>
