<?xml version="1.0" encoding="UTF-8"?>
<!DOCTYPE svg PUBLIC "-//W3C//DTD SVG 1.1//EN" "http://www.w3.org/Graphics/SVG/1.1/DTD/svg11.dtd">
<svg xmlns="http://www.w3.org/2000/svg" version="1.1" width="53px" height="44px" style="shape-rendering:geometricPrecision; text-rendering:geometricPrecision; image-rendering:optimizeQuality; fill-rule:evenodd; clip-rule:evenodd" xmlns:xlink="http://www.w3.org/1999/xlink">
<g><path style="opacity:1" fill="#356832" d="M 47.5,-0.5 C 48.8333,-0.5 50.1667,-0.5 51.5,-0.5C 51.5,0.166667 51.8333,0.5 52.5,0.5C 52.5,1.83333 52.5,3.16667 52.5,4.5C 52.1667,4.5 51.8333,4.5 51.5,4.5C 51.5,3.5 51.5,2.5 51.5,1.5C 49.5,1.5 47.5,1.5 45.5,1.5C 46.1667,0.833333 46.8333,0.166667 47.5,-0.5 Z"/></g>
<g><path style="opacity:1" fill="#539e41" d="M 47.5,19.5 C 45.8762,19.3601 44.7096,20.0267 44,21.5C 41.595,20.7256 39.095,20.2256 36.5,20C 37.6053,17.8797 37.6053,15.7131 36.5,13.5C 38.8926,9.59769 41.8926,6.09769 45.5,3C 47.1341,2.50649 48.8008,2.33982 50.5,2.5C 49.3924,8.14578 48.3924,13.8124 47.5,19.5 Z"/></g>
<g><path style="opacity:1" fill="#559549" d="M 45.5,1.5 C 47.5,1.5 49.5,1.5 51.5,1.5C 51.5,2.5 51.5,3.5 51.5,4.5C 50.3522,9.09527 49.5189,13.7619 49,18.5C 48.6174,19.056 48.1174,19.3893 47.5,19.5C 48.3924,13.8124 49.3924,8.14578 50.5,2.5C 48.8008,2.33982 47.1341,2.50649 45.5,3C 41.8926,6.09769 38.8926,9.59769 36.5,13.5C 35.8333,13.5 35.1667,13.5 34.5,13.5C 34.5,12.8333 34.5,12.1667 34.5,11.5C 37.8333,8.83333 40.8333,5.83333 43.5,2.5C 43.8417,1.66175 44.5084,1.32842 45.5,1.5 Z"/></g>
<g><path style="opacity:0.765" fill="#214c22" d="M 43.5,2.5 C 40.8333,5.83333 37.8333,8.83333 34.5,11.5C 36.5,7.5 39.5,4.5 43.5,2.5 Z"/></g>
<g><path style="opacity:0.722" fill="#235221" d="M 0.5,11.5 C 4.28964,10.0976 7.95631,10.4309 11.5,12.5C 7.8455,12.0578 4.17884,11.7244 0.5,11.5 Z"/></g>
<g><path style="opacity:0.298" fill="#123f13" d="M 11.5,12.5 C 14.089,12.461 16.089,13.461 17.5,15.5C 15.1815,15.0075 13.1815,14.0075 11.5,12.5 Z"/></g>
<g><path style="opacity:0.682" fill="#29552d" d="M 34.5,11.5 C 34.5,12.1667 34.5,12.8333 34.5,13.5C 33.8333,13.8333 33.1667,14.1667 32.5,14.5C 32.427,12.9731 33.0937,11.9731 34.5,11.5 Z"/></g>
<g><path style="opacity:0.676" fill="#041d0b" d="M 30.5,14.5 C 29.8501,14.1961 29.1835,13.8627 28.5,13.5C 27.5258,15.7427 27.1924,18.076 27.5,20.5C 25.9382,20.2671 24.6049,19.6005 23.5,18.5C 23.8795,15.4331 22.8795,14.4331 20.5,15.5C 21.1834,13.8235 22.5168,13.1568 24.5,13.5C 24.4914,15.3084 24.9914,16.9751 26,18.5C 25.6813,16.2571 25.848,14.0905 26.5,12C 28.9449,11.0902 30.2782,11.9236 30.5,14.5 Z"/></g>
<g><path style="opacity:0.894" fill="#2b5c2f" d="M 0.5,15.5 C 2.53905,16.911 3.53905,18.911 3.5,21.5C 3.5,22.1667 3.5,22.8333 3.5,23.5C 1.98023,21.1098 0.98023,18.4432 0.5,15.5 Z"/></g>
<g><path style="opacity:0.106" fill="#0d3c0e" d="M 51.5,4.5 C 51.8333,4.5 52.1667,4.5 52.5,4.5C 52.5,5.83333 52.5,7.16667 52.5,8.5C 51.3939,12.7094 50.0605,16.8761 48.5,21C 49.3805,21.7083 50.0472,22.5416 50.5,23.5C 48.0882,23.3059 47.0882,21.9726 47.5,19.5C 48.1174,19.3893 48.6174,19.056 49,18.5C 49.5189,13.7619 50.3522,9.09527 51.5,4.5 Z"/></g>
<g><path style="opacity:1" fill="#477d41" d="M 3.5,21.5 C 5.25027,22.6594 6.25027,24.326 6.5,26.5C 5.83333,26.5 5.16667,26.5 4.5,26.5C 3.59603,25.791 3.26269,24.791 3.5,23.5C 3.5,22.8333 3.5,22.1667 3.5,21.5 Z"/></g>
<g><path style="opacity:1" fill="#4f9a42" d="M -0.5,11.5 C -0.166667,11.5 0.166667,11.5 0.5,11.5C 4.17884,11.7244 7.8455,12.0578 11.5,12.5C 13.1815,14.0075 15.1815,15.0075 17.5,15.5C 18.4916,15.3284 19.1583,15.6618 19.5,16.5C 19.5,17.1667 19.8333,17.5 20.5,17.5C 22.8913,20.917 26.2246,22.2503 30.5,21.5C 30.5,20.5 30.5,19.5 30.5,18.5C 32.5311,17.4613 33.8645,15.7946 34.5,13.5C 35.1667,13.5 35.8333,13.5 36.5,13.5C 37.6053,15.7131 37.6053,17.8797 36.5,20C 39.095,20.2256 41.595,20.7256 44,21.5C 44.7096,20.0267 45.8762,19.3601 47.5,19.5C 47.0882,21.9726 48.0882,23.3059 50.5,23.5C 49.8548,29.9576 47.1881,35.4576 42.5,40C 40.8659,40.4935 39.1992,40.6602 37.5,40.5C 36.5,39.1667 35.5,37.8333 34.5,36.5C 34.5,35.1667 34.5,33.8333 34.5,32.5C 32.4086,32.3184 30.4086,32.6518 28.5,33.5C 26.9564,35.942 24.9564,37.942 22.5,39.5C 20.3432,38.1523 19.0099,36.1523 18.5,33.5C 15.8953,35.2358 15.8953,37.0692 18.5,39C 16.4128,38.9529 14.7461,37.9529 13.5,36C 12.9839,33.3309 12.3173,30.8309 11.5,28.5C 10.0697,27.4625 8.40301,26.7959 6.5,26.5C 6.25027,24.326 5.25027,22.6594 3.5,21.5C 3.53905,18.911 2.53905,16.911 0.5,15.5C 0.166667,15.5 -0.166667,15.5 -0.5,15.5C -0.5,14.1667 -0.5,12.8333 -0.5,11.5 Z"/></g>
<g><path style="opacity:1" fill="#20501e" d="M 20.5,17.5 C 21.609,17.5569 22.609,17.8902 23.5,18.5C 24.6049,19.6005 25.9382,20.2671 27.5,20.5C 28.7777,20.2178 29.7777,19.5511 30.5,18.5C 30.5,19.5 30.5,20.5 30.5,21.5C 26.2246,22.2503 22.8913,20.917 20.5,17.5 Z"/></g>
<g><path style="opacity:1" fill="#457d44" d="M 34.5,13.5 C 33.8645,15.7946 32.5311,17.4613 30.5,18.5C 30.5,17.8333 30.5,17.1667 30.5,16.5C 31.1667,15.8333 31.8333,15.1667 32.5,14.5C 33.1667,14.1667 33.8333,13.8333 34.5,13.5 Z"/></g>
<g><path style="opacity:1" fill="#163319" d="M 30.5,14.5 C 30.5,15.1667 30.5,15.8333 30.5,16.5C 30.5,17.1667 30.5,17.8333 30.5,18.5C 29.7777,19.5511 28.7777,20.2178 27.5,20.5C 27.1924,18.076 27.5258,15.7427 28.5,13.5C 29.1835,13.8627 29.8501,14.1961 30.5,14.5 Z"/></g>
<g><path style="opacity:0.588" fill="#113316" d="M 23.5,18.5 C 22.609,17.8902 21.609,17.5569 20.5,17.5C 19.8333,17.5 19.5,17.1667 19.5,16.5C 20.1667,16.5 20.5,16.1667 20.5,15.5C 22.8795,14.4331 23.8795,15.4331 23.5,18.5 Z"/></g>
<g><path style="opacity:1" fill="#316230" d="M 4.5,26.5 C 5.16667,26.5 5.83333,26.5 6.5,26.5C 8.40301,26.7959 10.0697,27.4625 11.5,28.5C 11.5,31.1667 11.5,33.8333 11.5,36.5C 10.6862,34.369 10.1862,32.0356 10,29.5C 7.94192,28.7709 6.10858,27.7709 4.5,26.5 Z"/></g>
<g><path style="opacity:0.341" fill="#113e10" d="M 50.5,23.5 C 51.2293,30.2569 48.8959,36.0903 43.5,41C 41.2884,41.7891 39.2884,41.6225 37.5,40.5C 39.1992,40.6602 40.8659,40.4935 42.5,40C 47.1881,35.4576 49.8548,29.9576 50.5,23.5 Z"/></g>
<g><path style="opacity:1" fill="#4c9446" d="M 11.5,28.5 C 12.3173,30.8309 12.9839,33.3309 13.5,36C 14.7461,37.9529 16.4128,38.9529 18.5,39C 15.8953,37.0692 15.8953,35.2358 18.5,33.5C 19.0099,36.1523 20.3432,38.1523 22.5,39.5C 24.9564,37.942 26.9564,35.942 28.5,33.5C 30.4086,32.6518 32.4086,32.3184 34.5,32.5C 34.5,33.8333 34.5,35.1667 34.5,36.5C 33.609,35.8902 32.609,35.5569 31.5,35.5C 30.791,34.596 29.791,34.2627 28.5,34.5C 28.3713,36.2161 28.038,37.8828 27.5,39.5C 26.5,39.8333 25.8333,40.5 25.5,41.5C 24.1667,41.8333 22.8333,42.1667 21.5,42.5C 18.5491,42.7128 15.8825,42.0461 13.5,40.5C 13.3404,38.847 12.6737,37.5137 11.5,36.5C 11.5,33.8333 11.5,31.1667 11.5,28.5 Z"/></g>
<g><path style="opacity:0.914" fill="#28562a" d="M 31.5,35.5 C 32.609,35.5569 33.609,35.8902 34.5,36.5C 35.5,37.8333 36.5,39.1667 37.5,40.5C 34.9108,39.5806 32.9108,37.914 31.5,35.5 Z"/></g>
<g><path style="opacity:0.341" fill="#1c481a" d="M 31.5,35.5 C 30.0001,36.6252 28.6668,37.9586 27.5,39.5C 28.038,37.8828 28.3713,36.2161 28.5,34.5C 29.791,34.2627 30.791,34.596 31.5,35.5 Z"/></g>
<g><path style="opacity:0.447" fill="#214d24" d="M 11.5,36.5 C 12.6737,37.5137 13.3404,38.847 13.5,40.5C 11.8958,39.713 11.2291,38.3797 11.5,36.5 Z"/></g>
<g><path style="opacity:0.063" fill="#0c3712" d="M 27.5,39.5 C 27.5,40.8333 26.8333,41.5 25.5,41.5C 25.8333,40.5 26.5,39.8333 27.5,39.5 Z"/></g>
<g><path style="opacity:0.98" fill="#386b39" d="M 13.5,40.5 C 15.8825,42.0461 18.5491,42.7128 21.5,42.5C 21.5,42.8333 21.5,43.1667 21.5,43.5C 19.5,43.5 17.5,43.5 15.5,43.5C 14.8333,42.5 14.1667,41.5 13.5,40.5 Z"/></g>
<g><path style="opacity:0.255" fill="#133d15" d="M 25.5,41.5 C 25.1667,42.1667 24.8333,42.8333 24.5,43.5C 23.5,43.5 22.5,43.5 21.5,43.5C 21.5,43.1667 21.5,42.8333 21.5,42.5C 22.8333,42.1667 24.1667,41.8333 25.5,41.5 Z"/></g>
</svg>
