<?xml version="1.0" encoding="UTF-8"?>
<!DOCTYPE svg PUBLIC "-//W3C//DTD SVG 1.1//EN" "http://www.w3.org/Graphics/SVG/1.1/DTD/svg11.dtd">
<svg xmlns="http://www.w3.org/2000/svg" version="1.1" width="52px" height="41px" style="shape-rendering:geometricPrecision; text-rendering:geometricPrecision; image-rendering:optimizeQuality; fill-rule:evenodd; clip-rule:evenodd" xmlns:xlink="http://www.w3.org/1999/xlink">
<g><path style="opacity:1" fill="#034626" d="M 8.5,0.5 C 9.16667,0.5 9.83333,0.5 10.5,0.5C 10.5,2.5 10.5,4.5 10.5,6.5C 9.56552,5.43236 9.23219,4.09903 9.5,2.5C 7.0521,1.52693 4.38544,1.1936 1.5,1.5C 1.5,5.5 1.5,9.5 1.5,13.5C 0.515112,9.36559 0.181778,5.03225 0.5,0.5C 3.16667,0.5 5.83333,0.5 8.5,0.5 Z"/></g>
<g><path style="opacity:0.176" fill="#002410" d="M -0.5,-0.5 C 2.5,-0.5 5.5,-0.5 8.5,-0.5C 8.5,-0.166667 8.5,0.166667 8.5,0.5C 5.83333,0.5 3.16667,0.5 0.5,0.5C 0.181778,5.03225 0.515112,9.36559 1.5,13.5C 1.51715,15.5648 1.85048,17.5648 2.5,19.5C 1.06521,18.0867 0.0652098,16.42 -0.5,14.5C -0.5,9.5 -0.5,4.5 -0.5,-0.5 Z"/></g>
<g><path style="opacity:1" fill="#01733c" d="M 9.5,2.5 C 9.23219,4.09903 9.56552,5.43236 10.5,6.5C 11.5,7.83333 12.5,9.16667 13.5,10.5C 14.964,11.1599 16.6307,11.4932 18.5,11.5C 23.7442,10.1984 29.0775,9.53171 34.5,9.5C 37.6462,10.3095 39.3129,12.3095 39.5,15.5C 39.7845,17.4147 39.4511,19.0813 38.5,20.5C 37.1667,20.5 36.5,21.1667 36.5,22.5C 36.5,22.8333 36.5,23.1667 36.5,23.5C 35.8529,24.2739 35.5195,25.2739 35.5,26.5C 35.3402,28.3545 36.0069,29.6879 37.5,30.5C 38.404,31.209 38.7373,32.209 38.5,33.5C 38.1667,34.1667 37.8333,34.8333 37.5,35.5C 35.9891,34.4975 34.3224,33.8308 32.5,33.5C 32.5,32.5 32.5,31.5 32.5,30.5C 31.7148,27.1945 30.2148,24.1945 28,21.5C 26.7083,20.2089 25.5417,20.2089 24.5,21.5C 24.1667,21.5 23.8333,21.5 23.5,21.5C 20.1262,21.6744 16.7928,22.1744 13.5,23C 12.283,24.6477 11.4497,26.481 11,28.5C 10.3946,26.5188 9.39459,26.1854 8,27.5C 7.2512,23.4803 5.7512,19.8136 3.5,16.5C 2.50671,11.8804 2.17338,7.21369 2.5,2.5C 4.83333,2.5 7.16667,2.5 9.5,2.5 Z"/></g>
<g><path style="opacity:0.2" fill="#003315" d="M 10.5,0.5 C 10.6442,4.31254 12.3108,7.31254 15.5,9.5C 17.1667,9.5 18.8333,9.5 20.5,9.5C 18.3926,10.4682 16.0593,10.8016 13.5,10.5C 12.5,9.16667 11.5,7.83333 10.5,6.5C 10.5,4.5 10.5,2.5 10.5,0.5 Z"/></g>
<g><path style="opacity:1" fill="#0d6a3e" d="M 34.5,9.5 C 29.0775,9.53171 23.7442,10.1984 18.5,11.5C 16.6307,11.4932 14.964,11.1599 13.5,10.5C 16.0593,10.8016 18.3926,10.4682 20.5,9.5C 25.3279,8.50132 29.9946,8.50132 34.5,9.5 Z"/></g>
<g><path style="opacity:0.871" fill="#002c12" d="M 46.5,25.5 C 46.5,27.8333 46.5,30.1667 46.5,32.5C 44.8762,32.6399 43.7096,31.9733 43,30.5C 42.0341,25.3212 40.8675,20.3212 39.5,15.5C 39.3129,12.3095 37.6462,10.3095 34.5,9.5C 29.9946,8.50132 25.3279,8.50132 20.5,9.5C 18.8333,9.5 17.1667,9.5 15.5,9.5C 22.7018,7.27087 30.0352,7.1042 37.5,9C 39.0488,10.214 40.2155,11.714 41,13.5C 41.8057,19.3624 43.1391,25.0291 45,30.5C 45.1981,28.6183 45.6981,26.9516 46.5,25.5 Z"/></g>
<g><path style="opacity:1" fill="#0b673a" d="M 9.5,2.5 C 7.16667,2.5 4.83333,2.5 2.5,2.5C 2.17338,7.21369 2.50671,11.8804 3.5,16.5C 5.7512,19.8136 7.2512,23.4803 8,27.5C 9.39459,26.1854 10.3946,26.5188 11,28.5C 11.4497,26.481 12.283,24.6477 13.5,23C 16.7928,22.1744 20.1262,21.6744 23.5,21.5C 22.5,22.1667 21.5,22.8333 20.5,23.5C 18.2075,23.2436 16.0408,23.5769 14,24.5C 13.433,27.1677 12.933,29.8344 12.5,32.5C 11.5386,34.2646 11.2053,36.2646 11.5,38.5C 8.96644,38.7409 7.29977,37.7409 6.5,35.5C 6.66501,32.1501 6.49834,28.8168 6,25.5C 5.57619,22.9746 4.40953,20.9746 2.5,19.5C 1.85048,17.5648 1.51715,15.5648 1.5,13.5C 1.5,9.5 1.5,5.5 1.5,1.5C 4.38544,1.1936 7.0521,1.52693 9.5,2.5 Z"/></g>
<g><path style="opacity:0.855" fill="#01371a" d="M 23.5,21.5 C 23.8333,21.5 24.1667,21.5 24.5,21.5C 25.4959,21.4142 26.3292,21.7476 27,22.5C 28.3229,25.3088 29.8229,27.9755 31.5,30.5C 31.8432,32.4832 31.1765,33.8166 29.5,34.5C 30.4985,32.5495 30.3318,30.5495 29,28.5C 27.5736,26.2342 25.7402,24.5676 23.5,23.5C 22.5,23.5 21.5,23.5 20.5,23.5C 21.5,22.8333 22.5,22.1667 23.5,21.5 Z"/></g>
<g><path style="opacity:0.922" fill="#00481a" d="M 38.5,20.5 C 38.5,21.1667 38.5,21.8333 38.5,22.5C 37.8333,22.5 37.1667,22.5 36.5,22.5C 36.5,21.1667 37.1667,20.5 38.5,20.5 Z"/></g>
<g><path style="opacity:0.162" fill="#002910" d="M 20.5,23.5 C 21.5,23.5 22.5,23.5 23.5,23.5C 20.7273,24.6572 17.7273,25.3239 14.5,25.5C 14.3104,30.3696 13.6437,35.0363 12.5,39.5C 12.5,37.1667 12.5,34.8333 12.5,32.5C 12.933,29.8344 13.433,27.1677 14,24.5C 16.0408,23.5769 18.2075,23.2436 20.5,23.5 Z"/></g>
<g><path style="opacity:1" fill="#096a3b" d="M 24.5,21.5 C 25.5417,20.2089 26.7083,20.2089 28,21.5C 30.2148,24.1945 31.7148,27.1945 32.5,30.5C 32.1667,30.5 31.8333,30.5 31.5,30.5C 29.8229,27.9755 28.3229,25.3088 27,22.5C 26.3292,21.7476 25.4959,21.4142 24.5,21.5 Z"/></g>
<g><path style="opacity:0.798" fill="#003714" d="M 36.5,22.5 C 37.1667,22.5 37.8333,22.5 38.5,22.5C 39.3778,25.7611 40.0445,29.0945 40.5,32.5C 39.8333,32.8333 39.1667,33.1667 38.5,33.5C 38.7373,32.209 38.404,31.209 37.5,30.5C 36.7814,28.2362 36.448,25.9029 36.5,23.5C 36.5,23.1667 36.5,22.8333 36.5,22.5 Z"/></g>
<g><path style="opacity:1" fill="#056234" d="M 36.5,23.5 C 36.448,25.9029 36.7814,28.2362 37.5,30.5C 36.0069,29.6879 35.3402,28.3545 35.5,26.5C 35.5195,25.2739 35.8529,24.2739 36.5,23.5 Z"/></g>
<g><path style="opacity:1" fill="#084629" d="M 49.5,25.5 C 49.5,26.1667 49.5,26.8333 49.5,27.5C 48.8826,27.3893 48.3826,27.056 48,26.5C 47.8091,28.7078 47.3091,30.7078 46.5,32.5C 46.5,30.1667 46.5,27.8333 46.5,25.5C 47.5,24.1667 48.5,24.1667 49.5,25.5 Z"/></g>
<g><path style="opacity:0.827" fill="#013118" d="M 2.5,19.5 C 4.40953,20.9746 5.57619,22.9746 6,25.5C 6.49834,28.8168 6.66501,32.1501 6.5,35.5C 5.52216,35.811 4.85549,36.4777 4.5,37.5C 6.93288,39.0538 9.59954,39.7204 12.5,39.5C 12.5,39.8333 12.5,40.1667 12.5,40.5C 10.5,40.5 8.5,40.5 6.5,40.5C 4.68047,39.9373 3.34714,38.7706 2.5,37C 3.78271,35.8643 4.78271,34.531 5.5,33C 4.82186,28.4098 3.82186,23.9098 2.5,19.5 Z"/></g>
<g><path style="opacity:1" fill="#0d653c" d="M 39.5,15.5 C 40.8675,20.3212 42.0341,25.3212 43,30.5C 43.7096,31.9733 44.8762,32.6399 46.5,32.5C 47.3091,30.7078 47.8091,28.7078 48,26.5C 48.3826,27.056 48.8826,27.3893 49.5,27.5C 51.4324,33.7601 49.099,36.2601 42.5,35C 41.9341,34.0053 41.2674,33.172 40.5,32.5C 40.0445,29.0945 39.3778,25.7611 38.5,22.5C 38.5,21.8333 38.5,21.1667 38.5,20.5C 39.4511,19.0813 39.7845,17.4147 39.5,15.5 Z"/></g>
<g><path style="opacity:1" fill="#0f5e38" d="M 31.5,30.5 C 31.8333,30.5 32.1667,30.5 32.5,30.5C 32.5,31.5 32.5,32.5 32.5,33.5C 34.3224,33.8308 35.9891,34.4975 37.5,35.5C 37.0107,38.324 35.344,39.6574 32.5,39.5C 33.3657,37.856 33.8657,36.1893 34,34.5C 32.3948,37.2735 30.2281,37.9402 27.5,36.5C 28.2427,35.8182 28.9094,35.1515 29.5,34.5C 31.1765,33.8166 31.8432,32.4832 31.5,30.5 Z"/></g>
<g><path style="opacity:0.133" fill="#002912" d="M 49.5,25.5 C 50.1667,25.8333 50.8333,26.1667 51.5,26.5C 51.5,29.1667 51.5,31.8333 51.5,34.5C 47.6639,38.4452 43.8306,38.4452 40,34.5C 39.074,36.6917 37.9073,38.6917 36.5,40.5C 34.5,40.5 32.5,40.5 30.5,40.5C 30.5,39.8333 30.5,39.1667 30.5,38.5C 31.1667,38.8333 31.8333,39.1667 32.5,39.5C 35.344,39.6574 37.0107,38.324 37.5,35.5C 37.8333,34.8333 38.1667,34.1667 38.5,33.5C 39.1667,33.1667 39.8333,32.8333 40.5,32.5C 41.2674,33.172 41.9341,34.0053 42.5,35C 49.099,36.2601 51.4324,33.7601 49.5,27.5C 49.5,26.8333 49.5,26.1667 49.5,25.5 Z"/></g>
<g><path style="opacity:0.733" fill="#02351a" d="M 29.5,34.5 C 28.9094,35.1515 28.2427,35.8182 27.5,36.5C 30.2281,37.9402 32.3948,37.2735 34,34.5C 33.8657,36.1893 33.3657,37.856 32.5,39.5C 31.8333,39.1667 31.1667,38.8333 30.5,38.5C 28.8333,38.5 27.1667,38.5 25.5,38.5C 25.1667,35.5 26.5,34.1667 29.5,34.5 Z"/></g>
<g><path style="opacity:1" fill="#094e2c" d="M 12.5,32.5 C 12.5,34.8333 12.5,37.1667 12.5,39.5C 9.59954,39.7204 6.93288,39.0538 4.5,37.5C 4.85549,36.4777 5.52216,35.811 6.5,35.5C 7.29977,37.7409 8.96644,38.7409 11.5,38.5C 11.2053,36.2646 11.5386,34.2646 12.5,32.5 Z"/></g>
</svg>
