<?xml version="1.0" encoding="UTF-8"?>
<!DOCTYPE svg PUBLIC "-//W3C//DTD SVG 1.1//EN" "http://www.w3.org/Graphics/SVG/1.1/DTD/svg11.dtd">
<svg xmlns="http://www.w3.org/2000/svg" version="1.1" width="72px" height="72px" style="shape-rendering:geometricPrecision; text-rendering:geometricPrecision; image-rendering:optimizeQuality; fill-rule:evenodd; clip-rule:evenodd" xmlns:xlink="http://www.w3.org/1999/xlink">
<g><path style="opacity:0.725" fill="#25532e" d="M 18.5,-0.5 C 19.8333,-0.5 21.1667,-0.5 22.5,-0.5C 22.5,-0.166667 22.5,0.166667 22.5,0.5C 20.8212,0.285191 19.8212,0.951857 19.5,2.5C 18.596,1.79105 18.2627,0.791047 18.5,-0.5 Z"/></g>
<g><path style="opacity:1" fill="#458146" d="M 22.5,0.5 C 23.1667,0.5 23.5,0.833333 23.5,1.5C 23.5,1.83333 23.5,2.16667 23.5,2.5C 20.5426,0.974896 19.8759,1.64156 21.5,4.5C 20.8333,4.16667 20.1667,3.83333 19.5,3.5C 19.5,3.16667 19.5,2.83333 19.5,2.5C 19.8212,0.951857 20.8212,0.285191 22.5,0.5 Z"/></g>
<g><path style="opacity:1" fill="#4b9346" d="M 23.5,2.5 C 24.287,4.10422 25.6203,4.77089 27.5,4.5C 28.3382,4.84171 28.6716,5.50838 28.5,6.5C 28.5,7.16667 28.5,7.83333 28.5,8.5C 27.0382,6.7451 25.2049,5.41177 23,4.5C 23.1349,6.42471 23.3016,8.42471 23.5,10.5C 21.9261,8.89837 21.2594,6.89837 21.5,4.5C 19.8759,1.64156 20.5426,0.974896 23.5,2.5 Z"/></g>
<g><path style="opacity:0.914" fill="#1d5320" d="M 23.5,1.5 C 24.8717,2.51163 26.205,3.51163 27.5,4.5C 25.6203,4.77089 24.287,4.10422 23.5,2.5C 23.5,2.16667 23.5,1.83333 23.5,1.5 Z"/></g>
<g><path style="opacity:0.98" fill="#2d612c" d="M 64.5,13.5 C 63.6588,12.0736 62.6588,10.7403 61.5,9.5C 61.7778,7.65358 61.1112,6.32025 59.5,5.5C 58.1653,7.20125 56.832,8.86791 55.5,10.5C 55.3276,6.02064 57.3276,4.18731 61.5,5C 62.9329,7.69533 63.9329,10.5287 64.5,13.5 Z"/></g>
<g><path style="opacity:0.969" fill="#2e6b2e" d="M 28.5,6.5 C 30.0418,7.30071 31.7085,7.63404 33.5,7.5C 33.4141,11.7766 35.4141,14.4432 39.5,15.5C 33.977,16.4628 31.477,14.1295 32,8.5C 30.8545,9.6843 29.6879,9.6843 28.5,8.5C 28.5,7.83333 28.5,7.16667 28.5,6.5 Z"/></g>
<g><path style="opacity:1" fill="#4f9d41" d="M 28.5,8.5 C 29.6879,9.6843 30.8545,9.6843 32,8.5C 31.477,14.1295 33.977,16.4628 39.5,15.5C 40.326,17.2644 41.6593,18.5977 43.5,19.5C 43.427,21.0269 44.0937,22.0269 45.5,22.5C 45.6682,25.0514 46.6682,25.7181 48.5,24.5C 50.2737,23.6304 51.607,22.297 52.5,20.5C 55.0139,16.3167 57.3473,11.9834 59.5,7.5C 60.2975,7.95689 60.6309,8.62356 60.5,9.5C 58.81,13.1873 59.31,13.854 62,11.5C 62.6667,13.1667 62.6667,14.8333 62,16.5C 61.6667,16.1667 61.3333,15.8333 61,15.5C 59.9542,17.0905 58.7875,18.5905 57.5,20C 60.0745,21.737 62.0745,23.9036 63.5,26.5C 63.4249,29.2062 63.0916,31.8728 62.5,34.5C 61.7377,36.2624 60.4044,37.2624 58.5,37.5C 56.5,37.5 55.5,38.5 55.5,40.5C 54.8333,40.5 54.1667,40.5 53.5,40.5C 51.6122,42.9878 50.9455,45.9878 51.5,49.5C 50.5,49.5 49.5,49.5 48.5,49.5C 47.8333,49.5 47.1667,49.5 46.5,49.5C 45.8333,48.5 45.1667,47.5 44.5,46.5C 40.4522,44.3912 36.1188,42.7245 31.5,41.5C 29.3155,39.4152 26.6489,38.4152 23.5,38.5C 23.5,38.1667 23.5,37.8333 23.5,37.5C 23.8417,36.6618 24.5084,36.3284 25.5,36.5C 35.5132,38.5646 38.1798,35.0646 33.5,26C 33.8333,25 34.1667,24 34.5,23C 30.0493,20.2067 26.3826,16.7067 23.5,12.5C 23.5,11.8333 23.5,11.1667 23.5,10.5C 23.3016,8.42471 23.1349,6.42471 23,4.5C 25.2049,5.41177 27.0382,6.7451 28.5,8.5 Z"/></g>
<g><path style="opacity:0.671" fill="#27582e" d="M 19.5,3.5 C 20.1667,3.83333 20.8333,4.16667 21.5,4.5C 21.2594,6.89837 21.9261,8.89837 23.5,10.5C 23.5,11.1667 23.5,11.8333 23.5,12.5C 24.7729,14.7128 25.7729,17.0462 26.5,19.5C 22.6355,14.9305 20.3022,9.59716 19.5,3.5 Z"/></g>
<g><path style="opacity:0.941" fill="#236027" d="M 39.5,15.5 C 41.7727,15.9568 43.106,17.2901 43.5,19.5C 41.6593,18.5977 40.326,17.2644 39.5,15.5 Z"/></g>
<g><path style="opacity:1" fill="#4d8a44" d="M 61.5,9.5 C 61.1667,9.5 60.8333,9.5 60.5,9.5C 60.6309,8.62356 60.2975,7.95689 59.5,7.5C 57.3473,11.9834 55.0139,16.3167 52.5,20.5C 52.5,19.1667 52.5,17.8333 52.5,16.5C 52.9925,14.1815 53.9925,12.1815 55.5,10.5C 56.832,8.86791 58.1653,7.20125 59.5,5.5C 61.1112,6.32025 61.7778,7.65358 61.5,9.5 Z"/></g>
<g><path style="opacity:1" fill="#4e9747" d="M 23.5,12.5 C 26.3826,16.7067 30.0493,20.2067 34.5,23C 34.1667,24 33.8333,25 33.5,26C 38.1798,35.0646 35.5132,38.5646 25.5,36.5C 28.1589,36.0826 30.4922,35.0826 32.5,33.5C 32.5,32.8333 32.5,32.1667 32.5,31.5C 32.9465,28.9899 32.2798,26.9899 30.5,25.5C 30.4456,23.368 29.4456,22.0347 27.5,21.5C 26.6618,21.1583 26.3284,20.4916 26.5,19.5C 25.7729,17.0462 24.7729,14.7128 23.5,12.5 Z"/></g>
<g><path style="opacity:1" fill="#428737" d="M 60.5,9.5 C 60.8333,9.5 61.1667,9.5 61.5,9.5C 62.6588,10.7403 63.6588,12.0736 64.5,13.5C 65.8333,14.8333 65.8333,16.1667 64.5,17.5C 62.2157,18.6774 61.8823,20.3441 63.5,22.5C 63.5,23.8333 63.5,25.1667 63.5,26.5C 62.0745,23.9036 60.0745,21.737 57.5,20C 58.7875,18.5905 59.9542,17.0905 61,15.5C 61.3333,15.8333 61.6667,16.1667 62,16.5C 62.6667,14.8333 62.6667,13.1667 62,11.5C 59.31,13.854 58.81,13.1873 60.5,9.5 Z"/></g>
<g><path style="opacity:0.725" fill="#1a5320" d="M 43.5,19.5 C 44.9063,19.9731 45.573,20.9731 45.5,22.5C 44.0937,22.0269 43.427,21.0269 43.5,19.5 Z"/></g>
<g><path style="opacity:1" fill="#235823" d="M 64.5,17.5 C 64.5,17.8333 64.5,18.1667 64.5,18.5C 66.3535,20.6914 66.6868,23.0248 65.5,25.5C 65.5,25.8333 65.5,26.1667 65.5,26.5C 64.8333,25.1667 64.1667,23.8333 63.5,22.5C 61.8823,20.3441 62.2157,18.6774 64.5,17.5 Z"/></g>
<g><path style="opacity:0.914" fill="#2a5c2d" d="M 27.5,21.5 C 29.4456,22.0347 30.4456,23.368 30.5,25.5C 29.0256,24.5637 28.0256,23.2303 27.5,21.5 Z"/></g>
<g><path style="opacity:1" fill="#3b723a" d="M 52.5,16.5 C 52.5,17.8333 52.5,19.1667 52.5,20.5C 51.607,22.297 50.2737,23.6304 48.5,24.5C 49.3257,21.5152 50.659,18.8485 52.5,16.5 Z"/></g>
<g><path style="opacity:0.671" fill="#1c5719" d="M 45.5,22.5 C 46.5,23.1667 47.5,23.8333 48.5,24.5C 46.6682,25.7181 45.6682,25.0514 45.5,22.5 Z"/></g>
<g><path style="opacity:0.318" fill="#04280e" d="M 64.5,18.5 C 66.3886,19.4009 67.7219,20.9009 68.5,23C 68.2517,24.7491 67.2517,25.5824 65.5,25.5C 66.6868,23.0248 66.3535,20.6914 64.5,18.5 Z"/></g>
<g><path style="opacity:1" fill="#457e3f" d="M 16.5,28.5 C 14.2181,27.6103 11.8848,27.4436 9.5,28C 11.3197,28.2004 12.653,29.0337 13.5,30.5C 12.8333,30.5 12.1667,30.5 11.5,30.5C 10.791,29.596 9.79105,29.2627 8.5,29.5C 7.16667,28.5 7.16667,27.5 8.5,26.5C 11.7278,24.9736 14.3945,25.6403 16.5,28.5 Z"/></g>
<g><path style="opacity:1" fill="#589b4e" d="M 16.5,28.5 C 16.4142,29.4959 16.7476,30.3292 17.5,31C 16.9056,31.4643 16.2389,31.631 15.5,31.5C 14.5084,31.6716 13.8417,31.3382 13.5,30.5C 12.653,29.0337 11.3197,28.2004 9.5,28C 11.8848,27.4436 14.2181,27.6103 16.5,28.5 Z"/></g>
<g><path style="opacity:0.725" fill="#214f24" d="M 30.5,25.5 C 32.2798,26.9899 32.9465,28.9899 32.5,31.5C 31.5418,29.6976 30.8751,27.6976 30.5,25.5 Z"/></g>
<g><path style="opacity:1" fill="#387633" d="M 63.5,22.5 C 64.1667,23.8333 64.8333,25.1667 65.5,26.5C 66.1413,29.5605 65.1413,32.2272 62.5,34.5C 63.0916,31.8728 63.4249,29.2062 63.5,26.5C 63.5,25.1667 63.5,23.8333 63.5,22.5 Z"/></g>
<g><path style="opacity:1" fill="#305a33" d="M 8.5,26.5 C 7.16667,27.5 7.16667,28.5 8.5,29.5C 5.8127,29.6641 3.14603,29.4974 0.5,29C 1.05596,28.6174 1.38929,28.1174 1.5,27.5C 3.60737,26.5318 5.9407,26.1984 8.5,26.5 Z"/></g>
<g><path style="opacity:0.42" fill="#052c0d" d="M -0.5,27.5 C 0.166667,27.5 0.833333,27.5 1.5,27.5C 1.38929,28.1174 1.05596,28.6174 0.5,29C 3.14603,29.4974 5.8127,29.6641 8.5,29.5C 9.79105,29.2627 10.791,29.596 11.5,30.5C 7.5,30.5 3.5,30.5 -0.5,30.5C -0.5,29.5 -0.5,28.5 -0.5,27.5 Z"/></g>
<g><path style="opacity:0.953" fill="#2b572b" d="M 17.5,34.5 C 19.0269,34.427 20.0269,35.0937 20.5,36.5C 18.9731,36.573 17.9731,35.9063 17.5,34.5 Z"/></g>
<g><path style="opacity:1" fill="#417c3c" d="M 16.5,28.5 C 18.3386,29.5077 19.6719,31.0077 20.5,33C 24.381,34.2644 28.381,34.4311 32.5,33.5C 30.4922,35.0826 28.1589,36.0826 25.5,36.5C 24.5084,36.3284 23.8417,36.6618 23.5,37.5C 22.609,36.8902 21.609,36.5569 20.5,36.5C 20.0269,35.0937 19.0269,34.427 17.5,34.5C 16.8333,33.5 16.1667,32.5 15.5,31.5C 16.2389,31.631 16.9056,31.4643 17.5,31C 16.7476,30.3292 16.4142,29.4959 16.5,28.5 Z"/></g>
<g><path style="opacity:0.914" fill="#2d642f" d="M 20.5,36.5 C 21.609,36.5569 22.609,36.8902 23.5,37.5C 23.5,37.8333 23.5,38.1667 23.5,38.5C 21.9731,38.573 20.9731,37.9063 20.5,36.5 Z"/></g>
<g><path style="opacity:1" fill="#326930" d="M 23.5,38.5 C 26.6489,38.4152 29.3155,39.4152 31.5,41.5C 31.5,41.8333 31.5,42.1667 31.5,42.5C 28.5152,41.6743 25.8485,40.341 23.5,38.5 Z"/></g>
<g><path style="opacity:1" fill="#1e531e" d="M 58.5,37.5 C 57.8592,38.4822 57.1925,39.4822 56.5,40.5C 57.6016,41.1757 58.6016,41.8423 59.5,42.5C 59.5,42.8333 59.5,43.1667 59.5,43.5C 58.8333,43.5 58.1667,43.5 57.5,43.5C 56.4489,42.7777 55.7822,41.7777 55.5,40.5C 55.5,38.5 56.5,37.5 58.5,37.5 Z"/></g>
<g><path style="opacity:0.98" fill="#275c29" d="M 31.5,42.5 C 33.4044,42.7376 34.7377,43.7376 35.5,45.5C 33.5956,45.2624 32.2623,44.2624 31.5,42.5 Z"/></g>
<g><path style="opacity:1" fill="#367332" d="M 53.5,40.5 C 54.1667,40.5 54.8333,40.5 55.5,40.5C 55.7822,41.7777 56.4489,42.7777 57.5,43.5C 56.1667,43.5 54.8333,43.5 53.5,43.5C 53.5,42.5 53.5,41.5 53.5,40.5 Z"/></g>
<g><path style="opacity:1" fill="#4a903f" d="M 53.5,40.5 C 53.5,41.5 53.5,42.5 53.5,43.5C 54.8333,43.5 56.1667,43.5 57.5,43.5C 56.9002,44.8999 55.9002,45.8999 54.5,46.5C 52.0673,46.7856 52.0673,47.4523 54.5,48.5C 54.5,48.8333 54.5,49.1667 54.5,49.5C 53.3646,51.2132 51.698,51.8799 49.5,51.5C 49.1667,50.8333 48.8333,50.1667 48.5,49.5C 49.5,49.5 50.5,49.5 51.5,49.5C 50.9455,45.9878 51.6122,42.9878 53.5,40.5 Z"/></g>
<g><path style="opacity:1" fill="#498b43" d="M 31.5,42.5 C 31.5,42.1667 31.5,41.8333 31.5,41.5C 36.1188,42.7245 40.4522,44.3912 44.5,46.5C 43.1667,46.5 41.8333,46.5 40.5,46.5C 38.5853,46.7845 36.9187,46.4511 35.5,45.5C 34.7377,43.7376 33.4044,42.7376 31.5,42.5 Z"/></g>
<g><path style="opacity:1" fill="#356f31" d="M 57.5,43.5 C 58.1667,43.5 58.8333,43.5 59.5,43.5C 59.5,44.5 59.5,45.5 59.5,46.5C 57.8333,46.5 56.1667,46.5 54.5,46.5C 55.9002,45.8999 56.9002,44.8999 57.5,43.5 Z"/></g>
<g><path style="opacity:1" fill="#2b602a" d="M 40.5,46.5 C 41.8333,46.5 43.1667,46.5 44.5,46.5C 45.1667,47.5 45.8333,48.5 46.5,49.5C 44.4561,48.4918 42.4561,47.4918 40.5,46.5 Z"/></g>
<g><path style="opacity:1" fill="#1f4f20" d="M 59.5,43.5 C 60.4345,44.5676 60.7678,45.901 60.5,47.5C 58.2646,47.2053 56.2646,47.5386 54.5,48.5C 52.0673,47.4523 52.0673,46.7856 54.5,46.5C 56.1667,46.5 57.8333,46.5 59.5,46.5C 59.5,45.5 59.5,44.5 59.5,43.5 Z"/></g>
<g><path style="opacity:0.353" fill="#082f13" d="M 59.5,43.5 C 59.5,43.1667 59.5,42.8333 59.5,42.5C 61.3079,43.9179 61.9746,45.9179 61.5,48.5C 59.2646,48.2053 57.2646,48.5386 55.5,49.5C 55.1667,49.5 54.8333,49.5 54.5,49.5C 54.5,49.1667 54.5,48.8333 54.5,48.5C 56.2646,47.5386 58.2646,47.2053 60.5,47.5C 60.7678,45.901 60.4345,44.5676 59.5,43.5 Z"/></g>
<g><path style="opacity:0.8" fill="#265926" d="M 46.5,49.5 C 47.1667,49.5 47.8333,49.5 48.5,49.5C 48.8333,50.1667 49.1667,50.8333 49.5,51.5C 47.9731,51.573 46.9731,50.9063 46.5,49.5 Z"/></g>
<g><path style="opacity:0.369" fill="#082e14" d="M 55.5,50.5 C 55.5,50.1667 55.5,49.8333 55.5,49.5C 58.6082,49.3746 60.6082,50.7079 61.5,53.5C 59.7837,51.9752 57.7837,50.9752 55.5,50.5 Z"/></g>
<g><path style="opacity:1" fill="#356b32" d="M 54.5,49.5 C 54.8333,49.5 55.1667,49.5 55.5,49.5C 55.5,49.8333 55.5,50.1667 55.5,50.5C 55.5,50.8333 55.5,51.1667 55.5,51.5C 54.8333,51.5 54.5,51.8333 54.5,52.5C 53.5,52.5 52.5,52.5 51.5,52.5C 50.5084,52.6716 49.8417,52.3382 49.5,51.5C 51.698,51.8799 53.3646,51.2132 54.5,49.5 Z"/></g>
<g><path style="opacity:0.522" fill="#05300b" d="M 54.5,52.5 C 54.5,51.8333 54.8333,51.5 55.5,51.5C 57.9575,51.9261 59.1242,53.2594 59,55.5C 57.3853,54.6138 55.8853,53.6138 54.5,52.5 Z"/></g>
<g><path style="opacity:0.21" fill="#03250b" d="M 51.5,53.5 C 54.6433,53.969 56.9767,55.6356 58.5,58.5C 55.883,57.2141 53.5496,55.5475 51.5,53.5 Z"/></g>
<g><path style="opacity:1" fill="#25512b" d="M 55.5,51.5 C 55.5,51.1667 55.5,50.8333 55.5,50.5C 57.7837,50.9752 59.7837,51.9752 61.5,53.5C 61.3284,54.4916 61.6618,55.1583 62.5,55.5C 62.427,57.0269 63.0937,58.0269 64.5,58.5C 65.3382,58.8417 65.6716,59.5084 65.5,60.5C 65.5,61.1667 65.5,61.8333 65.5,62.5C 64.596,63.209 64.2627,64.209 64.5,65.5C 64.1667,65.5 63.8333,65.5 63.5,65.5C 61.9045,63.1682 60.7378,60.5015 60,57.5C 59.6174,58.056 59.1174,58.3893 58.5,58.5C 56.9767,55.6356 54.6433,53.969 51.5,53.5C 51.5,53.1667 51.5,52.8333 51.5,52.5C 52.5,52.5 53.5,52.5 54.5,52.5C 55.8853,53.6138 57.3853,54.6138 59,55.5C 59.1242,53.2594 57.9575,51.9261 55.5,51.5 Z"/></g>
<g><path style="opacity:0.208" fill="#05260c" d="M 62.5,55.5 C 63.9063,55.9731 64.573,56.9731 64.5,58.5C 63.0937,58.0269 62.427,57.0269 62.5,55.5 Z"/></g>
<g><path style="opacity:1" fill="#3f733b" d="M 65.5,62.5 C 69.2322,64.1713 70.5655,66.8379 69.5,70.5C 67.5986,68.9937 65.9319,67.3271 64.5,65.5C 64.2627,64.209 64.596,63.209 65.5,62.5 Z"/></g>
<g><path style="opacity:0.447" fill="#0c3213" d="M 65.5,60.5 C 67.5,62.1667 69.5,63.8333 71.5,65.5C 71.5,67.5 71.5,69.5 71.5,71.5C 70.1667,71.5 68.8333,71.5 67.5,71.5C 66.1667,69.5 64.8333,67.5 63.5,65.5C 63.8333,65.5 64.1667,65.5 64.5,65.5C 65.9319,67.3271 67.5986,68.9937 69.5,70.5C 70.5655,66.8379 69.2322,64.1713 65.5,62.5C 65.5,61.8333 65.5,61.1667 65.5,60.5 Z"/></g>
</svg>
