<?xml version="1.0" encoding="UTF-8"?>
<!DOCTYPE svg PUBLIC "-//W3C//DTD SVG 1.1//EN" "http://www.w3.org/Graphics/SVG/1.1/DTD/svg11.dtd">
<svg xmlns="http://www.w3.org/2000/svg" version="1.1" width="92px" height="41px" style="shape-rendering:geometricPrecision; text-rendering:geometricPrecision; image-rendering:optimizeQuality; fill-rule:evenodd; clip-rule:evenodd" xmlns:xlink="http://www.w3.org/1999/xlink">
<g><path style="opacity:1" fill="#094227" d="M 12.5,2.5 C 10.1432,2.33669 7.80982,2.50335 5.5,3C 6.05596,3.38258 6.38929,3.88258 6.5,4.5C 5.16667,4.16667 3.83333,3.83333 2.5,3.5C 3.69363,2.22275 5.3603,1.55608 7.5,1.5C 9.36931,1.50681 11.036,1.84014 12.5,2.5 Z"/></g>
<g><path style="opacity:0.71" fill="#012612" d="M -0.5,-0.5 C 1.83333,-0.5 4.16667,-0.5 6.5,-0.5C 13.5894,0.784596 20.5894,2.45126 27.5,4.5C 26.1667,4.5 24.8333,4.5 23.5,4.5C 22.1667,4.5 20.8333,4.5 19.5,4.5C 17.2854,3.7321 14.9521,3.06543 12.5,2.5C 11.036,1.84014 9.36931,1.50681 7.5,1.5C 5.3603,1.55608 3.69363,2.22275 2.5,3.5C 1.5,3.5 0.5,3.5 -0.5,3.5C -0.5,2.16667 -0.5,0.833333 -0.5,-0.5 Z"/></g>
<g><path style="opacity:1" fill="#0a6238" d="M 12.5,2.5 C 14.9521,3.06543 17.2854,3.7321 19.5,4.5C 16.2869,4.19 13.2869,4.52333 10.5,5.5C 9.16667,5.16667 7.83333,4.83333 6.5,4.5C 6.38929,3.88258 6.05596,3.38258 5.5,3C 7.80982,2.50335 10.1432,2.33669 12.5,2.5 Z"/></g>
<g><path style="opacity:0.463" fill="#022410" d="M 2.5,3.5 C 3.83333,3.83333 5.16667,4.16667 6.5,4.5C 7.83333,4.83333 9.16667,5.16667 10.5,5.5C 11.2905,6.40128 12.2905,7.06795 13.5,7.5C 13.8333,8.16667 14.1667,8.83333 14.5,9.5C 9.99513,8.4469 5.99513,6.4469 2.5,3.5 Z"/></g>
<g><path style="opacity:0.867" fill="#002c12" d="M 23.5,4.5 C 24.8333,4.5 26.1667,4.5 27.5,4.5C 29.674,4.74973 31.3406,5.74973 32.5,7.5C 31.8333,7.5 31.1667,7.5 30.5,7.5C 29.391,7.44312 28.391,7.10978 27.5,6.5C 26.1667,5.83333 24.8333,5.16667 23.5,4.5 Z"/></g>
<g><path style="opacity:1" fill="#023f20" d="M 13.5,7.5 C 15.9674,7.75488 17.9674,8.75488 19.5,10.5C 17.8828,9.962 16.2161,9.62867 14.5,9.5C 14.1667,8.83333 13.8333,8.16667 13.5,7.5 Z"/></g>
<g><path style="opacity:1" fill="#056e3d" d="M 19.5,4.5 C 20.8333,4.5 22.1667,4.5 23.5,4.5C 24.8333,5.16667 26.1667,5.83333 27.5,6.5C 28.391,7.10978 29.391,7.44312 30.5,7.5C 31.287,9.10422 32.6203,9.77089 34.5,9.5C 34.9731,10.9063 35.9731,11.573 37.5,11.5C 37.8333,12.1667 38.1667,12.8333 38.5,13.5C 36.5648,12.8505 34.5648,12.5172 32.5,12.5C 32.5,13.5 32.5,14.5 32.5,15.5C 31.8333,15.5 31.1667,15.5 30.5,15.5C 30.0269,14.0937 29.0269,13.427 27.5,13.5C 25.0221,12.1168 22.3554,11.1168 19.5,10.5C 17.9674,8.75488 15.9674,7.75488 13.5,7.5C 12.2905,7.06795 11.2905,6.40128 10.5,5.5C 13.2869,4.52333 16.2869,4.19 19.5,4.5 Z"/></g>
<g><path style="opacity:1" fill="#00763f" d="M 27.5,6.5 C 27.4142,7.4959 27.7476,8.32924 28.5,9C 24.1815,9.96199 20.1815,9.29533 16.5,7C 17.4296,6.0093 18.5962,5.5093 20,5.5C 22.4621,6.15946 24.9621,6.4928 27.5,6.5 Z"/></g>
<g><path style="opacity:0.6" fill="#003f1b" d="M 30.5,7.5 C 31.1667,7.5 31.8333,7.5 32.5,7.5C 33.1667,8.16667 33.8333,8.83333 34.5,9.5C 32.6203,9.77089 31.287,9.10422 30.5,7.5 Z"/></g>
<g><path style="opacity:0.322" fill="#003919" d="M 34.5,9.5 C 36.0269,9.42702 37.0269,10.0937 37.5,11.5C 35.9731,11.573 34.9731,10.9063 34.5,9.5 Z"/></g>
<g><path style="opacity:0.278" fill="#003617" d="M 37.5,11.5 C 39.8185,11.9925 41.8185,12.9925 43.5,14.5C 41.7839,14.3713 40.1172,14.038 38.5,13.5C 38.1667,12.8333 37.8333,12.1667 37.5,11.5 Z"/></g>
<g><path style="opacity:0.384" fill="#022410" d="M 14.5,9.5 C 16.2161,9.62867 17.8828,9.962 19.5,10.5C 22.3554,11.1168 25.0221,12.1168 27.5,13.5C 27.9731,14.9063 28.9731,15.573 30.5,15.5C 32.5093,17.0652 34.8427,18.0652 37.5,18.5C 37.8417,19.3382 38.5084,19.6716 39.5,19.5C 39.375,24.0549 41.375,27.3882 45.5,29.5C 47.6074,30.4682 49.9407,30.8016 52.5,30.5C 44.0168,32.7452 38.6835,29.4119 36.5,20.5C 29.0748,16.7874 21.7415,13.1207 14.5,9.5 Z"/></g>
<g><path style="opacity:1" fill="#034525" d="M 27.5,13.5 C 29.0269,13.427 30.0269,14.0937 30.5,15.5C 28.9731,15.573 27.9731,14.9063 27.5,13.5 Z"/></g>
<g><path style="opacity:0.639" fill="#003e1e" d="M 43.5,14.5 C 49.3723,16.5943 55.3723,18.4277 61.5,20C 65.3464,21.0859 68.6797,22.9193 71.5,25.5C 68.5939,24.2134 65.5939,23.2134 62.5,22.5C 59.8539,20.7475 56.8539,19.7475 53.5,19.5C 50.1013,17.8007 46.768,16.134 43.5,14.5 Z"/></g>
<g><path style="opacity:1" fill="#02733c" d="M 38.5,13.5 C 40.1172,14.038 41.7839,14.3713 43.5,14.5C 46.768,16.134 50.1013,17.8007 53.5,19.5C 56.0076,21.554 59.0076,22.554 62.5,22.5C 65.9389,24.3936 69.2722,26.5603 72.5,29C 71.0383,30.6279 69.3717,30.7946 67.5,29.5C 64.4484,27.8217 61.1151,27.155 57.5,27.5C 57.1667,27.5 56.8333,27.5 56.5,27.5C 54.8212,25.8253 52.8212,24.992 50.5,25C 51.5,26 52.5,27 53.5,28C 52.9056,28.4643 52.2389,28.631 51.5,28.5C 49.4727,28.6621 47.4727,28.4955 45.5,28C 43.403,25.1325 41.403,22.2992 39.5,19.5C 38.5084,19.6716 37.8417,19.3382 37.5,18.5C 36.3406,16.7497 34.674,15.7497 32.5,15.5C 32.5,14.5 32.5,13.5 32.5,12.5C 34.5648,12.5172 36.5648,12.8505 38.5,13.5 Z"/></g>
<g><path style="opacity:1" fill="#095a33" d="M 30.5,15.5 C 31.1667,15.5 31.8333,15.5 32.5,15.5C 34.674,15.7497 36.3406,16.7497 37.5,18.5C 34.8427,18.0652 32.5093,17.0652 30.5,15.5 Z"/></g>
<g><path style="opacity:1" fill="#076b3c" d="M 53.5,19.5 C 56.8539,19.7475 59.8539,20.7475 62.5,22.5C 59.0076,22.554 56.0076,21.554 53.5,19.5 Z"/></g>
<g><path style="opacity:0.122" fill="#003516" d="M 71.5,25.5 C 73.0269,25.427 74.0269,26.0937 74.5,27.5C 72.9731,27.573 71.9731,26.9063 71.5,25.5 Z"/></g>
<g><path style="opacity:1" fill="#014b23" d="M 56.5,27.5 C 54.8784,28.1224 53.5451,29.1224 52.5,30.5C 49.9407,30.8016 47.6074,30.4682 45.5,29.5C 47.7354,29.7947 49.7354,29.4614 51.5,28.5C 52.2389,28.631 52.9056,28.4643 53.5,28C 52.5,27 51.5,26 50.5,25C 52.8212,24.992 54.8212,25.8253 56.5,27.5 Z"/></g>
<g><path style="opacity:1" fill="#0d683b" d="M 39.5,19.5 C 41.403,22.2992 43.403,25.1325 45.5,28C 47.4727,28.4955 49.4727,28.6621 51.5,28.5C 49.7354,29.4614 47.7354,29.7947 45.5,29.5C 41.375,27.3882 39.375,24.0549 39.5,19.5 Z"/></g>
<g><path style="opacity:1" fill="#0c6038" d="M 57.5,27.5 C 61.1151,27.155 64.4484,27.8217 67.5,29.5C 67.8333,30.1667 68.1667,30.8333 68.5,31.5C 64.6483,30.3953 60.9816,29.062 57.5,27.5 Z"/></g>
<g><path style="opacity:1" fill="#07703f" d="M 62.5,22.5 C 65.5939,23.2134 68.5939,24.2134 71.5,25.5C 71.9731,26.9063 72.9731,27.573 74.5,27.5C 76.0905,29.6326 78.0905,31.2993 80.5,32.5C 80.1788,34.0481 79.1788,34.7148 77.5,34.5C 76.609,33.8902 75.609,33.5569 74.5,33.5C 72.8984,31.9261 70.8984,31.2594 68.5,31.5C 68.1667,30.8333 67.8333,30.1667 67.5,29.5C 69.3717,30.7946 71.0383,30.6279 72.5,29C 69.2722,26.5603 65.9389,24.3936 62.5,22.5 Z"/></g>
<g><path style="opacity:0.501" fill="#002f14" d="M 74.5,27.5 C 76.9976,28.9123 79.6642,30.0789 82.5,31C 83.3805,31.7083 84.0472,32.5416 84.5,33.5C 84.8333,34.1667 85.1667,34.8333 85.5,35.5C 83.5887,34.925 81.922,33.925 80.5,32.5C 78.0905,31.2993 76.0905,29.6326 74.5,27.5 Z"/></g>
<g><path style="opacity:0.345" fill="#01220d" d="M 56.5,27.5 C 56.8333,27.5 57.1667,27.5 57.5,27.5C 60.9816,29.062 64.6483,30.3953 68.5,31.5C 70.1016,33.0739 72.1016,33.7406 74.5,33.5C 74.9731,34.9063 75.9731,35.573 77.5,35.5C 78.1667,36.1667 78.8333,36.8333 79.5,37.5C 72.0752,34.7082 64.5752,32.0416 57,29.5C 55.5603,30.1476 54.0603,30.4809 52.5,30.5C 53.5451,29.1224 54.8784,28.1224 56.5,27.5 Z"/></g>
<g><path style="opacity:1" fill="#04522b" d="M 68.5,31.5 C 70.8984,31.2594 72.8984,31.9261 74.5,33.5C 72.1016,33.7406 70.1016,33.0739 68.5,31.5 Z"/></g>
<g><path style="opacity:1" fill="#024627" d="M 74.5,33.5 C 75.609,33.5569 76.609,33.8902 77.5,34.5C 77.5,34.8333 77.5,35.1667 77.5,35.5C 75.9731,35.573 74.9731,34.9063 74.5,33.5 Z"/></g>
<g><path style="opacity:1" fill="#0d663d" d="M 80.5,32.5 C 81.922,33.925 83.5887,34.925 85.5,35.5C 86.6602,37.2027 85.9935,37.8693 83.5,37.5C 81.8984,35.9261 79.8984,35.2594 77.5,35.5C 77.5,35.1667 77.5,34.8333 77.5,34.5C 79.1788,34.7148 80.1788,34.0481 80.5,32.5 Z"/></g>
<g><path style="opacity:1" fill="#024424" d="M 77.5,35.5 C 79.8984,35.2594 81.8984,35.9261 83.5,37.5C 82.1667,37.5 80.8333,37.5 79.5,37.5C 78.8333,36.8333 78.1667,36.1667 77.5,35.5 Z"/></g>
<g><path style="opacity:1" fill="#063e24" d="M 85.5,35.5 C 87.2128,36.305 88.8794,37.305 90.5,38.5C 88.0193,39.2979 85.686,38.9645 83.5,37.5C 85.9935,37.8693 86.6602,37.2027 85.5,35.5 Z"/></g>
<g><path style="opacity:0.694" fill="#012311" d="M 84.5,33.5 C 86.9798,34.242 89.3131,35.242 91.5,36.5C 91.5,37.8333 91.5,39.1667 91.5,40.5C 89.5,40.5 87.5,40.5 85.5,40.5C 83.5,39.5 81.5,38.5 79.5,37.5C 80.8333,37.5 82.1667,37.5 83.5,37.5C 85.686,38.9645 88.0193,39.2979 90.5,38.5C 88.8794,37.305 87.2128,36.305 85.5,35.5C 85.1667,34.8333 84.8333,34.1667 84.5,33.5 Z"/></g>
</svg>
