<?xml version="1.0" encoding="UTF-8"?>
<!DOCTYPE svg PUBLIC "-//W3C//DTD SVG 1.1//EN" "http://www.w3.org/Graphics/SVG/1.1/DTD/svg11.dtd">
<svg xmlns="http://www.w3.org/2000/svg" version="1.1" width="53px" height="37px" style="shape-rendering:geometricPrecision; text-rendering:geometricPrecision; image-rendering:optimizeQuality; fill-rule:evenodd; clip-rule:evenodd" xmlns:xlink="http://www.w3.org/1999/xlink">
<g><path style="opacity:0.784" fill="#01351a" d="M 42.5,-0.5 C 44.5,-0.5 46.5,-0.5 48.5,-0.5C 50.2331,2.38268 51.5665,5.38268 52.5,8.5C 52.5,9.5 52.5,10.5 52.5,11.5C 51.7638,13.2294 50.4305,14.2294 48.5,14.5C 48.8333,13.8333 49.1667,13.1667 49.5,12.5C 51.0488,-0.618736 47.0488,-2.61874 37.5,6.5C 38.7536,3.90657 40.4202,1.57324 42.5,-0.5 Z"/></g>
<g><path style="opacity:1" fill="#026636" d="M 49.5,12.5 C 49.6621,10.4727 49.4955,8.4727 49,6.5C 48.51,7.79323 48.3433,9.12656 48.5,10.5C 42.3434,9.50341 36.0101,9.50341 29.5,10.5C 29.5,8.5 29.5,6.5 29.5,4.5C 30.4345,5.56764 30.7678,6.90097 30.5,8.5C 32.5273,8.66212 34.5273,8.49546 36.5,8C 37.056,7.61742 37.3893,7.11742 37.5,6.5C 47.0488,-2.61874 51.0488,-0.618736 49.5,12.5 Z"/></g>
<g><path style="opacity:1" fill="#065631" d="M 23.5,3.5 C 25.7354,3.20528 27.7354,3.53862 29.5,4.5C 23.594,6.48889 17.594,8.15555 11.5,9.5C 12.1667,8.5 12.8333,7.5 13.5,6.5C 16.6418,5.20971 19.9752,4.20971 23.5,3.5 Z"/></g>
<g><path style="opacity:0.871" fill="#074125" d="M 13.5,6.5 C 12.8333,7.5 12.1667,8.5 11.5,9.5C 10.5,10.1667 9.5,10.8333 8.5,11.5C 9.16667,8.83333 10.8333,7.16667 13.5,6.5 Z"/></g>
<g><path style="opacity:1" fill="#016937" d="M 29.5,4.5 C 29.5,6.5 29.5,8.5 29.5,10.5C 36.0101,9.50341 42.3434,9.50341 48.5,10.5C 48.3433,9.12656 48.51,7.79323 49,6.5C 49.4955,8.4727 49.6621,10.4727 49.5,12.5C 49.1667,13.1667 48.8333,13.8333 48.5,14.5C 43.4801,13.873 38.8134,14.7063 34.5,17C 33.9781,17.5613 33.6448,18.228 33.5,19C 36.4034,22.3918 36.0701,25.2251 32.5,27.5C 28.5,27.5 24.5,27.5 20.5,27.5C 20.1667,29.5 19.8333,31.5 19.5,33.5C 14.5,33.5 9.5,33.5 4.5,33.5C 3.50838,33.6716 2.84171,33.3382 2.5,32.5C 0.666808,30.5043 0.166808,28.171 1,25.5C 3.32318,21.0233 5.82318,16.6899 8.5,12.5C 8.5,12.1667 8.5,11.8333 8.5,11.5C 9.5,10.8333 10.5,10.1667 11.5,9.5C 17.594,8.15555 23.594,6.48889 29.5,4.5 Z"/></g>
<g><path style="opacity:0.827" fill="#003318" d="M 23.5,3.5 C 25.6282,2.37086 27.9615,2.20419 30.5,3C 31.3802,4.35613 31.7135,5.85613 31.5,7.5C 33.5648,7.48285 35.5648,7.14952 37.5,6.5C 37.3893,7.11742 37.056,7.61742 36.5,8C 34.5273,8.49546 32.5273,8.66212 30.5,8.5C 30.7678,6.90097 30.4345,5.56764 29.5,4.5C 27.7354,3.53862 25.7354,3.20528 23.5,3.5 Z"/></g>
<g><path style="opacity:0.914" fill="#074327" d="M 8.5,12.5 C 5.82318,16.6899 3.32318,21.0233 1,25.5C 0.166808,28.171 0.666808,30.5043 2.5,32.5C 1.39105,32.4431 0.391047,32.1098 -0.5,31.5C -0.5,28.8333 -0.5,26.1667 -0.5,23.5C 2.1218,19.5428 5.1218,15.8761 8.5,12.5 Z"/></g>
<g><path style="opacity:1" fill="#003518" d="M 48.5,14.5 C 44.5042,15.0696 40.5042,16.0696 36.5,17.5C 37.1599,20.1569 37.1599,22.9902 36.5,26C 35.6443,27.5947 34.3109,28.428 32.5,28.5C 32.5,28.1667 32.5,27.8333 32.5,27.5C 36.0701,25.2251 36.4034,22.3918 33.5,19C 33.6448,18.228 33.9781,17.5613 34.5,17C 38.8134,14.7063 43.4801,13.873 48.5,14.5 Z"/></g>
<g><path style="opacity:1" fill="#064f2c" d="M 32.5,27.5 C 32.5,27.8333 32.5,28.1667 32.5,28.5C 29.3586,29.3213 26.0252,29.8213 22.5,30C 21.5939,31.6995 21.2606,33.5328 21.5,35.5C 18.8728,34.9084 16.2062,34.5751 13.5,34.5C 10.2869,34.81 7.2869,34.4767 4.5,33.5C 9.5,33.5 14.5,33.5 19.5,33.5C 19.8333,31.5 20.1667,29.5 20.5,27.5C 24.5,27.5 28.5,27.5 32.5,27.5 Z"/></g>
<g><path style="opacity:0.608" fill="#02391e" d="M 13.5,34.5 C 16.2062,34.5751 18.8728,34.9084 21.5,35.5C 21.5,35.8333 21.5,36.1667 21.5,36.5C 19.8333,36.5 18.1667,36.5 16.5,36.5C 15.5,35.8333 14.5,35.1667 13.5,34.5 Z"/></g>
</svg>
