<?xml version="1.0" encoding="UTF-8"?>
<!DOCTYPE svg PUBLIC "-//W3C//DTD SVG 1.1//EN" "http://www.w3.org/Graphics/SVG/1.1/DTD/svg11.dtd">
<svg xmlns="http://www.w3.org/2000/svg" version="1.1" width="24px" height="29px" style="shape-rendering:geometricPrecision; text-rendering:geometricPrecision; image-rendering:optimizeQuality; fill-rule:evenodd; clip-rule:evenodd" xmlns:xlink="http://www.w3.org/1999/xlink">
<g><path style="opacity:0.914" fill="#034a27" d="M 16.5,0.5 C 16.5,0.166667 16.5,-0.166667 16.5,-0.5C 18.1667,-0.5 19.8333,-0.5 21.5,-0.5C 21.6287,1.2161 21.962,2.88277 22.5,4.5C 20.8958,3.71304 20.2291,2.3797 20.5,0.5C 19.1667,0.5 17.8333,0.5 16.5,0.5 Z"/></g>
<g><path style="opacity:1" fill="#026a39" d="M 16.5,0.5 C 17.8333,0.5 19.1667,0.5 20.5,0.5C 20.2291,2.3797 20.8958,3.71304 22.5,4.5C 22.8333,4.5 23.1667,4.5 23.5,4.5C 23.5,6.83333 23.5,9.16667 23.5,11.5C 23.1667,11.5 22.8333,11.5 22.5,11.5C 20.9121,13.1133 19.9121,15.1133 19.5,17.5C 16.4816,17.3354 13.4816,17.502 10.5,18C 9.94404,18.3826 9.61071,18.8826 9.5,19.5C 8.83333,19.8333 8.16667,20.1667 7.5,20.5C 5.99066,21.8595 5.32399,21.3595 5.5,19C 5.88366,16.4792 6.88366,14.3125 8.5,12.5C 14.1054,10.6601 16.772,6.66011 16.5,0.5 Z"/></g>
<g><path style="opacity:0.949" fill="#064c2b" d="M 16.5,0.5 C 16.772,6.66011 14.1054,10.6601 8.5,12.5C 7.60895,13.1098 6.60895,13.4431 5.5,13.5C 7.67611,11.4848 10.1761,9.8181 13,8.5C 13.8751,5.59892 15.0418,2.93226 16.5,0.5 Z"/></g>
<g><path style="opacity:0.553" fill="#024220" d="M 22.5,11.5 C 23.0922,14.6305 22.0922,16.9639 19.5,18.5C 19.5,18.1667 19.5,17.8333 19.5,17.5C 19.9121,15.1133 20.9121,13.1133 22.5,11.5 Z"/></g>
<g><path style="opacity:0.369" fill="#054225" d="M 5.5,13.5 C 5.20414,15.403 4.53747,17.0697 3.5,18.5C 3.12012,16.302 3.78679,14.6354 5.5,13.5 Z"/></g>
<g><path style="opacity:1" fill="#0a6137" d="M 19.5,17.5 C 19.5,17.8333 19.5,18.1667 19.5,18.5C 18.5,18.8333 17.8333,19.5 17.5,20.5C 16.8333,20.5 16.1667,20.5 15.5,20.5C 15.38,19.4138 14.7133,18.7472 13.5,18.5C 12.5836,18.5427 11.9169,18.8761 11.5,19.5C 11.1667,19.5 10.8333,19.5 10.5,19.5C 10.1667,19.5 9.83333,19.5 9.5,19.5C 9.61071,18.8826 9.94404,18.3826 10.5,18C 13.4816,17.502 16.4816,17.3354 19.5,17.5 Z"/></g>
<g><path style="opacity:0.316" fill="#003919" d="M 11.5,19.5 C 11.9169,18.8761 12.5836,18.5427 13.5,18.5C 14.7133,18.7472 15.38,19.4138 15.5,20.5C 14.2921,19.7659 12.9587,19.4326 11.5,19.5 Z"/></g>
<g><path style="opacity:1" fill="#0b663d" d="M 8.5,12.5 C 6.88366,14.3125 5.88366,16.4792 5.5,19C 5.32399,21.3595 5.99066,21.8595 7.5,20.5C 7.17876,22.0481 6.17876,22.7148 4.5,22.5C 3.76589,21.2921 3.43255,19.9587 3.5,18.5C 4.53747,17.0697 5.20414,15.403 5.5,13.5C 6.60895,13.4431 7.60895,13.1098 8.5,12.5 Z"/></g>
<g><path style="opacity:0.051" fill="#003619" d="M 19.5,18.5 C 19.5,19.8333 18.8333,20.5 17.5,20.5C 17.8333,19.5 18.5,18.8333 19.5,18.5 Z"/></g>
<g><path style="opacity:1" fill="#073e24" d="M 3.5,18.5 C 3.43255,19.9587 3.76589,21.2921 4.5,22.5C 2.83333,22.5 1.16667,22.5 -0.5,22.5C -0.5,22.1667 -0.5,21.8333 -0.5,21.5C 1.14054,20.853 2.47387,19.853 3.5,18.5 Z"/></g>
<g><path style="opacity:1" fill="#064e2a" d="M 9.5,19.5 C 9.83333,19.5 10.1667,19.5 10.5,19.5C 10.3893,20.1174 10.056,20.6174 9.5,21C 10.8584,21.9344 12.1917,22.7677 13.5,23.5C 11.5168,23.1568 10.1834,23.8235 9.5,25.5C 7.56594,24.8897 5.89928,23.8897 4.5,22.5C 6.17876,22.7148 7.17876,22.0481 7.5,20.5C 8.16667,20.1667 8.83333,19.8333 9.5,19.5 Z"/></g>
<g><path style="opacity:1" fill="#0a603a" d="M 13.5,23.5 C 14.2341,24.7079 14.5674,26.0413 14.5,27.5C 14.5,27.8333 14.5,28.1667 14.5,28.5C 13.8333,28.5 13.1667,28.5 12.5,28.5C 12.5,28.1667 12.5,27.8333 12.5,27.5C 12.0269,26.0937 11.0269,25.427 9.5,25.5C 10.1834,23.8235 11.5168,23.1568 13.5,23.5 Z"/></g>
<g><path style="opacity:0.894" fill="#06492a" d="M 9.5,25.5 C 11.0269,25.427 12.0269,26.0937 12.5,27.5C 10.9731,27.573 9.97306,26.9063 9.5,25.5 Z"/></g>
<g><path style="opacity:0.788" fill="#044124" d="M 13.5,23.5 C 16.8845,24.244 17.2178,25.5774 14.5,27.5C 14.5674,26.0413 14.2341,24.7079 13.5,23.5 Z"/></g>
</svg>
