<?xml version="1.0" encoding="UTF-8"?>
<!DOCTYPE svg PUBLIC "-//W3C//DTD SVG 1.1//EN" "http://www.w3.org/Graphics/SVG/1.1/DTD/svg11.dtd">
<svg xmlns="http://www.w3.org/2000/svg" version="1.1" width="36px" height="31px" style="shape-rendering:geometricPrecision; text-rendering:geometricPrecision; image-rendering:optimizeQuality; fill-rule:evenodd; clip-rule:evenodd" xmlns:xlink="http://www.w3.org/1999/xlink">
<g><path style="opacity:1" fill="#064929" d="M 17.5,-0.5 C 18.8333,-0.5 20.1667,-0.5 21.5,-0.5C 21.5,-0.166667 21.5,0.166667 21.5,0.5C 22.9538,2.26332 22.6204,3.59665 20.5,4.5C 20.5,3.5 20.5,2.5 20.5,1.5C 19.5,1.5 18.5,1.5 17.5,1.5C 17.5,1.16667 17.5,0.833333 17.5,0.5C 17.5,0.166667 17.5,-0.166667 17.5,-0.5 Z"/></g>
<g><path style="opacity:0.953" fill="#043e23" d="M 9.5,2.5 C 7.83333,4.83333 5.83333,6.83333 3.5,8.5C 4.5,5.5 6.5,3.5 9.5,2.5 Z"/></g>
<g><path style="opacity:0.38" fill="#013718" d="M 17.5,0.5 C 17.5,0.833333 17.5,1.16667 17.5,1.5C 15.0459,4.32983 13.3792,7.66317 12.5,11.5C 11.9315,8.58835 11.9315,5.58835 12.5,2.5C 11.5,2.5 10.5,2.5 9.5,2.5C 10.5676,1.56552 11.901,1.23219 13.5,1.5C 13.6932,5.44904 14.1932,5.44904 15,1.5C 15.6708,0.747561 16.5041,0.414228 17.5,0.5 Z"/></g>
<g><path style="opacity:1" fill="#036536" d="M 17.5,1.5 C 18.5,1.5 19.5,1.5 20.5,1.5C 20.5,2.5 20.5,3.5 20.5,4.5C 18.3,6.52319 17.6333,8.85652 18.5,11.5C 19.1818,10.7573 19.8485,10.0906 20.5,9.5C 23.0443,6.69346 24.0443,7.36012 23.5,11.5C 26.6448,11.507 29.3115,10.507 31.5,8.5C 32.1667,8.83333 32.8333,9.16667 33.5,9.5C 33.6126,12.0488 32.9459,14.3821 31.5,16.5C 28.1667,17.1667 24.8333,17.8333 21.5,18.5C 21.6236,19.1067 21.9569,19.44 22.5,19.5C 22.5,19.8333 22.5,20.1667 22.5,20.5C 21.791,21.404 20.791,21.7373 19.5,21.5C 18.6236,21.3691 17.9569,21.7025 17.5,22.5C 19.4039,23.7659 20.7372,25.4325 21.5,27.5C 20.609,28.1098 19.609,28.4431 18.5,28.5C 16.4727,28.6621 14.4727,28.4955 12.5,28C 10.9221,26.9055 9.25542,26.0722 7.5,25.5C 7.58577,24.5041 7.25244,23.6708 6.5,23C 8.91499,21.5347 9.91499,19.368 9.5,16.5C 8.16667,16.5 6.83333,16.5 5.5,16.5C 3.89578,15.713 3.22911,14.3797 3.5,12.5C 3.5,11.1667 3.5,9.83333 3.5,8.5C 5.83333,6.83333 7.83333,4.83333 9.5,2.5C 10.5,2.5 11.5,2.5 12.5,2.5C 11.9315,5.58835 11.9315,8.58835 12.5,11.5C 13.3792,7.66317 15.0459,4.32983 17.5,1.5 Z"/></g>
<g><path style="opacity:1" fill="#0a5f36" d="M 31.5,8.5 C 29.3115,10.507 26.6448,11.507 23.5,11.5C 24.0443,7.36012 23.0443,6.69346 20.5,9.5C 21.2847,4.16681 23.9514,2.66681 28.5,5C 27.3333,6.16667 26.1667,7.33333 25,8.5C 24.3123,9.33172 24.479,9.99839 25.5,10.5C 26.646,9.85506 27.646,9.02173 28.5,8C 29.7494,7.25988 30.7494,7.42654 31.5,8.5 Z"/></g>
<g><path style="opacity:0.192" fill="#003315" d="M 21.5,0.5 C 23.6359,1.71885 25.9693,2.55219 28.5,3C 29.3366,4.01127 29.67,5.17793 29.5,6.5C 31.9726,6.08824 33.3059,7.08824 33.5,9.5C 32.8333,9.16667 32.1667,8.83333 31.5,8.5C 30.7494,7.42654 29.7494,7.25988 28.5,8C 27.646,9.02173 26.646,9.85506 25.5,10.5C 24.479,9.99839 24.3123,9.33172 25,8.5C 26.1667,7.33333 27.3333,6.16667 28.5,5C 23.9514,2.66681 21.2847,4.16681 20.5,9.5C 19.8485,10.0906 19.1818,10.7573 18.5,11.5C 17.6333,8.85652 18.3,6.52319 20.5,4.5C 22.6204,3.59665 22.9538,2.26332 21.5,0.5 Z"/></g>
<g><path style="opacity:0.859" fill="#043920" d="M 3.5,8.5 C 3.5,9.83333 3.5,11.1667 3.5,12.5C 2.66175,12.8417 2.32842,13.5084 2.5,14.5C 1.51552,12.4021 1.84885,10.4021 3.5,8.5 Z"/></g>
<g><path style="opacity:0.906" fill="#0e4b2d" d="M 3.5,12.5 C 3.22911,14.3797 3.89578,15.713 5.5,16.5C 5.5,16.8333 5.5,17.1667 5.5,17.5C 5.16667,17.5 4.83333,17.5 4.5,17.5C 3.09368,17.0269 2.42702,16.0269 2.5,14.5C 2.32842,13.5084 2.66175,12.8417 3.5,12.5 Z"/></g>
<g><path style="opacity:0.808" fill="#013618" d="M 4.5,17.5 C 4.83333,17.5 5.16667,17.5 5.5,17.5C 9.16545,18.2927 9.16545,19.626 5.5,21.5C 5.41423,20.5041 5.74756,19.6708 6.5,19C 5.5842,18.7216 4.91753,18.2216 4.5,17.5 Z"/></g>
<g><path style="opacity:1" fill="#054b29" d="M 33.5,9.5 C 34.1667,9.83333 34.8333,10.1667 35.5,10.5C 35.5,11.8333 35.5,13.1667 35.5,14.5C 34.3994,15.8484 33.3994,17.3484 32.5,19C 30.5273,19.4955 28.5273,19.6621 26.5,19.5C 25.0387,18.3143 23.7054,18.3143 22.5,19.5C 21.9569,19.44 21.6236,19.1067 21.5,18.5C 24.8333,17.8333 28.1667,17.1667 31.5,16.5C 32.9459,14.3821 33.6126,12.0488 33.5,9.5 Z"/></g>
<g><path style="opacity:1" fill="#095b33" d="M 5.5,17.5 C 5.5,17.1667 5.5,16.8333 5.5,16.5C 6.83333,16.5 8.16667,16.5 9.5,16.5C 9.91499,19.368 8.91499,21.5347 6.5,23C 7.25244,23.6708 7.58577,24.5041 7.5,25.5C 6.83333,25.5 6.16667,25.5 5.5,25.5C 5.5,25.1667 5.5,24.8333 5.5,24.5C 5.5,23.5 5.5,22.5 5.5,21.5C 9.16545,19.626 9.16545,18.2927 5.5,17.5 Z"/></g>
<g><path style="opacity:1" fill="#075f36" d="M 22.5,20.5 C 24.3792,21.3414 26.3792,21.6747 28.5,21.5C 28.5,22.5 28.5,23.5 28.5,24.5C 24.8453,25.075 21.8453,24.075 19.5,21.5C 20.791,21.7373 21.791,21.404 22.5,20.5 Z"/></g>
<g><path style="opacity:0.859" fill="#01361a" d="M 26.5,19.5 C 27.209,20.404 28.209,20.7373 29.5,20.5C 29.7678,22.099 29.4345,23.4324 28.5,24.5C 28.5,23.5 28.5,22.5 28.5,21.5C 26.3792,21.6747 24.3792,21.3414 22.5,20.5C 22.5,20.1667 22.5,19.8333 22.5,19.5C 23.7054,18.3143 25.0387,18.3143 26.5,19.5 Z"/></g>
<g><path style="opacity:0.859" fill="#014522" d="M 19.5,21.5 C 21.8453,24.075 24.8453,25.075 28.5,24.5C 27.3406,26.2503 25.674,27.2503 23.5,27.5C 22.8333,27.5 22.1667,27.5 21.5,27.5C 20.7372,25.4325 19.4039,23.7659 17.5,22.5C 17.9569,21.7025 18.6236,21.3691 19.5,21.5 Z"/></g>
<g><path style="opacity:0.573" fill="#043019" d="M 5.5,25.5 C 6.16667,25.5 6.83333,25.5 7.5,25.5C 7.83333,26.1667 8.16667,26.8333 8.5,27.5C 6.97306,27.573 5.97306,26.9063 5.5,25.5 Z"/></g>
<g><path style="opacity:0.961" fill="#0a2b1a" d="M 5.5,21.5 C 5.5,22.5 5.5,23.5 5.5,24.5C 4.31757,27.0092 2.31757,28.3426 -0.5,28.5C -0.5,27.8333 -0.5,27.1667 -0.5,26.5C 1.53982,24.823 3.53982,23.1563 5.5,21.5 Z"/></g>
<g><path style="opacity:1" fill="#044223" d="M 7.5,25.5 C 9.25542,26.0722 10.9221,26.9055 12.5,28C 14.4727,28.4955 16.4727,28.6621 18.5,28.5C 18.5,28.8333 18.5,29.1667 18.5,29.5C 17.8333,29.5 17.5,29.8333 17.5,30.5C 16.1667,30.5 14.8333,30.5 13.5,30.5C 11.7392,29.6873 10.0725,28.6873 8.5,27.5C 8.16667,26.8333 7.83333,26.1667 7.5,25.5 Z"/></g>
<g><path style="opacity:0.286" fill="#002b13" d="M 21.5,27.5 C 22.1667,27.5 22.8333,27.5 23.5,27.5C 22.2196,28.9313 20.5529,29.5979 18.5,29.5C 18.5,29.1667 18.5,28.8333 18.5,28.5C 19.609,28.4431 20.609,28.1098 21.5,27.5 Z"/></g>
</svg>
