<?xml version="1.0" encoding="UTF-8"?>
<!DOCTYPE svg PUBLIC "-//W3C//DTD SVG 1.1//EN" "http://www.w3.org/Graphics/SVG/1.1/DTD/svg11.dtd">
<svg xmlns="http://www.w3.org/2000/svg" version="1.1" width="35px" height="32px" style="shape-rendering:geometricPrecision; text-rendering:geometricPrecision; image-rendering:optimizeQuality; fill-rule:evenodd; clip-rule:evenodd" xmlns:xlink="http://www.w3.org/1999/xlink">
<g><path style="opacity:0.545" fill="#001709" d="M 13.5,-0.5 C 14.8333,-0.5 16.1667,-0.5 17.5,-0.5C 18.5294,1.5168 19.5294,3.5168 20.5,5.5C 18.6614,4.49227 17.3281,2.99227 16.5,1C 15.8333,0.333333 15.1667,0.333333 14.5,1C 13.5562,3.71914 13.2229,6.55247 13.5,9.5C 11.1944,9.00745 8.86105,8.67412 6.5,8.5C 4.73535,7.53862 2.73535,7.20528 0.5,7.5C 4.3421,6.46079 8.3421,6.46079 12.5,7.5C 12.2786,4.72116 12.612,2.05449 13.5,-0.5 Z"/></g>
<g><path style="opacity:1" fill="#07321e" d="M 20.5,5.5 C 20.5,6.83333 20.5,8.16667 20.5,9.5C 19.663,7.14131 18.163,5.14131 16,3.5C 14.9808,5.50175 14.1475,7.50175 13.5,9.5C 13.2229,6.55247 13.5562,3.71914 14.5,1C 15.1667,0.333333 15.8333,0.333333 16.5,1C 17.3281,2.99227 18.6614,4.49227 20.5,5.5 Z"/></g>
<g><path style="opacity:1" fill="#023e22" d="M 20.5,9.5 C 21.9187,10.4511 23.5853,10.7845 25.5,10.5C 25.4249,13.2062 25.0916,15.8728 24.5,18.5C 23.596,19.209 23.2627,20.209 23.5,21.5C 23.7709,23.3797 23.1042,24.713 21.5,25.5C 20.2436,25.9038 19.0769,26.5705 18,27.5C 16.4009,26.9293 15.2342,25.9293 14.5,24.5C 13.209,24.2627 12.209,24.596 11.5,25.5C 11.1667,25.5 10.8333,25.5 10.5,25.5C 8.4595,26.5192 6.4595,26.5192 4.5,25.5C 5.12723,24.5832 5.46056,23.5832 5.5,22.5C 7.35198,21.4802 8.68531,19.9802 9.5,18C 9.16389,16.9701 8.49722,16.4701 7.5,16.5C 6.16667,13.8333 4.83333,11.1667 3.5,8.5C 4.5,8.5 5.5,8.5 6.5,8.5C 8.86105,8.67412 11.1944,9.00745 13.5,9.5C 14.1475,7.50175 14.9808,5.50175 16,3.5C 18.163,5.14131 19.663,7.14131 20.5,9.5 Z"/></g>
<g><path style="opacity:1" fill="#06331f" d="M 0.5,7.5 C 2.73535,7.20528 4.73535,7.53862 6.5,8.5C 5.5,8.5 4.5,8.5 3.5,8.5C 4.83333,11.1667 6.16667,13.8333 7.5,16.5C 3.49617,14.837 1.16284,11.837 0.5,7.5 Z"/></g>
<g><path style="opacity:1" fill="#053620" d="M 20.5,9.5 C 21.5,9.5 22.5,9.5 23.5,9.5C 24.5,9.5 25.5,9.5 26.5,9.5C 26.5,12.1667 26.5,14.8333 26.5,17.5C 26.5,18.1667 26.1667,18.5 25.5,18.5C 25.1667,18.5 24.8333,18.5 24.5,18.5C 25.0916,15.8728 25.4249,13.2062 25.5,10.5C 23.5853,10.7845 21.9187,10.4511 20.5,9.5 Z"/></g>
<g><path style="opacity:1" fill="#012616" d="M 23.5,9.5 C 24.5676,8.56552 25.901,8.23219 27.5,8.5C 27.81,11.7131 27.4767,14.7131 26.5,17.5C 26.5,14.8333 26.5,12.1667 26.5,9.5C 25.5,9.5 24.5,9.5 23.5,9.5 Z"/></g>
<g><path style="opacity:0.635" fill="#001609" d="M -0.5,7.5 C -0.166667,7.5 0.166667,7.5 0.5,7.5C 1.16284,11.837 3.49617,14.837 7.5,16.5C 7.61071,17.1174 7.94404,17.6174 8.5,18C 6.85883,19.129 5.85883,20.629 5.5,22.5C 3.78679,23.6354 3.12012,25.302 3.5,27.5C 5.5,27.5 7.5,27.5 9.5,27.5C 7.10469,28.8143 4.60469,28.8143 2,27.5C 2.04535,23.7474 3.54535,20.5807 6.5,18C 3.64238,16.3059 1.30904,14.1393 -0.5,11.5C -0.5,10.1667 -0.5,8.83333 -0.5,7.5 Z"/></g>
<g><path style="opacity:1" fill="#042f1b" d="M 7.5,16.5 C 8.49722,16.4701 9.16389,16.9701 9.5,18C 8.68531,19.9802 7.35198,21.4802 5.5,22.5C 5.85883,20.629 6.85883,19.129 8.5,18C 7.94404,17.6174 7.61071,17.1174 7.5,16.5 Z"/></g>
<g><path style="opacity:0.91" fill="#01220f" d="M 24.5,18.5 C 24.8333,18.5 25.1667,18.5 25.5,18.5C 25.573,20.0269 24.9063,21.0269 23.5,21.5C 23.2627,20.209 23.596,19.209 24.5,18.5 Z"/></g>
<g><path style="opacity:0.793" fill="#01180c" d="M 20.5,5.5 C 21.2679,6.26253 21.7679,7.26253 22,8.5C 24.0408,7.57692 26.2075,7.24358 28.5,7.5C 28.6653,11.1817 28.4986,14.8484 28,18.5C 27.5,19 27,19.5 26.5,20C 29.0362,22.705 31.7029,25.205 34.5,27.5C 34.5,28.1667 34.5,28.8333 34.5,29.5C 31.2295,27.4088 28.0628,25.0755 25,22.5C 24.4877,26.5122 22.3211,29.1788 18.5,30.5C 19.759,29.0209 20.759,27.3542 21.5,25.5C 23.1042,24.713 23.7709,23.3797 23.5,21.5C 24.9063,21.0269 25.573,20.0269 25.5,18.5C 26.1667,18.5 26.5,18.1667 26.5,17.5C 27.4767,14.7131 27.81,11.7131 27.5,8.5C 25.901,8.23219 24.5676,8.56552 23.5,9.5C 22.5,9.5 21.5,9.5 20.5,9.5C 20.5,8.16667 20.5,6.83333 20.5,5.5 Z"/></g>
<g><path style="opacity:1" fill="#032b19" d="M 5.5,22.5 C 5.46056,23.5832 5.12723,24.5832 4.5,25.5C 6.4595,26.5192 8.4595,26.5192 10.5,25.5C 10.1667,26.1667 9.83333,26.8333 9.5,27.5C 7.5,27.5 5.5,27.5 3.5,27.5C 3.12012,25.302 3.78679,23.6354 5.5,22.5 Z"/></g>
<g><path style="opacity:1" fill="#00210f" d="M 11.5,25.5 C 12.209,24.596 13.209,24.2627 14.5,24.5C 14.5,25.5 14.5,26.5 14.5,27.5C 14.1667,27.5 13.8333,27.5 13.5,27.5C 13.5,26.1667 12.8333,25.5 11.5,25.5 Z"/></g>
<g><path style="opacity:0.5" fill="#001508" d="M 10.5,25.5 C 10.8333,25.5 11.1667,25.5 11.5,25.5C 12.8333,25.5 13.5,26.1667 13.5,27.5C 12.1667,27.5 10.8333,27.5 9.5,27.5C 9.83333,26.8333 10.1667,26.1667 10.5,25.5 Z"/></g>
<g><path style="opacity:1" fill="#07341f" d="M 14.5,24.5 C 15.2342,25.9293 16.4009,26.9293 18,27.5C 19.0769,26.5705 20.2436,25.9038 21.5,25.5C 20.759,27.3542 19.759,29.0209 18.5,30.5C 16.0274,30.9118 14.6941,29.9118 14.5,27.5C 14.5,26.5 14.5,25.5 14.5,24.5 Z"/></g>
<g><path style="opacity:0.455" fill="#001408" d="M 13.5,27.5 C 13.8333,27.5 14.1667,27.5 14.5,27.5C 14.6941,29.9118 16.0274,30.9118 18.5,30.5C 18.5,30.8333 18.5,31.1667 18.5,31.5C 17.1667,31.5 15.8333,31.5 14.5,31.5C 13.7659,30.2921 13.4326,28.9587 13.5,27.5 Z"/></g>
</svg>
