<?xml version="1.0" encoding="UTF-8"?>
<!DOCTYPE svg PUBLIC "-//W3C//DTD SVG 1.1//EN" "http://www.w3.org/Graphics/SVG/1.1/DTD/svg11.dtd">
<svg xmlns="http://www.w3.org/2000/svg" version="1.1" width="79px" height="47px" style="shape-rendering:geometricPrecision; text-rendering:geometricPrecision; image-rendering:optimizeQuality; fill-rule:evenodd; clip-rule:evenodd" xmlns:xlink="http://www.w3.org/1999/xlink">
<g><path style="opacity:0.4" fill="#011d0a" d="M 57.5,-0.5 C 62.5,-0.5 67.5,-0.5 72.5,-0.5C 74.2038,3.31629 75.5371,7.31629 76.5,11.5C 75.8333,10.8333 75.1667,10.1667 74.5,9.5C 74.0733,6.99017 73.4067,4.65683 72.5,2.5C 72.3893,1.88258 72.056,1.38258 71.5,1C 62.8116,-0.561119 54.8116,0.938881 47.5,5.5C 46.391,5.55688 45.391,5.89022 44.5,6.5C 43.8333,6.5 43.1667,6.5 42.5,6.5C 47.3797,3.8933 52.3797,1.55996 57.5,-0.5 Z"/></g>
<g><path style="opacity:1" fill="#0a5833" d="M 72.5,2.5 C 72.5,3.83333 72.5,5.16667 72.5,6.5C 71.5655,5.43236 71.2322,4.09903 71.5,2.5C 63.9103,1.8969 56.5769,2.8969 49.5,5.5C 48.8333,5.5 48.1667,5.5 47.5,5.5C 54.8116,0.938881 62.8116,-0.561119 71.5,1C 72.056,1.38258 72.3893,1.88258 72.5,2.5 Z"/></g>
<g><path style="opacity:1" fill="#006c38" d="M 72.5,6.5 C 72.427,8.02694 73.0937,9.02694 74.5,9.5C 75.1667,10.1667 75.8333,10.8333 76.5,11.5C 76.8333,12.8333 77.1667,14.1667 77.5,15.5C 76.7281,16.6935 75.7281,17.6935 74.5,18.5C 73.0695,18.4208 71.7362,18.7542 70.5,19.5C 68.7926,21.9757 66.7926,23.9757 64.5,25.5C 63.0937,25.9731 62.427,26.9731 62.5,28.5C 61.1667,28.5 59.8333,28.5 58.5,28.5C 58.6641,31.1873 58.4974,33.854 58,36.5C 57.2084,31.1696 54.0418,28.8363 48.5,29.5C 48.5,31.5 48.5,33.5 48.5,35.5C 47.8485,36.0906 47.1818,36.7573 46.5,37.5C 45.52,34.9135 45.1866,32.2469 45.5,29.5C 41.1945,27.0927 36.5278,25.7594 31.5,25.5C 31.5,27.5 31.5,29.5 31.5,31.5C 31.5,32.1667 31.5,32.8333 31.5,33.5C 30.8423,34.3984 30.1757,35.3984 29.5,36.5C 28.6764,33.2152 28.1764,29.8818 28,26.5C 25.8646,24.7215 23.3646,24.0548 20.5,24.5C 20.5,23.5 20.5,22.5 20.5,21.5C 19.5,21.5 18.5,21.5 17.5,21.5C 17.6882,23.1033 17.1882,24.4366 16,25.5C 15.8281,22.1745 15.9947,18.8411 16.5,15.5C 17.8333,13.8333 19.1667,12.1667 20.5,10.5C 20.8333,10.5 21.1667,10.5 21.5,10.5C 22.8333,10.5 24.1667,10.5 25.5,10.5C 31.8399,10.151 38.1732,9.65098 44.5,9C 46.8808,8.77671 48.5475,7.61005 49.5,5.5C 56.5769,2.8969 63.9103,1.8969 71.5,2.5C 71.2322,4.09903 71.5655,5.43236 72.5,6.5 Z"/></g>
<g><path style="opacity:1" fill="#064d2c" d="M 47.5,5.5 C 47.0269,6.90632 46.0269,7.57298 44.5,7.5C 44.5,7.16667 44.5,6.83333 44.5,6.5C 45.391,5.89022 46.391,5.55688 47.5,5.5 Z"/></g>
<g><path style="opacity:1" fill="#0a653b" d="M 47.5,5.5 C 48.1667,5.5 48.8333,5.5 49.5,5.5C 48.5475,7.61005 46.8808,8.77671 44.5,9C 38.1732,9.65098 31.8399,10.151 25.5,10.5C 27.8333,9.83333 30.1667,9.16667 32.5,8.5C 36.4338,7.64032 40.4338,7.30698 44.5,7.5C 46.0269,7.57298 47.0269,6.90632 47.5,5.5 Z"/></g>
<g><path style="opacity:1" fill="#004220" d="M 72.5,2.5 C 73.4067,4.65683 74.0733,6.99017 74.5,9.5C 73.0937,9.02694 72.427,8.02694 72.5,6.5C 72.5,5.16667 72.5,3.83333 72.5,2.5 Z"/></g>
<g><path style="opacity:1" fill="#08542e" d="M 32.5,8.5 C 30.1667,9.16667 27.8333,9.83333 25.5,10.5C 24.1667,10.5 22.8333,10.5 21.5,10.5C 24.8448,8.78303 28.5115,8.11636 32.5,8.5 Z"/></g>
<g><path style="opacity:1" fill="#0a4d2d" d="M 20.5,10.5 C 19.1667,12.1667 17.8333,13.8333 16.5,15.5C 16.1667,15.5 15.8333,15.5 15.5,15.5C 16.1667,12.8333 17.8333,11.1667 20.5,10.5 Z"/></g>
<g><path style="opacity:0.392" fill="#003317" d="M 76.5,11.5 C 77.1667,11.8333 77.8333,12.1667 78.5,12.5C 78.5,13.5 78.5,14.5 78.5,15.5C 78.1667,15.5 77.8333,15.5 77.5,15.5C 77.1667,14.1667 76.8333,12.8333 76.5,11.5 Z"/></g>
<g><path style="opacity:0.349" fill="#00361a" d="M 77.5,15.5 C 77.205,19.1285 75.205,21.1285 71.5,21.5C 72.3065,20.2719 73.3065,19.2719 74.5,18.5C 75.7281,17.6935 76.7281,16.6935 77.5,15.5 Z"/></g>
<g><path style="opacity:1" fill="#03582f" d="M 74.5,18.5 C 73.3065,19.2719 72.3065,20.2719 71.5,21.5C 70.7377,23.2624 69.4044,24.2624 67.5,24.5C 66.391,24.5569 65.391,24.8902 64.5,25.5C 66.7926,23.9757 68.7926,21.9757 70.5,19.5C 71.7362,18.7542 73.0695,18.4208 74.5,18.5 Z"/></g>
<g><path style="opacity:1" fill="#046737" d="M 15.5,15.5 C 15.8333,15.5 16.1667,15.5 16.5,15.5C 15.9947,18.8411 15.8281,22.1745 16,25.5C 17.1882,24.4366 17.6882,23.1033 17.5,21.5C 18.5,21.5 19.5,21.5 20.5,21.5C 20.5,22.5 20.5,23.5 20.5,24.5C 23.3646,24.0548 25.8646,24.7215 28,26.5C 28.1764,29.8818 28.6764,33.2152 29.5,36.5C 30.1757,35.3984 30.8423,34.3984 31.5,33.5C 31.5,35.5 31.5,37.5 31.5,39.5C 30.5,39.5 29.5,39.5 28.5,39.5C 27.8386,36.2129 27.3386,32.8796 27,29.5C 26.4768,27.7774 25.4768,26.444 24,25.5C 22.9701,25.8361 22.4701,26.5028 22.5,27.5C 22.573,29.0269 21.9063,30.0269 20.5,30.5C 19.8333,30.8333 19.1667,31.1667 18.5,31.5C 17.5,31.5 16.5,31.5 15.5,31.5C 14.8885,34.696 14.8885,37.696 15.5,40.5C 15.5,41.5 15.5,42.5 15.5,43.5C 14.5,43.5 13.5,43.5 12.5,43.5C 11.9766,38.7397 11.9766,34.0731 12.5,29.5C 13.2216,29.0825 13.7216,28.4158 14,27.5C 14.498,24.5184 14.6646,21.5184 14.5,18.5C 14.5569,17.391 14.8902,16.391 15.5,15.5 Z"/></g>
<g><path style="opacity:1" fill="#125b37" d="M 14.5,18.5 C 14.6646,21.5184 14.498,24.5184 14,27.5C 13.7216,28.4158 13.2216,29.0825 12.5,29.5C 12.8084,25.6403 13.4751,21.9736 14.5,18.5 Z"/></g>
<g><path style="opacity:1" fill="#065d32" d="M 48.5,35.5 C 48.8333,35.5 49.1667,35.5 49.5,35.5C 49.573,37.0269 48.9063,38.0269 47.5,38.5C 46.5,38.5 45.5,38.5 44.5,38.5C 44.6633,36.1432 44.4966,33.8098 44,31.5C 43.3292,30.7476 42.4959,30.4142 41.5,30.5C 39.1996,27.9484 36.533,27.2817 33.5,28.5C 33.7373,29.791 33.404,30.791 32.5,31.5C 32.1667,31.5 31.8333,31.5 31.5,31.5C 31.5,29.5 31.5,27.5 31.5,25.5C 36.5278,25.7594 41.1945,27.0927 45.5,29.5C 45.1866,32.2469 45.52,34.9135 46.5,37.5C 47.1818,36.7573 47.8485,36.0906 48.5,35.5 Z"/></g>
<g><path style="opacity:0.478" fill="#003819" d="M 67.5,24.5 C 65.8333,26.1667 64.1667,27.8333 62.5,29.5C 62.5,29.1667 62.5,28.8333 62.5,28.5C 62.427,26.9731 63.0937,25.9731 64.5,25.5C 65.391,24.8902 66.391,24.5569 67.5,24.5 Z"/></g>
<g><path style="opacity:0.937" fill="#032310" d="M 42.5,6.5 C 43.1667,6.5 43.8333,6.5 44.5,6.5C 44.5,6.83333 44.5,7.16667 44.5,7.5C 40.4338,7.30698 36.4338,7.64032 32.5,8.5C 28.5115,8.11636 24.8448,8.78303 21.5,10.5C 21.1667,10.5 20.8333,10.5 20.5,10.5C 17.8333,11.1667 16.1667,12.8333 15.5,15.5C 14.8902,16.391 14.5569,17.391 14.5,18.5C 13.4751,21.9736 12.8084,25.6403 12.5,29.5C 11.5894,31.751 10.256,33.751 8.5,35.5C 7.83333,35.8333 7.16667,36.1667 6.5,36.5C 8.5005,33.8325 10.0005,30.8325 11,27.5C 10.2631,14.2434 16.4298,7.41005 29.5,7C 33.8206,6.50098 38.1539,6.33432 42.5,6.5 Z"/></g>
<g><path style="opacity:0.827" fill="#023d1e" d="M 33.5,28.5 C 36.533,27.2817 39.1996,27.9484 41.5,30.5C 38.8877,29.6295 36.221,28.9628 33.5,28.5 Z"/></g>
<g><path style="opacity:1" fill="#03542e" d="M 18.5,31.5 C 17.8902,32.391 17.5569,33.391 17.5,34.5C 16.2702,36.2972 15.6036,38.2972 15.5,40.5C 14.8885,37.696 14.8885,34.696 15.5,31.5C 16.5,31.5 17.5,31.5 18.5,31.5 Z"/></g>
<g><path style="opacity:0.043" fill="#003018" d="M 20.5,30.5 C 20.2624,32.4044 19.2624,33.7377 17.5,34.5C 17.5569,33.391 17.8902,32.391 18.5,31.5C 19.1667,31.1667 19.8333,30.8333 20.5,30.5 Z"/></g>
<g><path style="opacity:0.349" fill="#003315" d="M 62.5,29.5 C 60.8325,31.4786 60.1658,33.812 60.5,36.5C 59.3775,34.7116 59.2109,32.7116 60,30.5C 60.6708,29.7476 61.5041,29.4142 62.5,29.5 Z"/></g>
<g><path style="opacity:0.737" fill="#02381e" d="M 53.5,32.5 C 55.7409,33.2998 56.7409,34.9664 56.5,37.5C 55.2632,36.0351 54.2632,34.3684 53.5,32.5 Z"/></g>
<g><path style="opacity:0.565" fill="#0c482c" d="M 28.5,39.5 C 27.8826,39.3893 27.3826,39.056 27,38.5C 26.7031,35.086 26.0365,31.7527 25,28.5C 24.3292,27.7476 23.4959,27.4142 22.5,27.5C 22.4701,26.5028 22.9701,25.8361 24,25.5C 25.4768,26.444 26.4768,27.7774 27,29.5C 27.3386,32.8796 27.8386,36.2129 28.5,39.5 Z"/></g>
<g><path style="opacity:1" fill="#085b33" d="M 62.5,28.5 C 62.5,28.8333 62.5,29.1667 62.5,29.5C 61.5041,29.4142 60.6708,29.7476 60,30.5C 59.2109,32.7116 59.3775,34.7116 60.5,36.5C 60.5,37.5 60.5,38.5 60.5,39.5C 61.8333,39.5 63.1667,39.5 64.5,39.5C 64.5,40.5 64.5,41.5 64.5,42.5C 59.8907,43.658 57.2241,41.9914 56.5,37.5C 56.7409,34.9664 55.7409,33.2998 53.5,32.5C 53.0831,31.8761 52.4164,31.5427 51.5,31.5C 50.2867,31.7472 49.62,32.4138 49.5,33.5C 49.5,34.1667 49.5,34.8333 49.5,35.5C 49.1667,35.5 48.8333,35.5 48.5,35.5C 48.5,33.5 48.5,31.5 48.5,29.5C 54.0418,28.8363 57.2084,31.1696 58,36.5C 58.4974,33.854 58.6641,31.1873 58.5,28.5C 59.8333,28.5 61.1667,28.5 62.5,28.5 Z"/></g>
<g><path style="opacity:0.216" fill="#002e15" d="M 53.5,32.5 C 52.0413,32.4326 50.7079,32.7659 49.5,33.5C 49.62,32.4138 50.2867,31.7472 51.5,31.5C 52.4164,31.5427 53.0831,31.8761 53.5,32.5 Z"/></g>
<g><path style="opacity:1" fill="#0a4f2f" d="M 41.5,30.5 C 42.4959,30.4142 43.3292,30.7476 44,31.5C 44.4966,33.8098 44.6633,36.1432 44.5,38.5C 45.5,38.5 46.5,38.5 47.5,38.5C 45.9106,40.3056 43.9106,41.6389 41.5,42.5C 40.3691,40.9255 40.2025,39.2588 41,37.5C 44.0677,35.4107 44.2343,33.0773 41.5,30.5 Z"/></g>
<g><path style="opacity:1" fill="#0f482f" d="M 8.5,35.5 C 8.32842,36.4916 8.66175,37.1583 9.5,37.5C 9.16667,38.1667 8.83333,38.8333 8.5,39.5C 6.45592,40.0312 4.78925,41.1978 3.5,43C 2.36495,43.7494 1.36495,43.5827 0.5,42.5C 2.5332,40.4934 4.5332,38.4934 6.5,36.5C 7.16667,36.1667 7.83333,35.8333 8.5,35.5 Z"/></g>
<g><path style="opacity:1" fill="#0e5230" d="M 12.5,29.5 C 11.9766,34.0731 11.9766,38.7397 12.5,43.5C 13.5,43.5 14.5,43.5 15.5,43.5C 15.5,42.5 15.5,41.5 15.5,40.5C 15.8333,40.5 16.1667,40.5 16.5,40.5C 16.5,41.8333 16.5,43.1667 16.5,44.5C 14.8333,44.5 13.1667,44.5 11.5,44.5C 11.8134,41.7531 11.48,39.0865 10.5,36.5C 9.89333,36.6236 9.55999,36.9569 9.5,37.5C 8.66175,37.1583 8.32842,36.4916 8.5,35.5C 10.256,33.751 11.5894,31.751 12.5,29.5 Z"/></g>
<g><path style="opacity:0.782" fill="#013f1f" d="M 60.5,36.5 C 61.7403,37.6588 63.0736,38.6588 64.5,39.5C 63.1667,39.5 61.8333,39.5 60.5,39.5C 60.5,38.5 60.5,37.5 60.5,36.5 Z"/></g>
<g><path style="opacity:0.808" fill="#032210" d="M 16.5,40.5 C 19.0186,42.3591 19.0186,44.3591 16.5,46.5C 14.8333,46.5 13.1667,46.5 11.5,46.5C 11.2331,43.6879 10.2331,41.3545 8.5,39.5C 8.83333,38.8333 9.16667,38.1667 9.5,37.5C 9.55999,36.9569 9.89333,36.6236 10.5,36.5C 11.48,39.0865 11.8134,41.7531 11.5,44.5C 13.1667,44.5 14.8333,44.5 16.5,44.5C 16.5,43.1667 16.5,41.8333 16.5,40.5 Z"/></g>
<g><path style="opacity:0.537" fill="#011c0c" d="M 6.5,36.5 C 4.5332,38.4934 2.5332,40.4934 0.5,42.5C 1.36495,43.5827 2.36495,43.7494 3.5,43C 4.78925,41.1978 6.45592,40.0312 8.5,39.5C 6.68962,43.3108 3.68962,44.9775 -0.5,44.5C -0.5,43.1667 -0.5,41.8333 -0.5,40.5C 1.69793,38.9019 4.03126,37.5686 6.5,36.5 Z"/></g>
<g><path style="opacity:0.957" fill="#094f2d" d="M 31.5,31.5 C 31.8333,31.5 32.1667,31.5 32.5,31.5C 32.2924,33.9201 32.6258,36.2534 33.5,38.5C 34.6888,39.4287 36.0222,39.762 37.5,39.5C 37.5,40.8333 37.5,42.1667 37.5,43.5C 33.4251,44.341 30.4251,43.0076 28.5,39.5C 29.5,39.5 30.5,39.5 31.5,39.5C 31.5,37.5 31.5,35.5 31.5,33.5C 31.5,32.8333 31.5,32.1667 31.5,31.5 Z"/></g>
</svg>
