<?xml version="1.0" encoding="UTF-8"?>
<!DOCTYPE svg PUBLIC "-//W3C//DTD SVG 1.1//EN" "http://www.w3.org/Graphics/SVG/1.1/DTD/svg11.dtd">
<svg xmlns="http://www.w3.org/2000/svg" version="1.1" width="69px" height="34px" style="shape-rendering:geometricPrecision; text-rendering:geometricPrecision; image-rendering:optimizeQuality; fill-rule:evenodd; clip-rule:evenodd" xmlns:xlink="http://www.w3.org/1999/xlink">
<g><path style="opacity:1" fill="#08331f" d="M 6.5,1.5 C 5.16667,1.5 3.83333,1.5 2.5,1.5C 2.12012,3.69798 2.78679,5.36465 4.5,6.5C 5.16667,7.5 5.83333,8.5 6.5,9.5C 5.83333,9.5 5.16667,9.5 4.5,9.5C 3.54227,8.0384 2.37561,6.70507 1,5.5C 0.50999,4.20677 0.343323,2.87344 0.5,1.5C 2.61121,0.258442 4.61121,0.258442 6.5,1.5 Z"/></g>
<g><path style="opacity:1" fill="#024425" d="M 6.5,1.5 C 7.16667,1.83333 7.83333,2.16667 8.5,2.5C 8.42702,4.02694 9.09368,5.02694 10.5,5.5C 11.6005,6.60486 12.2671,7.93819 12.5,9.5C 12.5,10.5 12.5,11.5 12.5,12.5C 11.5,12.5 10.5,12.5 9.5,12.5C 9.28756,9.2876 7.62089,7.2876 4.5,6.5C 2.78679,5.36465 2.12012,3.69798 2.5,1.5C 3.83333,1.5 5.16667,1.5 6.5,1.5 Z"/></g>
<g><path style="opacity:0.278" fill="#00190c" d="M -0.5,1.5 C -0.166667,1.5 0.166667,1.5 0.5,1.5C 0.343323,2.87344 0.50999,4.20677 1,5.5C 2.37561,6.70507 3.54227,8.0384 4.5,9.5C 2.5887,8.92499 0.922032,7.92499 -0.5,6.5C -0.5,4.83333 -0.5,3.16667 -0.5,1.5 Z"/></g>
<g><path style="opacity:1" fill="#032f18" d="M 8.5,2.5 C 10.7323,3.86893 13.0656,4.86893 15.5,5.5C 13.8333,5.5 12.1667,5.5 10.5,5.5C 9.09368,5.02694 8.42702,4.02694 8.5,2.5 Z"/></g>
<g><path style="opacity:1" fill="#05381e" d="M 10.5,5.5 C 12.1667,5.5 13.8333,5.5 15.5,5.5C 18.214,7.78259 18.0473,9.78259 15,11.5C 14.51,12.7932 14.3433,14.1266 14.5,15.5C 13.6618,15.1583 13.3284,14.4916 13.5,13.5C 13.7678,11.901 13.4345,10.5676 12.5,9.5C 12.2671,7.93819 11.6005,6.60486 10.5,5.5 Z"/></g>
<g><path style="opacity:1" fill="#063f24" d="M 4.5,6.5 C 7.62089,7.2876 9.28756,9.2876 9.5,12.5C 10.5,12.5 11.5,12.5 12.5,12.5C 12.5,11.5 12.5,10.5 12.5,9.5C 13.4345,10.5676 13.7678,11.901 13.5,13.5C 12.3509,13.7911 11.6842,14.6244 11.5,16C 12.0927,18.8697 12.7593,21.703 13.5,24.5C 12.0937,24.0269 11.427,23.0269 11.5,21.5C 10.5998,17.0139 8.93309,13.0139 6.5,9.5C 5.83333,8.5 5.16667,7.5 4.5,6.5 Z"/></g>
<g><path style="opacity:0.186" fill="#001608" d="M 4.5,9.5 C 5.16667,9.5 5.83333,9.5 6.5,9.5C 6.5,11.1667 6.5,12.8333 6.5,14.5C 5.20895,14.7373 4.20895,14.404 3.5,13.5C 5.84181,12.7893 6.17515,11.456 4.5,9.5 Z"/></g>
<g><path style="opacity:0.593" fill="#011c0c" d="M 0.5,-0.5 C 2.83333,-0.5 5.16667,-0.5 7.5,-0.5C 11.0368,2.25289 14.8701,4.58623 19,6.5C 19.8915,9.85329 18.7248,12.1866 15.5,13.5C 16.3195,15.9738 17.3195,18.3071 18.5,20.5C 17.8333,20.1667 17.1667,19.8333 16.5,19.5C 15.3263,18.4863 14.6596,17.153 14.5,15.5C 14.3433,14.1266 14.51,12.7932 15,11.5C 18.0473,9.78259 18.214,7.78259 15.5,5.5C 13.0656,4.86893 10.7323,3.86893 8.5,2.5C 7.83333,2.16667 7.16667,1.83333 6.5,1.5C 4.61121,0.258442 2.61121,0.258442 0.5,1.5C 0.5,0.833333 0.5,0.166667 0.5,-0.5 Z"/></g>
<g><path style="opacity:0.776" fill="#052214" d="M 64.5,13.5 C 62.8235,14.1834 62.1568,15.5168 62.5,17.5C 61.71,16.3915 61.21,15.0581 61,13.5C 60.51,14.7932 60.3433,16.1266 60.5,17.5C 60.1667,17.5 59.8333,17.5 59.5,17.5C 57.8875,14.5072 58.7209,12.5072 62,11.5C 63.3756,11.6842 64.2089,12.3509 64.5,13.5 Z"/></g>
<g><path style="opacity:1" fill="#042b19" d="M 6.5,9.5 C 8.93309,13.0139 10.5998,17.0139 11.5,21.5C 10.8333,21.1667 10.1667,20.8333 9.5,20.5C 9.76202,19.0222 9.42869,17.6888 8.5,16.5C 6.2534,17.3742 3.92006,17.7076 1.5,17.5C 0.565525,16.4324 0.232191,15.099 0.5,13.5C 1.5,13.5 2.5,13.5 3.5,13.5C 4.20895,14.404 5.20895,14.7373 6.5,14.5C 6.5,12.8333 6.5,11.1667 6.5,9.5 Z"/></g>
<g><path style="opacity:0.926" fill="#011e0e" d="M 47.5,15.5 C 43.8183,15.3347 40.1516,15.5014 36.5,16C 35.5842,16.2784 34.9175,16.7784 34.5,17.5C 34.1667,17.5 33.8333,17.5 33.5,17.5C 32.1825,17.821 30.8492,18.1543 29.5,18.5C 28.2867,18.2528 27.62,17.5862 27.5,16.5C 28.1499,16.8039 28.8165,17.1373 29.5,17.5C 35.2854,13.2621 41.2854,12.5954 47.5,15.5 Z"/></g>
<g><path style="opacity:0.5" fill="#001a0b" d="M 47.5,15.5 C 52.5761,16.9118 55.5761,20.2452 56.5,25.5C 55.8333,24.8333 55.1667,24.1667 54.5,23.5C 52.8764,20.2099 50.5431,17.5433 47.5,15.5 Z"/></g>
<g><path style="opacity:1" fill="#024125" d="M 13.5,13.5 C 13.3284,14.4916 13.6618,15.1583 14.5,15.5C 14.6596,17.153 15.3263,18.4863 16.5,19.5C 16.427,21.0269 17.0937,22.0269 18.5,22.5C 19.5,22.8333 20.1667,23.5 20.5,24.5C 19.9569,24.56 19.6236,24.8933 19.5,25.5C 20.1925,26.5178 20.8592,27.5178 21.5,28.5C 18.615,27.6178 15.9483,26.2845 13.5,24.5C 12.7593,21.703 12.0927,18.8697 11.5,16C 11.6842,14.6244 12.3509,13.7911 13.5,13.5 Z"/></g>
<g><path style="opacity:0.267" fill="#00180a" d="M 9.5,20.5 C 6.9717,19.0652 4.30503,18.0652 1.5,17.5C 3.92006,17.7076 6.2534,17.3742 8.5,16.5C 9.42869,17.6888 9.76202,19.0222 9.5,20.5 Z"/></g>
<g><path style="opacity:0.852" fill="#031f10" d="M 27.5,16.5 C 25.3718,15.0427 23.0384,14.0427 20.5,13.5C 20.4326,16.766 22.0992,18.266 25.5,18C 26.5822,19.3297 27.2488,20.8297 27.5,22.5C 27.5,22.8333 27.5,23.1667 27.5,23.5C 25.2362,24.2186 22.9029,24.552 20.5,24.5C 20.1667,23.5 19.5,22.8333 18.5,22.5C 18.5,21.8333 18.5,21.1667 18.5,20.5C 20.5671,22.5123 22.9004,22.8456 25.5,21.5C 23.9706,19.8119 22.1373,18.4786 20,17.5C 19.5065,15.8659 19.3398,14.1992 19.5,12.5C 23.3896,11.7768 26.0563,13.1102 27.5,16.5 Z"/></g>
<g><path style="opacity:1" fill="#073722" d="M 47.5,15.5 C 50.5431,17.5433 52.8764,20.2099 54.5,23.5C 54.7373,24.791 54.404,25.791 53.5,26.5C 50.6283,19.1218 45.295,16.4551 37.5,18.5C 36.791,17.596 35.791,17.2627 34.5,17.5C 34.9175,16.7784 35.5842,16.2784 36.5,16C 40.1516,15.5014 43.8183,15.3347 47.5,15.5 Z"/></g>
<g><path style="opacity:1" fill="#05321e" d="M 27.5,16.5 C 27.62,17.5862 28.2867,18.2528 29.5,18.5C 30.8492,18.1543 32.1825,17.821 33.5,17.5C 31.2036,18.8191 29.2036,20.4857 27.5,22.5C 27.2488,20.8297 26.5822,19.3297 25.5,18C 22.0992,18.266 20.4326,16.766 20.5,13.5C 23.0384,14.0427 25.3718,15.0427 27.5,16.5 Z"/></g>
<g><path style="opacity:1" fill="#002c15" d="M 16.5,19.5 C 17.1667,19.8333 17.8333,20.1667 18.5,20.5C 18.5,21.1667 18.5,21.8333 18.5,22.5C 17.0937,22.0269 16.427,21.0269 16.5,19.5 Z"/></g>
<g><path style="opacity:1" fill="#014025" d="M 33.5,17.5 C 33.8333,17.5 34.1667,17.5 34.5,17.5C 35.791,17.2627 36.791,17.596 37.5,18.5C 36.2719,19.3065 35.2719,20.3065 34.5,21.5C 33.0613,23.3603 31.3947,25.027 29.5,26.5C 29.2178,25.2223 28.5511,24.2223 27.5,23.5C 27.5,23.1667 27.5,22.8333 27.5,22.5C 29.2036,20.4857 31.2036,18.8191 33.5,17.5 Z"/></g>
<g><path style="opacity:1" fill="#024126" d="M 27.5,23.5 C 28.5511,24.2223 29.2178,25.2223 29.5,26.5C 28.5,26.8333 27.8333,27.5 27.5,28.5C 25.5,28.5 23.5,28.5 21.5,28.5C 20.8592,27.5178 20.1925,26.5178 19.5,25.5C 19.6236,24.8933 19.9569,24.56 20.5,24.5C 22.9029,24.552 25.2362,24.2186 27.5,23.5 Z"/></g>
<g><path style="opacity:0.557" fill="#011c0e" d="M 37.5,18.5 C 45.295,16.4551 50.6283,19.1218 53.5,26.5C 54.4411,28.7721 55.7745,30.7721 57.5,32.5C 57.1667,32.5 56.8333,32.5 56.5,32.5C 53.376,30.2756 51.2094,27.2756 50,23.5C 45.0795,18.2144 40.2461,18.2144 35.5,23.5C 36.1272,24.4168 36.4606,25.4168 36.5,26.5C 35.8333,26.1667 35.1667,25.8333 34.5,25.5C 34.5,24.1667 34.5,22.8333 34.5,21.5C 35.2719,20.3065 36.2719,19.3065 37.5,18.5 Z"/></g>
<g><path style="opacity:1" fill="#063621" d="M 13.5,24.5 C 15.9483,26.2845 18.615,27.6178 21.5,28.5C 23.5,28.5 25.5,28.5 27.5,28.5C 24.0915,30.9598 20.4248,31.1265 16.5,29C 14.8588,27.871 13.8588,26.371 13.5,24.5 Z"/></g>
<g><path style="opacity:1" fill="#033720" d="M 34.5,21.5 C 34.5,22.8333 34.5,24.1667 34.5,25.5C 34.5,26.5 34.5,27.5 34.5,28.5C 33.5,28.5 32.5,28.5 31.5,28.5C 30.1667,28.5 28.8333,28.5 27.5,28.5C 27.8333,27.5 28.5,26.8333 29.5,26.5C 31.3947,25.027 33.0613,23.3603 34.5,21.5 Z"/></g>
<g><path style="opacity:1" fill="#052e1b" d="M 54.5,23.5 C 55.1667,24.1667 55.8333,24.8333 56.5,25.5C 56.281,26.675 56.6143,27.675 57.5,28.5C 59.4086,29.3482 61.4086,29.6816 63.5,29.5C 62.0484,30.3019 60.3817,30.8019 58.5,31C 60.1341,31.4935 61.8008,31.6602 63.5,31.5C 61.7354,32.4614 59.7354,32.7947 57.5,32.5C 55.7745,30.7721 54.4411,28.7721 53.5,26.5C 54.404,25.791 54.7373,24.791 54.5,23.5 Z"/></g>
<g><path style="opacity:1" fill="#0b3120" d="M 62.5,17.5 C 65.1967,19.7035 66.8634,22.5369 67.5,26C 67.4714,28.9251 66.1381,30.7585 63.5,31.5C 61.8008,31.6602 60.1341,31.4935 58.5,31C 60.3817,30.8019 62.0484,30.3019 63.5,29.5C 65.4411,27.9894 65.9411,25.9894 65,23.5C 63.668,21.34 62.168,19.34 60.5,17.5C 60.3433,16.1266 60.51,14.7932 61,13.5C 61.21,15.0581 61.71,16.3915 62.5,17.5 Z"/></g>
<g><path style="opacity:1" fill="#032918" d="M 34.5,25.5 C 35.1667,25.8333 35.8333,26.1667 36.5,26.5C 35.9517,29.0838 34.285,30.0838 31.5,29.5C 31.5,29.1667 31.5,28.8333 31.5,28.5C 32.5,28.5 33.5,28.5 34.5,28.5C 34.5,27.5 34.5,26.5 34.5,25.5 Z"/></g>
<g><path style="opacity:0.333" fill="#00190b" d="M 59.5,17.5 C 59.8333,17.5 60.1667,17.5 60.5,17.5C 62.168,19.34 63.668,21.34 65,23.5C 65.9411,25.9894 65.4411,27.9894 63.5,29.5C 61.4086,29.6816 59.4086,29.3482 57.5,28.5C 56.6143,27.675 56.281,26.675 56.5,25.5C 58.4388,28.2764 60.9388,28.943 64,27.5C 64.6667,26.5 64.6667,25.5 64,24.5C 61.8898,22.557 60.3898,20.2236 59.5,17.5 Z"/></g>
<g><path style="opacity:0.333" fill="#00180c" d="M 36.5,26.5 C 37.7911,27.5417 37.7911,28.7083 36.5,30C 34.6131,30.7796 32.9464,30.6129 31.5,29.5C 34.285,30.0838 35.9517,29.0838 36.5,26.5 Z"/></g>
<g><path style="opacity:0.278" fill="#001a0c" d="M 9.5,20.5 C 10.1667,20.8333 10.8333,21.1667 11.5,21.5C 11.427,23.0269 12.0937,24.0269 13.5,24.5C 13.8588,26.371 14.8588,27.871 16.5,29C 20.4248,31.1265 24.0915,30.9598 27.5,28.5C 28.8333,28.5 30.1667,28.5 31.5,28.5C 31.5,28.8333 31.5,29.1667 31.5,29.5C 23.5967,33.1631 16.7634,31.8298 11,25.5C 9.99136,23.9751 9.49136,22.3084 9.5,20.5 Z"/></g>
<g><path style="opacity:0.443" fill="#001a0c" d="M 64.5,13.5 C 63.5876,14.7382 63.4209,16.0715 64,17.5C 65.736,19.0632 67.236,20.7299 68.5,22.5C 68.5,24.8333 68.5,27.1667 68.5,29.5C 67.5,31.1667 66.1667,32.5 64.5,33.5C 61.8333,33.5 59.1667,33.5 56.5,33.5C 56.5,33.1667 56.5,32.8333 56.5,32.5C 56.8333,32.5 57.1667,32.5 57.5,32.5C 59.7354,32.7947 61.7354,32.4614 63.5,31.5C 66.1381,30.7585 67.4714,28.9251 67.5,26C 66.8634,22.5369 65.1967,19.7035 62.5,17.5C 62.1568,15.5168 62.8235,14.1834 64.5,13.5 Z"/></g>
</svg>
