<?xml version="1.0" encoding="UTF-8"?>
<!DOCTYPE svg PUBLIC "-//W3C//DTD SVG 1.1//EN" "http://www.w3.org/Graphics/SVG/1.1/DTD/svg11.dtd">
<svg xmlns="http://www.w3.org/2000/svg" version="1.1" width="93px" height="39px" style="shape-rendering:geometricPrecision; text-rendering:geometricPrecision; image-rendering:optimizeQuality; fill-rule:evenodd; clip-rule:evenodd" xmlns:xlink="http://www.w3.org/1999/xlink">
<g><path style="opacity:0.557" fill="#1c4516" d="M 78.5,0.5 C 78.5,0.166667 78.5,-0.166667 78.5,-0.5C 81.1667,-0.5 83.8333,-0.5 86.5,-0.5C 87.8333,0.5 89.1667,1.5 90.5,2.5C 88.7839,2.37133 87.1172,2.038 85.5,1.5C 83.3926,0.531782 81.0593,0.198448 78.5,0.5 Z"/></g>
<g><path style="opacity:1" fill="#59953b" d="M 85.5,1.5 C 87.1172,2.038 88.7839,2.37133 90.5,2.5C 90.957,5.30932 90.957,7.97599 90.5,10.5C 90.1583,11.3382 89.4916,11.6716 88.5,11.5C 84.8355,11.5018 81.8355,12.8352 79.5,15.5C 79.1667,15.5 78.8333,15.5 78.5,15.5C 78.1667,15.5 77.8333,15.5 77.5,15.5C 76.8333,15.5 76.1667,15.5 75.5,15.5C 72.7089,17.0786 69.7089,18.4119 66.5,19.5C 65.8324,22.3056 65.1657,24.9723 64.5,27.5C 64.5,27.1667 64.5,26.8333 64.5,26.5C 64.6621,24.4727 64.4955,22.4727 64,20.5C 63.2496,19.8742 62.4162,19.3742 61.5,19C 55.8507,18.2425 50.184,17.7425 44.5,17.5C 44.5,18.5 44.5,19.5 44.5,20.5C 43.8333,20.5 43.1667,20.5 42.5,20.5C 40.9892,19.0425 39.9892,17.2092 39.5,15C 31.6554,14.1777 23.9887,14.3443 16.5,15.5C 14.7839,15.6287 13.1172,15.962 11.5,16.5C 9.58533,16.7845 7.91866,16.4511 6.5,15.5C 10.069,13.8815 13.7356,12.5481 17.5,11.5C 25.5607,11.8215 33.5607,11.3215 41.5,10C 42.2524,9.32924 42.5858,8.4959 42.5,7.5C 42.5,6.83333 42.5,6.16667 42.5,5.5C 42.9577,2.69087 44.2911,2.02421 46.5,3.5C 46.5,5.5 46.5,7.5 46.5,9.5C 55.9514,9.89527 65.2848,9.06193 74.5,7C 75.8333,5.33333 77.1667,3.66667 78.5,2C 80.8098,1.50335 83.1432,1.33669 85.5,1.5 Z"/></g>
<g><path style="opacity:1" fill="#2c5521" d="M 90.5,2.5 C 91.1667,2.5 91.8333,2.5 92.5,2.5C 92.5,5.16667 92.5,7.83333 92.5,10.5C 91.8333,10.5 91.1667,10.5 90.5,10.5C 90.957,7.97599 90.957,5.30932 90.5,2.5 Z"/></g>
<g><path style="opacity:0.929" fill="#2f5326" d="M 77.5,0.5 C 75.9767,3.36437 73.6433,5.03104 70.5,5.5C 72.5496,3.45255 74.883,1.78588 77.5,0.5 Z"/></g>
<g><path style="opacity:0.676" fill="#112d12" d="M 42.5,5.5 C 42.5,6.16667 42.5,6.83333 42.5,7.5C 42.1667,7.5 41.8333,7.5 41.5,7.5C 39.7376,7.64271 38.0709,7.30937 36.5,6.5C 35.4777,6.85549 34.811,7.52216 34.5,8.5C 33.0813,9.45115 31.4147,9.78448 29.5,9.5C 30.9025,8.06883 32.5692,6.90216 34.5,6C 37.2572,6.22272 39.9239,6.05606 42.5,5.5 Z"/></g>
<g><path style="opacity:1" fill="#568c3f" d="M 77.5,0.5 C 77.8333,0.5 78.1667,0.5 78.5,0.5C 81.0593,0.198448 83.3926,0.531782 85.5,1.5C 83.1432,1.33669 80.8098,1.50335 78.5,2C 77.1667,3.66667 75.8333,5.33333 74.5,7C 65.2848,9.06193 55.9514,9.89527 46.5,9.5C 46.5,7.5 46.5,5.5 46.5,3.5C 47.3382,3.84171 47.6716,4.50838 47.5,5.5C 50.7681,6.82218 54.4348,7.48885 58.5,7.5C 62.1667,7.33333 65.8333,7.16667 69.5,7C 70.056,6.61742 70.3893,6.11742 70.5,5.5C 73.6433,5.03104 75.9767,3.36437 77.5,0.5 Z"/></g>
<g><path style="opacity:0.49" fill="#2a5220" d="M 47.5,5.5 C 55.1364,6.80301 62.803,6.80301 70.5,5.5C 70.3893,6.11742 70.056,6.61742 69.5,7C 65.8333,7.16667 62.1667,7.33333 58.5,7.5C 54.4348,7.48885 50.7681,6.82218 47.5,5.5 Z"/></g>
<g><path style="opacity:1" fill="#325b28" d="M 41.5,7.5 C 39.3926,8.46822 37.0593,8.80155 34.5,8.5C 34.811,7.52216 35.4777,6.85549 36.5,6.5C 38.0709,7.30937 39.7376,7.64271 41.5,7.5 Z"/></g>
<g><path style="opacity:1" fill="#578c3f" d="M 41.5,7.5 C 41.8333,7.5 42.1667,7.5 42.5,7.5C 42.5858,8.4959 42.2524,9.32924 41.5,10C 33.5607,11.3215 25.5607,11.8215 17.5,11.5C 21.1667,10.8333 24.8333,10.1667 28.5,9.5C 28.8333,9.5 29.1667,9.5 29.5,9.5C 31.4147,9.78448 33.0813,9.45115 34.5,8.5C 37.0593,8.80155 39.3926,8.46822 41.5,7.5 Z"/></g>
<g><path style="opacity:0.49" fill="#1d4316" d="M 88.5,11.5 C 85.6865,13.0697 82.6865,14.4031 79.5,15.5C 81.8355,12.8352 84.8355,11.5018 88.5,11.5 Z"/></g>
<g><path style="opacity:1" fill="#568a40" d="M 16.5,15.5 C 23.9887,14.3443 31.6554,14.1777 39.5,15C 39.9892,17.2092 40.9892,19.0425 42.5,20.5C 42.5,21.1667 42.5,21.8333 42.5,22.5C 41.5084,22.3284 40.8417,22.6618 40.5,23.5C 39.6588,24.9264 38.6588,26.2597 37.5,27.5C 34.049,25.9516 33.7156,23.9516 36.5,21.5C 37.9063,21.0269 38.573,20.0269 38.5,18.5C 39.0431,18.44 39.3764,18.1067 39.5,17.5C 37.604,16.5344 35.604,16.2011 33.5,16.5C 33.1667,16.5 32.8333,16.5 32.5,16.5C 27.3595,15.5119 22.0262,15.1786 16.5,15.5 Z"/></g>
<g><path style="opacity:0.321" fill="#204618" d="M 16.5,15.5 C 22.0262,15.1786 27.3595,15.5119 32.5,16.5C 25.4567,16.2803 18.4567,16.6136 11.5,17.5C 11.5,17.1667 11.5,16.8333 11.5,16.5C 13.1172,15.962 14.7839,15.6287 16.5,15.5 Z"/></g>
<g><path style="opacity:1" fill="#477334" d="M 6.5,15.5 C 7.91866,16.4511 9.58533,16.7845 11.5,16.5C 11.5,16.8333 11.5,17.1667 11.5,17.5C 9.7857,18.7384 7.7857,19.405 5.5,19.5C 4.44802,19.6495 3.44802,19.4828 2.5,19C 3.70507,17.6244 5.0384,16.4577 6.5,15.5 Z"/></g>
<g><path style="opacity:0.42" fill="#1c4012" d="M 33.5,16.5 C 35.604,16.2011 37.604,16.5344 39.5,17.5C 39.3764,18.1067 39.0431,18.44 38.5,18.5C 36.8333,17.8333 35.1667,17.1667 33.5,16.5 Z"/></g>
<g><path style="opacity:0.38" fill="#012000" d="M 77.5,15.5 C 77.8333,15.5 78.1667,15.5 78.5,15.5C 78.8333,16.1667 79.1667,16.8333 79.5,17.5C 77.0065,17.8693 76.3398,17.2027 77.5,15.5 Z"/></g>
<g><path style="opacity:1" fill="#264e1c" d="M 75.5,15.5 C 76.1667,15.5 76.8333,15.5 77.5,15.5C 76.3398,17.2027 77.0065,17.8693 79.5,17.5C 79.5,17.8333 79.5,18.1667 79.5,18.5C 78.1667,18.5 76.8333,18.5 75.5,18.5C 75.5,17.5 75.5,16.5 75.5,15.5 Z"/></g>
<g><path style="opacity:1" fill="#385e2d" d="M 28.5,9.5 C 24.8333,10.1667 21.1667,10.8333 17.5,11.5C 13.7356,12.5481 10.069,13.8815 6.5,15.5C 5.0384,16.4577 3.70507,17.6244 2.5,19C 3.44802,19.4828 4.44802,19.6495 5.5,19.5C 5.5,20.1667 5.16667,20.5 4.5,20.5C 3.16667,20.5 2.5,21.1667 2.5,22.5C 0.951857,22.1788 0.285191,21.1788 0.5,19.5C 4.67686,14.5709 10.0102,11.4042 16.5,10C 20.4862,9.50115 24.4862,9.33449 28.5,9.5 Z"/></g>
<g><path style="opacity:1" fill="#53853c" d="M 75.5,15.5 C 75.5,16.5 75.5,17.5 75.5,18.5C 76.8333,18.5 78.1667,18.5 79.5,18.5C 79.3059,20.9118 77.9726,21.9118 75.5,21.5C 73.8147,18.1445 71.8147,17.8112 69.5,20.5C 68.3065,21.2719 67.3065,22.2719 66.5,23.5C 66.0535,26.0101 66.7202,28.0101 68.5,29.5C 68.5,30.1667 68.8333,30.5 69.5,30.5C 69.5,32.5 68.5,33.5 66.5,33.5C 64.9254,31.8863 64.2587,29.8863 64.5,27.5C 65.1657,24.9723 65.8324,22.3056 66.5,19.5C 69.7089,18.4119 72.7089,17.0786 75.5,15.5 Z"/></g>
<g><path style="opacity:0.51" fill="#264a1b" d="M 75.5,21.5 C 73.9826,21.4894 72.8159,20.8228 72,19.5C 71.3292,20.2524 70.4959,20.5858 69.5,20.5C 71.8147,17.8112 73.8147,18.1445 75.5,21.5 Z"/></g>
<g><path style="opacity:0.475" fill="#08200a" d="M 79.5,18.5 C 79.5,18.1667 79.5,17.8333 79.5,17.5C 80.5,17.5 81.5,17.5 82.5,17.5C 82.5,19.1667 82.5,20.8333 82.5,22.5C 81.5,22.5 80.5,22.5 79.5,22.5C 80.2778,21.8444 80.9444,21.0111 81.5,20C 81.1639,18.9701 80.4972,18.4701 79.5,18.5 Z"/></g>
<g><path style="opacity:1" fill="#588d40" d="M 64.5,26.5 C 63.8333,26.1667 63.1667,25.8333 62.5,25.5C 62.7135,23.8561 62.3802,22.3561 61.5,21C 58.854,20.5026 56.1873,20.3359 53.5,20.5C 53.1667,20.5 52.8333,20.5 52.5,20.5C 50.3452,18.466 48.0118,18.1326 45.5,19.5C 45.5,20.1667 45.1667,20.5 44.5,20.5C 44.5,19.5 44.5,18.5 44.5,17.5C 50.184,17.7425 55.8507,18.2425 61.5,19C 62.4162,19.3742 63.2496,19.8742 64,20.5C 64.4955,22.4727 64.6621,24.4727 64.5,26.5 Z"/></g>
<g><path style="opacity:0.651" fill="#2a5222" d="M 45.5,19.5 C 48.0118,18.1326 50.3452,18.466 52.5,20.5C 50.139,20.3259 47.8056,19.9926 45.5,19.5 Z"/></g>
<g><path style="opacity:0.557" fill="#122913" d="M -0.5,19.5 C -0.166667,19.5 0.166667,19.5 0.5,19.5C 0.285191,21.1788 0.951857,22.1788 2.5,22.5C 1.79105,23.404 0.791047,23.7373 -0.5,23.5C -0.5,22.1667 -0.5,20.8333 -0.5,19.5 Z"/></g>
<g><path style="opacity:0.024" fill="#0a2505" d="M 4.5,20.5 C 4.16667,21.5 3.5,22.1667 2.5,22.5C 2.5,21.1667 3.16667,20.5 4.5,20.5 Z"/></g>
<g><path style="opacity:0.533" fill="#23441f" d="M 38.5,18.5 C 38.573,20.0269 37.9063,21.0269 36.5,21.5C 36.427,19.9731 37.0937,18.9731 38.5,18.5 Z"/></g>
<g><path style="opacity:0.349" fill="#1f4314" d="M 42.5,20.5 C 43.1667,20.5 43.8333,20.5 44.5,20.5C 44.1667,21.5 43.5,22.1667 42.5,22.5C 42.5,21.8333 42.5,21.1667 42.5,20.5 Z"/></g>
<g><path style="opacity:0.627" fill="#23471e" d="M 53.5,20.5 C 56.1873,20.3359 58.854,20.5026 61.5,21C 62.3802,22.3561 62.7135,23.8561 62.5,25.5C 61.7515,24.469 61.0848,23.3024 60.5,22C 57.9644,21.8138 55.631,21.3138 53.5,20.5 Z"/></g>
<g><path style="opacity:1" fill="#2a4e22" d="M 79.5,18.5 C 80.4972,18.4701 81.1639,18.9701 81.5,20C 80.9444,21.0111 80.2778,21.8444 79.5,22.5C 77.901,22.7678 76.5676,22.4345 75.5,21.5C 77.9726,21.9118 79.3059,20.9118 79.5,18.5 Z"/></g>
<g><path style="opacity:1" fill="#305328" d="M 36.5,21.5 C 33.7156,23.9516 34.049,25.9516 37.5,27.5C 36.9473,31.4557 36.1139,31.4557 35,27.5C 34.586,27.9574 34.086,28.2907 33.5,28.5C 32.4096,27.273 31.0762,26.4396 29.5,26C 30.8228,25.1841 31.4894,24.0174 31.5,22.5C 32.9187,21.5489 34.5853,21.2155 36.5,21.5 Z"/></g>
<g><path style="opacity:0.816" fill="#1f4813" d="M 66.5,23.5 C 67.4582,25.3024 68.1249,27.3024 68.5,29.5C 66.7202,28.0101 66.0535,26.0101 66.5,23.5 Z"/></g>
<g><path style="opacity:0.278" fill="#041806" d="M 31.5,22.5 C 31.4894,24.0174 30.8228,25.1841 29.5,26C 31.0762,26.4396 32.4096,27.273 33.5,28.5C 34.086,28.2907 34.586,27.9574 35,27.5C 36.1139,31.4557 36.9473,31.4557 37.5,27.5C 38.5,27.5 39.5,27.5 40.5,27.5C 40.5,26.1667 40.5,24.8333 40.5,23.5C 40.8417,22.6618 41.5084,22.3284 42.5,22.5C 41.6586,24.3792 41.3253,26.3792 41.5,28.5C 40.5,28.5 39.5,28.5 38.5,28.5C 38.5,29.5 38.5,30.5 38.5,31.5C 33.9204,31.8157 30.5871,29.9824 28.5,26C 28.9778,24.3576 29.9778,23.1909 31.5,22.5 Z"/></g>
<g><path style="opacity:1" fill="#193715" d="M 40.5,23.5 C 40.5,24.8333 40.5,26.1667 40.5,27.5C 39.5,27.5 38.5,27.5 37.5,27.5C 38.6588,26.2597 39.6588,24.9264 40.5,23.5 Z"/></g>
<g><path style="opacity:0.349" fill="#0d1e0e" d="M 62.5,27.5 C 63.4614,29.2646 63.7947,31.2646 63.5,33.5C 64.5,33.5 65.5,33.5 66.5,33.5C 66.5,34.8333 66.5,36.1667 66.5,37.5C 65.5326,36.1938 64.1993,35.5271 62.5,35.5C 62.5,32.8333 62.5,30.1667 62.5,27.5 Z"/></g>
<g><path style="opacity:0.671" fill="#051e02" d="M 68.5,29.5 C 70.1788,29.2852 71.1788,29.9519 71.5,31.5C 70.8333,31.1667 70.1667,30.8333 69.5,30.5C 68.8333,30.5 68.5,30.1667 68.5,29.5 Z"/></g>
<g><path style="opacity:1" fill="#34572c" d="M 62.5,25.5 C 63.1667,25.8333 63.8333,26.1667 64.5,26.5C 64.5,26.8333 64.5,27.1667 64.5,27.5C 64.2587,29.8863 64.9254,31.8863 66.5,33.5C 65.5,33.5 64.5,33.5 63.5,33.5C 63.7947,31.2646 63.4614,29.2646 62.5,27.5C 62.5,26.8333 62.5,26.1667 62.5,25.5 Z"/></g>
<g><path style="opacity:1" fill="#34582a" d="M 69.5,30.5 C 70.1667,30.8333 70.8333,31.1667 71.5,31.5C 71.7852,33.288 71.4519,34.9547 70.5,36.5C 69.914,36.2907 69.414,35.9574 69,35.5C 68.5831,36.756 67.7498,37.4226 66.5,37.5C 66.5,36.1667 66.5,34.8333 66.5,33.5C 68.5,33.5 69.5,32.5 69.5,30.5 Z"/></g>
<g><path style="opacity:0.855" fill="#0a2007" d="M 71.5,31.5 C 72.4614,33.2646 72.7947,35.2646 72.5,37.5C 71.209,37.2627 70.209,37.596 69.5,38.5C 68.5,38.5 67.5,38.5 66.5,38.5C 66.5,38.1667 66.5,37.8333 66.5,37.5C 67.7498,37.4226 68.5831,36.756 69,35.5C 69.414,35.9574 69.914,36.2907 70.5,36.5C 71.4519,34.9547 71.7852,33.288 71.5,31.5 Z"/></g>
</svg>
