<?xml version="1.0" encoding="UTF-8"?>
<!DOCTYPE svg PUBLIC "-//W3C//DTD SVG 1.1//EN" "http://www.w3.org/Graphics/SVG/1.1/DTD/svg11.dtd">
<svg xmlns="http://www.w3.org/2000/svg" version="1.1" width="43px" height="22px" style="shape-rendering:geometricPrecision; text-rendering:geometricPrecision; image-rendering:optimizeQuality; fill-rule:evenodd; clip-rule:evenodd" xmlns:xlink="http://www.w3.org/1999/xlink">
<g><path style="opacity:0.859" fill="#0a4d2d" d="M 3.5,0.5 C 2.07501,1.92203 1.07501,3.5887 0.5,5.5C 0.166667,5.5 -0.166667,5.5 -0.5,5.5C -0.5,4.5 -0.5,3.5 -0.5,2.5C 0.60486,1.39952 1.93819,0.732857 3.5,0.5 Z"/></g>
<g><path style="opacity:1" fill="#026e3a" d="M 3.5,-0.5 C 4.83333,-0.5 6.16667,-0.5 7.5,-0.5C 8.5,0.166667 9.5,0.833333 10.5,1.5C 11.0577,2.78991 12.0577,3.62325 13.5,4C 18.7766,4.11477 23.7766,5.28144 28.5,7.5C 29.4916,7.32842 30.1583,7.66175 30.5,8.5C 31.985,11.0827 34.3183,12.416 37.5,12.5C 38.8062,13.4674 39.4729,14.8007 39.5,16.5C 36.6146,16.1936 33.9479,16.5269 31.5,17.5C 28.4231,17.179 26.0897,18.179 24.5,20.5C 21.3161,19.3573 17.9827,18.6906 14.5,18.5C 13.0892,16.086 11.0892,14.4194 8.5,13.5C 8.37124,10.1299 6.70458,8.12988 3.5,7.5C 1.97306,7.57298 0.973056,6.90632 0.5,5.5C 1.07501,3.5887 2.07501,1.92203 3.5,0.5C 3.5,0.166667 3.5,-0.166667 3.5,-0.5 Z"/></g>
<g><path style="opacity:0.882" fill="#014624" d="M 10.5,1.5 C 15.4875,2.66539 20.4875,3.83206 25.5,5C 26.9423,5.37675 27.9423,6.21009 28.5,7.5C 23.7766,5.28144 18.7766,4.11477 13.5,4C 12.0577,3.62325 11.0577,2.78991 10.5,1.5 Z"/></g>
<g><path style="opacity:1" fill="#0a5330" d="M 3.5,7.5 C 6.70458,8.12988 8.37124,10.1299 8.5,13.5C 6.36735,11.9095 4.70069,9.90949 3.5,7.5 Z"/></g>
<g><path style="opacity:1" fill="#004621" d="M 30.5,8.5 C 33.8358,10.0513 37.1691,11.3846 40.5,12.5C 39.5,12.5 38.5,12.5 37.5,12.5C 34.3183,12.416 31.985,11.0827 30.5,8.5 Z"/></g>
<g><path style="opacity:1" fill="#0b4f2e" d="M 8.5,13.5 C 11.0892,14.4194 13.0892,16.086 14.5,18.5C 11.9108,17.5806 9.91083,15.914 8.5,13.5 Z"/></g>
<g><path style="opacity:1" fill="#0a6138" d="M 37.5,12.5 C 38.5,12.5 39.5,12.5 40.5,12.5C 40.2865,14.1439 40.6198,15.6439 41.5,17C 39.5273,17.4955 37.5273,17.6621 35.5,17.5C 34.5,17.5 33.5,17.5 32.5,17.5C 32.1667,17.5 31.8333,17.5 31.5,17.5C 33.9479,16.5269 36.6146,16.1936 39.5,16.5C 39.4729,14.8007 38.8062,13.4674 37.5,12.5 Z"/></g>
<g><path style="opacity:0.62" fill="#084b2b" d="M 40.5,12.5 C 41.1667,12.5 41.8333,12.5 42.5,12.5C 42.5,14.5 42.5,16.5 42.5,18.5C 39.9407,18.8016 37.6074,18.4682 35.5,17.5C 37.5273,17.6621 39.5273,17.4955 41.5,17C 40.6198,15.6439 40.2865,14.1439 40.5,12.5 Z"/></g>
<g><path style="opacity:0.094" fill="#003818" d="M 31.5,17.5 C 31.8333,17.5 32.1667,17.5 32.5,17.5C 29.9188,18.4885 27.2521,19.4885 24.5,20.5C 26.0897,18.179 28.4231,17.179 31.5,17.5 Z"/></g>
<g><path style="opacity:0.929" fill="#054f2a" d="M 14.5,18.5 C 17.9827,18.6906 21.3161,19.3573 24.5,20.5C 24.5,20.8333 24.5,21.1667 24.5,21.5C 21.8333,21.5 19.1667,21.5 16.5,21.5C 15.8333,20.5 15.1667,19.5 14.5,18.5 Z"/></g>
</svg>
