<?xml version="1.0" encoding="UTF-8"?>
<!DOCTYPE svg PUBLIC "-//W3C//DTD SVG 1.1//EN" "http://www.w3.org/Graphics/SVG/1.1/DTD/svg11.dtd">
<svg xmlns="http://www.w3.org/2000/svg" version="1.1" width="34px" height="50px" style="shape-rendering:geometricPrecision; text-rendering:geometricPrecision; image-rendering:optimizeQuality; fill-rule:evenodd; clip-rule:evenodd" xmlns:xlink="http://www.w3.org/1999/xlink">
<g><path style="opacity:0.342" fill="#001d09" d="M 32.5,2.5 C 32.8333,2.5 33.1667,2.5 33.5,2.5C 33.5,3.83333 33.5,5.16667 33.5,6.5C 32.8333,6.5 32.1667,6.5 31.5,6.5C 31.5,6.16667 31.5,5.83333 31.5,5.5C 32.404,4.79105 32.7373,3.79105 32.5,2.5 Z"/></g>
<g><path style="opacity:1" fill="#01713a" d="M 23.5,2.5 C 25.924,2.19244 28.2573,2.52577 30.5,3.5C 30.1373,4.18346 29.8039,4.85013 29.5,5.5C 29.2627,6.79105 29.596,7.79105 30.5,8.5C 30.5,10.8333 30.5,13.1667 30.5,15.5C 29.5084,15.3284 28.8417,15.6618 28.5,16.5C 25.1078,17.99 23.7745,20.6566 24.5,24.5C 24.6716,25.4916 24.3382,26.1583 23.5,26.5C 22.8333,26.5 22.5,26.8333 22.5,27.5C 21.6091,28.2613 20.9424,29.2613 20.5,30.5C 18.0251,30.9642 16.0251,31.9642 14.5,33.5C 13.5,34.8333 12.5,36.1667 11.5,37.5C 10.0357,36.5946 8.70236,36.5946 7.5,37.5C 7.5,34.1667 7.5,30.8333 7.5,27.5C 7.5,25.8333 7.5,24.1667 7.5,22.5C 7.12012,20.302 7.78679,18.6354 9.5,17.5C 10.9276,15.5556 12.7609,13.8889 15,12.5C 15.4828,11.552 15.6495,10.552 15.5,9.5C 18.7642,7.90587 21.4309,5.57253 23.5,2.5 Z"/></g>
<g><path style="opacity:1" fill="#02341a" d="M 24.5,1.5 C 26.2646,0.538616 28.2646,0.205283 30.5,0.5C 31.8333,0.5 32.5,1.16667 32.5,2.5C 32.7373,3.79105 32.404,4.79105 31.5,5.5C 31.5,4.16667 31.5,2.83333 31.5,1.5C 29.1667,1.5 26.8333,1.5 24.5,1.5 Z"/></g>
<g><path style="opacity:1" fill="#075c34" d="M 23.5,2.5 C 23.5,1.83333 23.8333,1.5 24.5,1.5C 26.8333,1.5 29.1667,1.5 31.5,1.5C 31.5,2.83333 31.5,4.16667 31.5,5.5C 30.8333,5.5 30.1667,5.5 29.5,5.5C 29.8039,4.85013 30.1373,4.18346 30.5,3.5C 28.2573,2.52577 25.924,2.19244 23.5,2.5 Z"/></g>
<g><path style="opacity:1" fill="#085630" d="M 23.5,2.5 C 21.4309,5.57253 18.7642,7.90587 15.5,9.5C 17.5691,6.42747 20.2358,4.09413 23.5,2.5 Z"/></g>
<g><path style="opacity:0.349" fill="#003813" d="M 29.5,5.5 C 30.1667,5.5 30.8333,5.5 31.5,5.5C 31.5,5.83333 31.5,6.16667 31.5,6.5C 30.6618,6.84171 30.3284,7.50838 30.5,8.5C 29.596,7.79105 29.2627,6.79105 29.5,5.5 Z"/></g>
<g><path style="opacity:1" fill="#024b26" d="M 30.5,8.5 C 33.0341,10.7504 33.0341,13.0837 30.5,15.5C 30.5,13.1667 30.5,10.8333 30.5,8.5 Z"/></g>
<g><path style="opacity:0.42" fill="#021f0c" d="M 23.5,-0.5 C 25.8333,-0.5 28.1667,-0.5 30.5,-0.5C 30.5,-0.166667 30.5,0.166667 30.5,0.5C 28.2646,0.205283 26.2646,0.538616 24.5,1.5C 23.8333,1.5 23.5,1.83333 23.5,2.5C 20.2358,4.09413 17.5691,6.42747 15.5,9.5C 12.3528,11.3129 10.3528,13.9796 9.5,17.5C 7.78679,18.6354 7.12012,20.302 7.5,22.5C 6.08342,27.4231 5.08342,32.4231 4.5,37.5C 3.35426,28.4544 5.18759,20.1211 10,12.5C 14.3954,7.93568 18.8954,3.60235 23.5,-0.5 Z"/></g>
<g><path style="opacity:1" fill="#0e6037" d="M 15.5,9.5 C 15.6495,10.552 15.4828,11.552 15,12.5C 12.7609,13.8889 10.9276,15.5556 9.5,17.5C 10.3528,13.9796 12.3528,11.3129 15.5,9.5 Z"/></g>
<g><path style="opacity:0.914" fill="#004523" d="M 30.5,15.5 C 30.573,17.0269 29.9063,18.0269 28.5,18.5C 28.5,17.8333 28.5,17.1667 28.5,16.5C 28.8417,15.6618 29.5084,15.3284 30.5,15.5 Z"/></g>
<g><path style="opacity:1" fill="#035a31" d="M 28.5,16.5 C 28.5,17.1667 28.5,17.8333 28.5,18.5C 27.6597,20.8525 26.3264,22.8525 24.5,24.5C 23.7745,20.6566 25.1078,17.99 28.5,16.5 Z"/></g>
<g><path style="opacity:1" fill="#0e5231" d="M 7.5,22.5 C 7.5,24.1667 7.5,25.8333 7.5,27.5C 6.49645,32.0227 5.99645,36.6894 6,41.5C 6.79142,40.255 7.29142,38.9217 7.5,37.5C 8.70236,36.5946 10.0357,36.5946 11.5,37.5C 10.8902,38.391 10.5569,39.391 10.5,40.5C 9.26535,43.3013 7.76535,45.9679 6,48.5C 5.51722,47.552 5.35055,46.552 5.5,45.5C 6.26739,44.828 6.93406,43.9947 7.5,43C 6.00238,42.4153 5.00238,42.9153 4.5,44.5C 2.69409,47.3382 1.69409,47.0048 1.5,43.5C 3.96892,42.3933 4.96892,40.3933 4.5,37.5C 5.08342,32.4231 6.08342,27.4231 7.5,22.5 Z"/></g>
<g><path style="opacity:1" fill="#056535" d="M 22.5,27.5 C 22.6747,29.6208 22.3414,31.6208 21.5,33.5C 19.1667,33.5 16.8333,33.5 14.5,33.5C 16.0251,31.9642 18.0251,30.9642 20.5,30.5C 20.9424,29.2613 21.6091,28.2613 22.5,27.5 Z"/></g>
<g><path style="opacity:1" fill="#084829" d="M 23.5,26.5 C 23.5,27.5 23.5,28.5 23.5,29.5C 27.7332,32.4241 27.0665,33.7574 21.5,33.5C 22.3414,31.6208 22.6747,29.6208 22.5,27.5C 22.5,26.8333 22.8333,26.5 23.5,26.5 Z"/></g>
<g><path style="opacity:0.352" fill="#011e0c" d="M 23.5,29.5 C 26.9103,29.3838 28.2436,31.0504 27.5,34.5C 23.5191,35.0209 19.5191,35.3542 15.5,35.5C 17.5,34.8333 19.5,34.1667 21.5,33.5C 27.0665,33.7574 27.7332,32.4241 23.5,29.5 Z"/></g>
<g><path style="opacity:0.58" fill="#022e13" d="M 14.5,33.5 C 16.8333,33.5 19.1667,33.5 21.5,33.5C 19.5,34.1667 17.5,34.8333 15.5,35.5C 14.1363,37.1911 12.803,38.8577 11.5,40.5C 11.1667,40.5 10.8333,40.5 10.5,40.5C 10.5569,39.391 10.8902,38.391 11.5,37.5C 12.5,36.1667 13.5,34.8333 14.5,33.5 Z"/></g>
<g><path style="opacity:1" fill="#116d42" d="M 7.5,27.5 C 7.5,30.8333 7.5,34.1667 7.5,37.5C 7.29142,38.9217 6.79142,40.255 6,41.5C 5.99645,36.6894 6.49645,32.0227 7.5,27.5 Z"/></g>
<g><path style="opacity:1" fill="#052814" d="M 4.5,37.5 C 4.96892,40.3933 3.96892,42.3933 1.5,43.5C 1.99249,41.1815 2.99249,39.1815 4.5,37.5 Z"/></g>
<g><path style="opacity:0.475" fill="#062212" d="M 10.5,40.5 C 10.8333,40.5 11.1667,40.5 11.5,40.5C 10.9769,43.878 9.64352,46.878 7.5,49.5C 6.16667,49.5 4.83333,49.5 3.5,49.5C 3.16667,48.1667 2.83333,48.1667 2.5,49.5C 1.5,49.5 0.5,49.5 -0.5,49.5C -0.5,48.1667 -0.5,46.8333 -0.5,45.5C 0.166667,44.8333 0.833333,44.1667 1.5,43.5C 1.69409,47.0048 2.69409,47.3382 4.5,44.5C 5.16667,44.5 5.5,44.8333 5.5,45.5C 5.35055,46.552 5.51722,47.552 6,48.5C 7.76535,45.9679 9.26535,43.3013 10.5,40.5 Z"/></g>
<g><path style="opacity:0.42" fill="#00290d" d="M 5.5,45.5 C 5.5,44.8333 5.16667,44.5 4.5,44.5C 5.00238,42.9153 6.00238,42.4153 7.5,43C 6.93406,43.9947 6.26739,44.828 5.5,45.5 Z"/></g>
</svg>
