<?xml version="1.0" encoding="UTF-8"?>
<!DOCTYPE svg PUBLIC "-//W3C//DTD SVG 1.1//EN" "http://www.w3.org/Graphics/SVG/1.1/DTD/svg11.dtd">
<svg xmlns="http://www.w3.org/2000/svg" version="1.1" width="29px" height="49px" style="shape-rendering:geometricPrecision; text-rendering:geometricPrecision; image-rendering:optimizeQuality; fill-rule:evenodd; clip-rule:evenodd" xmlns:xlink="http://www.w3.org/1999/xlink">
<g><path style="opacity:1" fill="#014123" d="M 20.5,3.5 C 19.8333,3.5 19.5,3.83333 19.5,4.5C 18.3065,4.97041 17.6399,5.97041 17.5,7.5C 17.5195,8.72612 17.8529,9.72612 18.5,10.5C 19.3382,10.8417 19.6716,11.5084 19.5,12.5C 19.7376,14.4044 20.7376,15.7377 22.5,16.5C 22.427,18.0269 23.0937,19.0269 24.5,19.5C 25.3382,19.8417 25.6716,20.5084 25.5,21.5C 23.2178,27.8794 21.5511,34.5461 20.5,41.5C 19.7784,41.9175 19.2784,42.5842 19,43.5C 18.3292,42.7476 17.4959,42.4142 16.5,42.5C 13.6122,41.9898 11.2789,42.6565 9.5,44.5C 8.5,45.8333 7.5,45.8333 6.5,44.5C 6.5,42.8333 6.5,41.1667 6.5,39.5C 6.96698,33.6721 6.30031,28.0054 4.5,22.5C 9.09216,17.3902 11.0922,11.3902 10.5,4.5C 10.4142,3.5041 10.7476,2.67076 11.5,2C 13,1.83333 14.5,1.66667 16,1.5C 17.9855,1.56865 19.4855,2.23532 20.5,3.5 Z"/></g>
<g><path style="opacity:0.573" fill="#001b0c" d="M 9.5,-0.5 C 13.8333,-0.5 18.1667,-0.5 22.5,-0.5C 22.6602,1.19919 22.4935,2.86586 22,4.5C 20.7638,5.39925 19.9304,6.56591 19.5,8C 22.3934,12.9649 25.3934,17.7982 28.5,22.5C 28.5,26.8333 28.5,31.1667 28.5,35.5C 28.1667,35.5 27.8333,35.5 27.5,35.5C 27.5,35.1667 27.5,34.8333 27.5,34.5C 27.815,30.6286 27.4816,26.9619 26.5,23.5C 26.6716,22.5084 26.3382,21.8417 25.5,21.5C 25.6716,20.5084 25.3382,19.8417 24.5,19.5C 24.573,17.9731 23.9063,16.9731 22.5,16.5C 22.2624,14.5956 21.2624,13.2623 19.5,12.5C 19.6716,11.5084 19.3382,10.8417 18.5,10.5C 18.3253,8.3792 18.6586,6.3792 19.5,4.5C 19.5,3.83333 19.8333,3.5 20.5,3.5C 21.404,2.79105 21.7373,1.79105 21.5,0.5C 11.2568,-2.55256 6.92349,1.11411 8.5,11.5C 6.76308,14.5212 4.92975,17.5212 3,20.5C 2.33802,22.8127 1.83802,25.146 1.5,27.5C 0.565525,28.5676 0.232191,29.901 0.5,31.5C 0.166667,31.5 -0.166667,31.5 -0.5,31.5C -0.5,29.5 -0.5,27.5 -0.5,25.5C 0.931677,21.2005 3.09834,17.2005 6,13.5C 6.84383,8.69841 8.01049,4.03174 9.5,-0.5 Z"/></g>
<g><path style="opacity:1" fill="#002c16" d="M 22.5,16.5 C 23.9063,16.9731 24.573,17.9731 24.5,19.5C 23.0937,19.0269 22.427,18.0269 22.5,16.5 Z"/></g>
<g><path style="opacity:1" fill="#01331a" d="M 19.5,12.5 C 21.2624,13.2623 22.2624,14.5956 22.5,16.5C 20.7376,15.7377 19.7376,14.4044 19.5,12.5 Z"/></g>
<g><path style="opacity:1" fill="#002913" d="M 19.5,4.5 C 18.6586,6.3792 18.3253,8.3792 18.5,10.5C 17.8529,9.72612 17.5195,8.72612 17.5,7.5C 17.6399,5.97041 18.3065,4.97041 19.5,4.5 Z"/></g>
<g><path style="opacity:1" fill="#032c17" d="M 20.5,3.5 C 19.4855,2.23532 17.9855,1.56865 16,1.5C 14.5,1.66667 13,1.83333 11.5,2C 10.7476,2.67076 10.4142,3.5041 10.5,4.5C 9.83333,6.83333 9.16667,9.16667 8.5,11.5C 6.92349,1.11411 11.2568,-2.55256 21.5,0.5C 21.7373,1.79105 21.404,2.79105 20.5,3.5 Z"/></g>
<g><path style="opacity:1" fill="#073821" d="M 10.5,4.5 C 11.0922,11.3902 9.09216,17.3902 4.5,22.5C 6.30031,28.0054 6.96698,33.6721 6.5,39.5C 5.5,39.1667 4.83333,38.5 4.5,37.5C 4.45108,34.6257 4.78442,31.7923 5.5,29C 5.16667,28.1667 4.83333,27.3333 4.5,26.5C 3.66667,27.5 2.83333,28.5 2,29.5C 1.53566,28.9056 1.36899,28.2389 1.5,27.5C 1.83802,25.146 2.33802,22.8127 3,20.5C 4.92975,17.5212 6.76308,14.5212 8.5,11.5C 9.16667,9.16667 9.83333,6.83333 10.5,4.5 Z"/></g>
<g><path style="opacity:0.686" fill="#001f0c" d="M 25.5,30.5 C 25.1568,32.4832 25.8235,33.8166 27.5,34.5C 27.5,34.8333 27.5,35.1667 27.5,35.5C 26.5,35.5 25.5,35.5 24.5,35.5C 24.5,36.5 24.5,37.5 24.5,38.5C 23.8333,38.8333 23.1667,39.1667 22.5,39.5C 23.1958,35.5483 23.6958,31.5483 24,27.5C 25.0386,28.2438 25.5386,29.2438 25.5,30.5 Z"/></g>
<g><path style="opacity:1" fill="#042917" d="M 26.5,23.5 C 27.4816,26.9619 27.815,30.6286 27.5,34.5C 25.8235,33.8166 25.1568,32.4832 25.5,30.5C 26.4682,28.3926 26.8016,26.0593 26.5,23.5 Z"/></g>
<g><path style="opacity:0.965" fill="#032010" d="M 4.5,37.5 C 4.16667,37.5 3.83333,37.5 3.5,37.5C 3.37943,34.8952 2.37943,32.8952 0.5,31.5C 0.232191,29.901 0.565525,28.5676 1.5,27.5C 1.36899,28.2389 1.53566,28.9056 2,29.5C 2.83333,28.5 3.66667,27.5 4.5,26.5C 4.83333,27.3333 5.16667,28.1667 5.5,29C 4.78442,31.7923 4.45108,34.6257 4.5,37.5 Z"/></g>
<g><path style="opacity:1" fill="#02311a" d="M 25.5,21.5 C 26.3382,21.8417 26.6716,22.5084 26.5,23.5C 26.8016,26.0593 26.4682,28.3926 25.5,30.5C 25.5386,29.2438 25.0386,28.2438 24,27.5C 23.6958,31.5483 23.1958,35.5483 22.5,39.5C 22.1667,40.8333 21.8333,42.1667 21.5,43.5C 20.6618,43.1583 20.3284,42.4916 20.5,41.5C 21.5511,34.5461 23.2178,27.8794 25.5,21.5 Z"/></g>
<g><path style="opacity:1" fill="#012b14" d="M 16.5,42.5 C 16.5,42.8333 16.5,43.1667 16.5,43.5C 14.2646,43.2053 12.2646,43.5386 10.5,44.5C 10.1667,44.5 9.83333,44.5 9.5,44.5C 11.2789,42.6565 13.6122,41.9898 16.5,42.5 Z"/></g>
<g><path style="opacity:1" fill="#053921" d="M 20.5,41.5 C 20.3284,42.4916 20.6618,43.1583 21.5,43.5C 22.1098,44.391 22.4431,45.391 22.5,46.5C 20.4458,46.6347 18.7791,45.968 17.5,44.5C 17.5,43.8333 17.1667,43.5 16.5,43.5C 16.5,43.1667 16.5,42.8333 16.5,42.5C 17.4959,42.4142 18.3292,42.7476 19,43.5C 19.2784,42.5842 19.7784,41.9175 20.5,41.5 Z"/></g>
<g><path style="opacity:1" fill="#032a17" d="M 21.5,43.5 C 24.6822,44.1403 25.0155,45.1403 22.5,46.5C 22.4431,45.391 22.1098,44.391 21.5,43.5 Z"/></g>
<g><path style="opacity:1" fill="#072b1a" d="M 17.5,44.5 C 18.7791,45.968 20.4458,46.6347 22.5,46.5C 21.0813,47.4511 19.4147,47.7845 17.5,47.5C 17.5,46.5 17.5,45.5 17.5,44.5 Z"/></g>
<g><path style="opacity:0.595" fill="#011d0f" d="M 3.5,37.5 C 3.83333,37.5 4.16667,37.5 4.5,37.5C 4.83333,38.5 5.5,39.1667 6.5,39.5C 6.5,41.1667 6.5,42.8333 6.5,44.5C 5.62356,44.3691 4.95689,44.7025 4.5,45.5C 7.26406,48.4546 9.26406,48.1212 10.5,44.5C 12.2646,43.5386 14.2646,43.2053 16.5,43.5C 17.1667,43.5 17.5,43.8333 17.5,44.5C 17.5,45.5 17.5,46.5 17.5,47.5C 14.536,43.4538 12.8693,43.7871 12.5,48.5C 9.83333,48.5 7.16667,48.5 4.5,48.5C 4.35439,44.8696 4.02106,41.2029 3.5,37.5 Z"/></g>
<g><path style="opacity:1" fill="#093623" d="M 6.5,44.5 C 7.5,45.8333 8.5,45.8333 9.5,44.5C 9.83333,44.5 10.1667,44.5 10.5,44.5C 9.26406,48.1212 7.26406,48.4546 4.5,45.5C 4.95689,44.7025 5.62356,44.3691 6.5,44.5 Z"/></g>
<g><path style="opacity:0.544" fill="#001a0c" d="M 24.5,38.5 C 24.4606,39.5832 24.1272,40.5832 23.5,41.5C 26.0477,43.9491 26.0477,46.2824 23.5,48.5C 21.5,48.5 19.5,48.5 17.5,48.5C 17.5,48.1667 17.5,47.8333 17.5,47.5C 19.4147,47.7845 21.0813,47.4511 22.5,46.5C 25.0155,45.1403 24.6822,44.1403 21.5,43.5C 21.8333,42.1667 22.1667,40.8333 22.5,39.5C 23.1667,39.1667 23.8333,38.8333 24.5,38.5 Z"/></g>
</svg>
