<?xml version="1.0" standalone="no"?>
<!DOCTYPE svg PUBLIC "-//W3C//DTD SVG 20010904//EN"
 "http://www.w3.org/TR/2001/REC-SVG-20010904/DTD/svg10.dtd">
<svg version="1.0" xmlns="http://www.w3.org/2000/svg"
 width="68.000000pt" height="44.000000pt" viewBox="0 0 68.000000 44.000000"
 preserveAspectRatio="xMidYMid meet">

<g transform="translate(0.000000,44.000000) scale(0.100000,-0.100000)"
fill="#dddd00" stroke="none">
<path d="M486 433 c-3 -3 -6 -31 -6 -62 0 -77 -8 -87 -51 -66 -19 10 -55 32
-81 51 -51 36 -125 74 -145 74 -7 0 -23 -16 -35 -35 -25 -38 -36 -43 -44 -20
-4 8 -11 15 -18 15 -17 0 -106 -59 -106 -70 0 -21 32 -22 60 -1 38 27 44 27
36 -4 -6 -24 -5 -25 42 -25 27 0 57 -6 68 -15 10 -8 26 -15 36 -15 9 0 36 -16
60 -36 23 -20 59 -44 78 -52 19 -9 42 -21 50 -28 8 -6 42 -21 75 -33 42 -15
72 -35 101 -66 39 -42 64 -56 64 -36 0 5 -7 14 -15 21 -8 7 -15 18 -15 25 0 6
-20 29 -45 50 -41 34 -45 41 -39 69 3 17 12 38 20 47 8 8 14 23 14 32 0 20
-21 67 -30 67 -3 0 -6 22 -6 49 1 27 -1 51 -4 54 -10 9 -57 16 -64 10z"/>
</g>
</svg>
