<?xml version="1.0" encoding="UTF-8"?>
<!DOCTYPE svg PUBLIC "-//W3C//DTD SVG 1.1//EN" "http://www.w3.org/Graphics/SVG/1.1/DTD/svg11.dtd">
<svg xmlns="http://www.w3.org/2000/svg" version="1.1" width="27px" height="38px" style="shape-rendering:geometricPrecision; text-rendering:geometricPrecision; image-rendering:optimizeQuality; fill-rule:evenodd; clip-rule:evenodd" xmlns:xlink="http://www.w3.org/1999/xlink">
<g><path style="opacity:0.294" fill="#011f0b" d="M 18.5,0.5 C 18.5,0.166667 18.5,-0.166667 18.5,-0.5C 20.5,-0.5 22.5,-0.5 24.5,-0.5C 24.8333,0.833333 25.1667,2.16667 25.5,3.5C 23.7713,1.2733 21.438,0.273296 18.5,0.5 Z"/></g>
<g><path style="opacity:1" fill="#085731" d="M 18.5,0.5 C 21.438,0.273296 23.7713,1.2733 25.5,3.5C 25.5,4.16667 25.8333,4.5 26.5,4.5C 26.5,5.5 26.5,6.5 26.5,7.5C 24.9505,8.4408 23.2838,9.10746 21.5,9.5C 21.7565,7.22387 23.0898,6.0572 25.5,6C 23.9782,4.47823 22.4782,2.97823 21,1.5C 18.3744,3.56122 15.5411,5.22789 12.5,6.5C 14.5,4.5 16.5,2.5 18.5,0.5 Z"/></g>
<g><path style="opacity:1" fill="#02723c" d="M 21.5,9.5 C 20.661,10.6412 19.9943,11.9745 19.5,13.5C 14.4007,13.9318 11.734,16.5985 11.5,21.5C 10.5,21.8333 9.83333,22.5 9.5,23.5C 5.06497,25.1766 2.89831,23.5099 3,18.5C 2.33333,16.8333 2.33333,15.1667 3,13.5C 4.37561,12.2949 5.54227,10.9616 6.5,9.5C 8.96741,9.24512 10.9674,8.24512 12.5,6.5C 15.5411,5.22789 18.3744,3.56122 21,1.5C 22.4782,2.97823 23.9782,4.47823 25.5,6C 23.0898,6.0572 21.7565,7.22387 21.5,9.5 Z"/></g>
<g><path style="opacity:0.796" fill="#032712" d="M 18.5,0.5 C 16.5,2.5 14.5,4.5 12.5,6.5C 10.0326,6.75488 8.03259,7.75488 6.5,9.5C 4.5887,10.075 2.92203,11.075 1.5,12.5C 1.51056,10.9826 2.17723,9.81595 3.5,9C 8.82877,6.6248 13.8288,3.79147 18.5,0.5 Z"/></g>
<g><path style="opacity:1" fill="#0f623a" d="M 12.5,6.5 C 10.9674,8.24512 8.96741,9.24512 6.5,9.5C 8.03259,7.75488 10.0326,6.75488 12.5,6.5 Z"/></g>
<g><path style="opacity:0.267" fill="#022511" d="M 21.5,11.5 C 21.5,11.1667 21.5,10.8333 21.5,10.5C 22.675,10.281 23.675,10.6143 24.5,11.5C 24.3764,12.1067 24.0431,12.44 23.5,12.5C 23.1583,11.6618 22.4916,11.3284 21.5,11.5 Z"/></g>
<g><path style="opacity:1" fill="#054a25" d="M 21.5,9.5 C 21.5,9.83333 21.5,10.1667 21.5,10.5C 21.5,10.8333 21.5,11.1667 21.5,11.5C 21.5,12.8333 21.5,14.1667 21.5,15.5C 19.8333,15.5 18.1667,15.5 16.5,15.5C 13.8782,16.7651 12.2115,18.7651 11.5,21.5C 11.734,16.5985 14.4007,13.9318 19.5,13.5C 19.9943,11.9745 20.661,10.6412 21.5,9.5 Z"/></g>
<g><path style="opacity:1" fill="#03371c" d="M 21.5,11.5 C 22.4916,11.3284 23.1583,11.6618 23.5,12.5C 23.1706,17.9461 20.8373,18.9461 16.5,15.5C 18.1667,15.5 19.8333,15.5 21.5,15.5C 21.5,14.1667 21.5,12.8333 21.5,11.5 Z"/></g>
<g><path style="opacity:1" fill="#083c23" d="M 1.5,12.5 C 1.5,15.5 1.5,18.5 1.5,21.5C 1.16667,21.5 0.833333,21.5 0.5,21.5C 0.166667,21.5 -0.166667,21.5 -0.5,21.5C -0.5,19.1667 -0.5,16.8333 -0.5,14.5C 0.166667,13.8333 0.833333,13.1667 1.5,12.5 Z"/></g>
<g><path style="opacity:1" fill="#09673a" d="M 6.5,9.5 C 5.54227,10.9616 4.37561,12.2949 3,13.5C 2.33333,15.1667 2.33333,16.8333 3,18.5C 2.89831,23.5099 5.06497,25.1766 9.5,23.5C 9.5,24.1667 9.83333,24.5 10.5,24.5C 8.83333,25.1667 7.16667,25.8333 5.5,26.5C 5.00509,31.0274 6.67175,32.3607 10.5,30.5C 13.4507,29.1906 14.7841,26.8573 14.5,23.5C 15.2545,21.5337 16.4212,21.2004 18,22.5C 18.6278,29.8876 15.2944,34.5543 8,36.5C 5.49719,36.01 3.49719,34.6766 2,32.5C 1.94456,28.6383 1.77789,24.9717 1.5,21.5C 1.5,18.5 1.5,15.5 1.5,12.5C 2.92203,11.075 4.5887,10.075 6.5,9.5 Z M 8.5,27.5 C 11.2476,27.4017 11.9143,28.4017 10.5,30.5C 9.17793,30.67 8.01127,30.3366 7,29.5C 6.47189,28.184 6.97189,27.5173 8.5,27.5 Z"/></g>
<g><path style="opacity:0.431" fill="#02250f" d="M 11.5,37.5 C 9.16667,37.5 6.83333,37.5 4.5,37.5C 3.54227,36.0384 2.37561,34.7051 1,33.5C 0.767164,29.331 0.600497,25.331 0.5,21.5C 0.833333,21.5 1.16667,21.5 1.5,21.5C 1.77789,24.9717 1.94456,28.6383 2,32.5C 3.49719,34.6766 5.49719,36.01 8,36.5C 15.2944,34.5543 18.6278,29.8876 18,22.5C 16.4212,21.2004 15.2545,21.5337 14.5,23.5C 13.209,23.7373 12.209,23.404 11.5,22.5C 13.5713,20.8996 15.9047,20.3996 18.5,21C 20.7019,28.4291 18.3686,33.9291 11.5,37.5 Z M 8.5,27.5 C 11.2476,27.4017 11.9143,28.4017 10.5,30.5C 9.17793,30.67 8.01127,30.3366 7,29.5C 6.47189,28.184 6.97189,27.5173 8.5,27.5 Z"/></g>
<g><path style="opacity:0.206" fill="#032108" d="M 5.5,26.5 C 6.5,26.5 7.5,26.5 8.5,26.5C 8.5,26.8333 8.5,27.1667 8.5,27.5C 6.97189,27.5173 6.47189,28.184 7,29.5C 8.01127,30.3366 9.17793,30.67 10.5,30.5C 6.67175,32.3607 5.00509,31.0274 5.5,26.5 Z"/></g>
<g><path style="opacity:0.941" fill="#013317" d="M 11.5,21.5 C 11.5,21.8333 11.5,22.1667 11.5,22.5C 12.209,23.404 13.209,23.7373 14.5,23.5C 14.7841,26.8573 13.4507,29.1906 10.5,30.5C 11.9143,28.4017 11.2476,27.4017 8.5,27.5C 8.5,27.1667 8.5,26.8333 8.5,26.5C 9.97782,26.762 11.3112,26.4287 12.5,25.5C 12.0431,24.7025 11.3764,24.3691 10.5,24.5C 9.83333,24.5 9.5,24.1667 9.5,23.5C 9.83333,22.5 10.5,21.8333 11.5,21.5 Z"/></g>
<g><path style="opacity:1" fill="#0f5532" d="M 10.5,24.5 C 11.3764,24.3691 12.0431,24.7025 12.5,25.5C 11.3112,26.4287 9.97782,26.762 8.5,26.5C 7.5,26.5 6.5,26.5 5.5,26.5C 7.16667,25.8333 8.83333,25.1667 10.5,24.5 Z"/></g>
</svg>
