<?xml version="1.0" encoding="UTF-8"?>
<!DOCTYPE svg PUBLIC "-//W3C//DTD SVG 1.1//EN" "http://www.w3.org/Graphics/SVG/1.1/DTD/svg11.dtd">
<svg xmlns="http://www.w3.org/2000/svg" version="1.1" width="34px" height="63px" style="shape-rendering:geometricPrecision; text-rendering:geometricPrecision; image-rendering:optimizeQuality; fill-rule:evenodd; clip-rule:evenodd" xmlns:xlink="http://www.w3.org/1999/xlink">
<g><path style="opacity:0.914" fill="#346328" d="M 29.5,-0.5 C 30.5,-0.5 31.5,-0.5 32.5,-0.5C 32.5,0.166667 32.8333,0.5 33.5,0.5C 33.5,1.5 33.5,2.5 33.5,3.5C 32.3127,5.07249 31.3127,6.73915 30.5,8.5C 30.6741,6.13895 31.0074,3.80562 31.5,1.5C 27.2396,2.58532 22.9062,3.25199 18.5,3.5C 22.2927,2.56856 25.9594,1.23523 29.5,-0.5 Z"/></g>
<g><path style="opacity:1" fill="#63a743" d="M 30.5,8.5 C 28.1697,13.1142 26.8364,18.1142 26.5,23.5C 26.2503,25.674 25.2503,27.3406 23.5,28.5C 20.2123,28.927 17.2123,28.2603 14.5,26.5C 13.8933,26.6236 13.56,26.9569 13.5,27.5C 12.5489,28.9187 12.2155,30.5853 12.5,32.5C 12.5,34.5 11.5,35.5 9.5,35.5C 8.23532,36.5145 7.56865,38.0145 7.5,40C 7.50848,41.7067 7.84182,43.2067 8.5,44.5C 8.5,45.8333 8.5,47.1667 8.5,48.5C 7.92317,49.7733 7.2565,49.7733 6.5,48.5C 3.30261,42.8418 1.63595,36.8418 1.5,30.5C 1.16667,30.5 0.833333,30.5 0.5,30.5C 0.337876,28.4727 0.504543,26.4727 1,24.5C 2.68511,22.9825 4.18511,21.3159 5.5,19.5C 3.82674,17.4775 3.16007,15.1441 3.5,12.5C 4.10978,11.609 4.44312,10.609 4.5,9.5C 6.74876,8.92022 8.41543,7.58689 9.5,5.5C 12.2727,4.34281 15.2727,3.67615 18.5,3.5C 22.9062,3.25199 27.2396,2.58532 31.5,1.5C 31.0074,3.80562 30.6741,6.13895 30.5,8.5 Z"/></g>
<g><path style="opacity:0.957" fill="#45743b" d="M 9.5,5.5 C 8.41543,7.58689 6.74876,8.92022 4.5,9.5C 5.58457,7.41311 7.25124,6.07978 9.5,5.5 Z"/></g>
<g><path style="opacity:0.533" fill="#305c2c" d="M 4.5,9.5 C 4.44312,10.609 4.10978,11.609 3.5,12.5C 3.16667,12.5 2.83333,12.5 2.5,12.5C 2.42702,10.9731 3.09368,9.97306 4.5,9.5 Z"/></g>
<g><path style="opacity:0.702" fill="#2a5a1a" d="M 30.5,8.5 C 29.6581,13.7452 28.3248,18.7452 26.5,23.5C 26.8364,18.1142 28.1697,13.1142 30.5,8.5 Z"/></g>
<g><path style="opacity:0.937" fill="#598a4b" d="M 2.5,12.5 C 2.83333,12.5 3.16667,12.5 3.5,12.5C 3.16007,15.1441 3.82674,17.4775 5.5,19.5C 4.18511,21.3159 2.68511,22.9825 1,24.5C 0.504543,26.4727 0.337876,28.4727 0.5,30.5C 0.166667,30.5 -0.166667,30.5 -0.5,30.5C -0.5,28.1667 -0.5,25.8333 -0.5,23.5C 0.961599,22.5423 2.29493,21.3756 3.5,20C 2.565,17.6194 2.23166,15.1194 2.5,12.5 Z"/></g>
<g><path style="opacity:0.427" fill="#295f1a" d="M 13.5,27.5 C 14.3382,27.8417 14.6716,28.5084 14.5,29.5C 13.8333,30.5 13.1667,31.5 12.5,32.5C 12.2155,30.5853 12.5489,28.9187 13.5,27.5 Z"/></g>
<g><path style="opacity:1" fill="#4d843c" d="M 13.5,27.5 C 13.56,26.9569 13.8933,26.6236 14.5,26.5C 17.2123,28.2603 20.2123,28.927 23.5,28.5C 20.57,31.2895 17.57,31.6229 14.5,29.5C 14.6716,28.5084 14.3382,27.8417 13.5,27.5 Z"/></g>
<g><path style="opacity:0.682" fill="#3c6732" d="M -0.5,31.5 C -0.5,31.1667 -0.5,30.8333 -0.5,30.5C -0.166667,30.5 0.166667,30.5 0.5,30.5C 0.833333,30.5 1.16667,30.5 1.5,30.5C 1.5,33.8333 1.5,37.1667 1.5,40.5C 0.833333,37.5 0.166667,34.5 -0.5,31.5 Z"/></g>
<g><path style="opacity:0.212" fill="#1b4e0e" d="M 9.5,35.5 C 8.59748,38.3915 8.26414,41.3915 8.5,44.5C 7.84182,43.2067 7.50848,41.7067 7.5,40C 7.56865,38.0145 8.23532,36.5145 9.5,35.5 Z"/></g>
<g><path style="opacity:1" fill="#5b9149" d="M 1.5,30.5 C 1.63595,36.8418 3.30261,42.8418 6.5,48.5C 7.2565,49.7733 7.92317,49.7733 8.5,48.5C 9.16667,48.8333 9.83333,49.1667 10.5,49.5C 11.404,50.209 11.7373,51.209 11.5,52.5C 11.4142,53.4959 11.7476,54.3292 12.5,55C 11.552,55.4828 10.552,55.6495 9.5,55.5C 9.5,54.8333 9.16667,54.5 8.5,54.5C 8.5,53.1667 7.83333,52.5 6.5,52.5C 3.28351,49.1934 1.61684,45.1934 1.5,40.5C 1.5,37.1667 1.5,33.8333 1.5,30.5 Z"/></g>
<g><path style="opacity:1" fill="#316422" d="M 8.5,44.5 C 9.53747,45.9303 10.2041,47.597 10.5,49.5C 9.83333,49.1667 9.16667,48.8333 8.5,48.5C 8.5,47.1667 8.5,45.8333 8.5,44.5 Z"/></g>
<g><path style="opacity:0.682" fill="#254e22" d="M 6.5,52.5 C 7.83333,52.5 8.5,53.1667 8.5,54.5C 7.5,54.1667 6.83333,53.5 6.5,52.5 Z"/></g>
<g><path style="opacity:0.424" fill="#082404" d="M 13.5,53.5 C 15.4918,55.5638 17.8252,56.8971 20.5,57.5C 19.5,57.5 18.5,57.5 17.5,57.5C 15.1667,57.1667 13.8333,55.8333 13.5,53.5 Z"/></g>
<g><path style="opacity:0.486" fill="#0c2d0e" d="M 8.5,54.5 C 9.16667,54.5 9.5,54.8333 9.5,55.5C 12.9275,57.3127 16.2609,59.3127 19.5,61.5C 15.7882,60.153 12.1216,58.8196 8.5,57.5C 8.5,56.5 8.5,55.5 8.5,54.5 Z"/></g>
<g><path style="opacity:0.639" fill="#224c1c" d="M 17.5,57.5 C 18.5,57.5 19.5,57.5 20.5,57.5C 22.698,57.1201 24.3646,57.7868 25.5,59.5C 25.1667,59.5 24.8333,59.5 24.5,59.5C 22.9582,58.6993 21.2915,58.366 19.5,58.5C 18.5084,58.6716 17.8417,58.3382 17.5,57.5 Z"/></g>
<g><path style="opacity:1" fill="#669c54" d="M 19.5,58.5 C 21.2915,58.366 22.9582,58.6993 24.5,59.5C 22.5453,60.9302 20.8786,60.5969 19.5,58.5 Z"/></g>
<g><path style="opacity:1" fill="#426f37" d="M 11.5,52.5 C 12.1667,52.8333 12.8333,53.1667 13.5,53.5C 13.8333,55.8333 15.1667,57.1667 17.5,57.5C 17.8417,58.3382 18.5084,58.6716 19.5,58.5C 20.8786,60.5969 22.5453,60.9302 24.5,59.5C 24.8333,59.5 25.1667,59.5 25.5,59.5C 25.5,60.5 25.5,61.5 25.5,62.5C 24.5,62.5 23.5,62.5 22.5,62.5C 21.791,61.596 20.791,61.2627 19.5,61.5C 16.2609,59.3127 12.9275,57.3127 9.5,55.5C 10.552,55.6495 11.552,55.4828 12.5,55C 11.7476,54.3292 11.4142,53.4959 11.5,52.5 Z"/></g>
</svg>
