<?xml version="1.0" encoding="UTF-8"?>
<!DOCTYPE svg PUBLIC "-//W3C//DTD SVG 1.1//EN" "http://www.w3.org/Graphics/SVG/1.1/DTD/svg11.dtd">
<svg xmlns="http://www.w3.org/2000/svg" version="1.1" width="56px" height="52px" style="shape-rendering:geometricPrecision; text-rendering:geometricPrecision; image-rendering:optimizeQuality; fill-rule:evenodd; clip-rule:evenodd" xmlns:xlink="http://www.w3.org/1999/xlink">
<g><path style="opacity:0.914" fill="#48733a" d="M 20.5,-0.5 C 21.1667,-0.5 21.8333,-0.5 22.5,-0.5C 22.5,-0.166667 22.5,0.166667 22.5,0.5C 21.791,1.40397 20.791,1.73731 19.5,1.5C 19.5,3.83333 19.5,6.16667 19.5,8.5C 17.5,8.5 15.5,8.5 13.5,8.5C 14.9187,7.54885 16.5853,7.21552 18.5,7.5C 18.1315,4.46687 18.7982,1.8002 20.5,-0.5 Z"/></g>
<g><path style="opacity:0.533" fill="#27581a" d="M 23.5,0.5 C 24.4967,3.00505 24.4967,5.67171 23.5,8.5C 25.099,8.23219 26.4324,8.56552 27.5,9.5C 25.8333,9.5 24.1667,9.5 22.5,9.5C 22.7038,6.48237 23.0371,3.48237 23.5,0.5 Z"/></g>
<g><path style="opacity:1" fill="#60954b" d="M 13.5,8.5 C 15.5,8.5 17.5,8.5 19.5,8.5C 18.0484,9.30192 16.3817,9.80192 14.5,10C 13.9341,10.9947 13.2674,11.828 12.5,12.5C 12.5,11.8333 12.5,11.1667 12.5,10.5C 12.3284,9.50838 12.6618,8.84171 13.5,8.5 Z"/></g>
<g><path style="opacity:1" fill="#64a843" d="M 22.5,0.5 C 22.8333,0.5 23.1667,0.5 23.5,0.5C 23.0371,3.48237 22.7038,6.48237 22.5,9.5C 24.1667,9.5 25.8333,9.5 27.5,9.5C 30.1979,9.8449 32.1979,11.1782 33.5,13.5C 33.7376,15.4044 34.7376,16.7377 36.5,17.5C 36.5,17.8333 36.5,18.1667 36.5,18.5C 36.5,19.8333 36.5,21.1667 36.5,22.5C 36.6567,23.8734 36.49,25.2068 36,26.5C 30.8303,23.9416 25.3303,22.6083 19.5,22.5C 19.6633,24.8568 19.4966,27.1902 19,29.5C 18.7811,28.062 18.2811,26.7287 17.5,25.5C 15.5914,26.3482 13.5914,26.6816 11.5,26.5C 11.8756,23.3733 11.8756,20.3733 11.5,17.5C 8.24232,16.5827 4.90899,16.2493 1.5,16.5C 2.85504,13.4823 5.18837,12.149 8.5,12.5C 9.96126,13.6857 11.2946,13.6857 12.5,12.5C 13.2674,11.828 13.9341,10.9947 14.5,10C 16.3817,9.80192 18.0484,9.30192 19.5,8.5C 19.5,6.16667 19.5,3.83333 19.5,1.5C 20.791,1.73731 21.791,1.40397 22.5,0.5 Z"/></g>
<g><path style="opacity:0.51" fill="#29551c" d="M 12.5,10.5 C 12.5,11.1667 12.5,11.8333 12.5,12.5C 11.2946,13.6857 9.96126,13.6857 8.5,12.5C 8.5,12.1667 8.5,11.8333 8.5,11.5C 9.4959,11.4142 10.3292,11.7476 11,12.5C 11.2784,11.5842 11.7784,10.9175 12.5,10.5 Z"/></g>
<g><path style="opacity:1" fill="#396829" d="M 33.5,13.5 C 35.2624,14.2623 36.2624,15.5956 36.5,17.5C 34.7376,16.7377 33.7376,15.4044 33.5,13.5 Z"/></g>
<g><path style="opacity:1" fill="#4b793c" d="M 8.5,11.5 C 8.5,11.8333 8.5,12.1667 8.5,12.5C 5.18837,12.149 2.85504,13.4823 1.5,16.5C 4.2281,17.2052 7.06143,17.8719 10,18.5C 10.4974,21.146 10.6641,23.8127 10.5,26.5C 10.1667,26.5 9.83333,26.5 9.5,26.5C 8.24751,24.6612 8.24751,22.8278 9.5,21C 7.98277,18.4016 5.98277,17.9016 3.5,19.5C 1.92714,19.2483 0.593804,18.5817 -0.5,17.5C -0.5,16.5 -0.5,15.5 -0.5,14.5C 1.9023,11.455 4.9023,10.455 8.5,11.5 Z"/></g>
<g><path style="opacity:1" fill="#437831" d="M 36.5,18.5 C 38.5848,20.6845 39.5848,23.3511 39.5,26.5C 38.5,25.1667 37.5,23.8333 36.5,22.5C 36.5,21.1667 36.5,19.8333 36.5,18.5 Z"/></g>
<g><path style="opacity:1" fill="#62a542" d="M 1.5,16.5 C 4.90899,16.2493 8.24232,16.5827 11.5,17.5C 11.8756,20.3733 11.8756,23.3733 11.5,26.5C 13.5914,26.6816 15.5914,26.3482 17.5,25.5C 18.2811,26.7287 18.7811,28.062 19,29.5C 19.4966,27.1902 19.6633,24.8568 19.5,22.5C 25.3303,22.6083 30.8303,23.9416 36,26.5C 36.49,25.2068 36.6567,23.8734 36.5,22.5C 37.5,23.8333 38.5,25.1667 39.5,26.5C 39.5,27.8333 39.5,29.1667 39.5,30.5C 41.6074,31.4682 43.9407,31.8016 46.5,31.5C 46.5,32.5 46.5,33.5 46.5,34.5C 46.1667,34.5 45.8333,34.5 45.5,34.5C 42.4383,33.9462 39.4383,33.4462 36.5,33C 36.1821,35.0419 36.0154,37.2086 36,39.5C 30.0058,38.1843 24.1725,37.1843 18.5,36.5C 16.7541,34.7484 14.7541,33.4151 12.5,32.5C 11.6618,32.1583 11.3284,31.4916 11.5,30.5C 11.5674,29.0413 11.2341,27.7079 10.5,26.5C 10.6641,23.8127 10.4974,21.146 10,18.5C 7.06143,17.8719 4.2281,17.2052 1.5,16.5 Z"/></g>
<g><path style="opacity:1" fill="#4b7c38" d="M 52.5,25.5 C 54.1765,26.1834 54.8432,27.5168 54.5,29.5C 54.5,30.1667 54.1667,30.5 53.5,30.5C 53.5,29.5 53.5,28.5 53.5,27.5C 50.8333,27.8333 48.1667,28.1667 45.5,28.5C 47.649,27.2638 49.9823,26.2638 52.5,25.5 Z"/></g>
<g><path style="opacity:0.639" fill="#2f5422" d="M 52.5,25.5 C 53.209,24.596 54.209,24.2627 55.5,24.5C 55.5,26.1667 55.5,27.8333 55.5,29.5C 55.1667,29.5 54.8333,29.5 54.5,29.5C 54.8432,27.5168 54.1765,26.1834 52.5,25.5 Z"/></g>
<g><path style="opacity:0.659" fill="#345d2c" d="M 9.5,26.5 C 9.83333,26.5 10.1667,26.5 10.5,26.5C 11.2341,27.7079 11.5674,29.0413 11.5,30.5C 10.3263,29.4863 9.6596,28.153 9.5,26.5 Z"/></g>
<g><path style="opacity:0.765" fill="#285b19" d="M 39.5,26.5 C 40.1667,27.5 40.8333,28.5 41.5,29.5C 41.1583,30.3382 40.4916,30.6716 39.5,30.5C 39.5,29.1667 39.5,27.8333 39.5,26.5 Z"/></g>
<g><path style="opacity:1" fill="#58933e" d="M 53.5,30.5 C 52.4154,32.5869 50.7488,33.9202 48.5,34.5C 47.8333,34.5 47.1667,34.5 46.5,34.5C 46.5,33.5 46.5,32.5 46.5,31.5C 43.9407,31.8016 41.6074,31.4682 39.5,30.5C 40.4916,30.6716 41.1583,30.3382 41.5,29.5C 42.5676,28.5655 43.901,28.2322 45.5,28.5C 48.1667,28.1667 50.8333,27.8333 53.5,27.5C 53.5,28.5 53.5,29.5 53.5,30.5 Z"/></g>
<g><path style="opacity:0.894" fill="#365e2a" d="M 12.5,32.5 C 14.7541,33.4151 16.7541,34.7484 18.5,36.5C 18.5,36.8333 18.5,37.1667 18.5,37.5C 15.9108,36.5806 13.9108,34.914 12.5,32.5 Z"/></g>
<g><path style="opacity:0.129" fill="#2e5721" d="M 45.5,34.5 C 45.8333,34.5 46.1667,34.5 46.5,34.5C 47.1667,34.5 47.8333,34.5 48.5,34.5C 47.0539,35.9402 45.2206,36.6068 43,36.5C 41.6153,36.4857 40.4486,36.1524 39.5,35.5C 41.7354,35.7947 43.7354,35.4614 45.5,34.5 Z"/></g>
<g><path style="opacity:0.51" fill="#285b15" d="M 39.5,35.5 C 38.6618,35.8417 38.3284,36.5084 38.5,37.5C 37.2241,36.6136 37.2241,35.6136 38.5,34.5C 39.1067,34.6236 39.44,34.9569 39.5,35.5 Z"/></g>
<g><path style="opacity:1" fill="#609e45" d="M 45.5,34.5 C 43.7354,35.4614 41.7354,35.7947 39.5,35.5C 39.44,34.9569 39.1067,34.6236 38.5,34.5C 37.2241,35.6136 37.2241,36.6136 38.5,37.5C 39.3382,37.8417 39.6716,38.5084 39.5,39.5C 39.427,41.0269 40.0937,42.0269 41.5,42.5C 42.038,44.1172 42.3713,45.7839 42.5,47.5C 40.7839,47.3713 39.1172,47.038 37.5,46.5C 37.5123,43.858 36.179,42.5246 33.5,42.5C 32.8333,41.8333 32.1667,41.1667 31.5,40.5C 30.791,39.596 29.791,39.2627 28.5,39.5C 28.5,42.1667 28.5,44.8333 28.5,47.5C 26.9731,47.427 25.9731,48.0937 25.5,49.5C 21.5191,50.0209 17.5191,50.3542 13.5,50.5C 13.5,49.8333 13.5,49.1667 13.5,48.5C 17.1746,48.4997 19.8413,46.833 21.5,43.5C 21.9528,42.5416 22.6195,41.7083 23.5,41C 22.5842,40.7216 21.9175,40.2216 21.5,39.5C 21.0269,38.0937 20.0269,37.427 18.5,37.5C 18.5,37.1667 18.5,36.8333 18.5,36.5C 24.1725,37.1843 30.0058,38.1843 36,39.5C 36.0154,37.2086 36.1821,35.0419 36.5,33C 39.4383,33.4462 42.4383,33.9462 45.5,34.5 Z"/></g>
<g><path style="opacity:0.447" fill="#2b5223" d="M 18.5,37.5 C 20.0269,37.427 21.0269,38.0937 21.5,39.5C 19.9731,39.573 18.9731,38.9063 18.5,37.5 Z"/></g>
<g><path style="opacity:0.831" fill="#2b581d" d="M 39.5,39.5 C 40.9063,39.9731 41.573,40.9731 41.5,42.5C 40.0937,42.0269 39.427,41.0269 39.5,39.5 Z"/></g>
<g><path style="opacity:1" fill="#3c6d28" d="M 31.5,40.5 C 30.7611,40.369 30.0944,40.5357 29.5,41C 31.0203,43.5515 30.6869,45.7182 28.5,47.5C 28.5,44.8333 28.5,42.1667 28.5,39.5C 29.791,39.2627 30.791,39.596 31.5,40.5 Z"/></g>
<g><path style="opacity:1" fill="#4f7d41" d="M 33.5,42.5 C 36.179,42.5246 37.5123,43.858 37.5,46.5C 35.8333,45.5 34.5,44.1667 33.5,42.5 Z"/></g>
<g><path style="opacity:0.573" fill="#2b5820" d="M 41.5,42.5 C 43.5969,43.8786 43.9302,45.5453 42.5,47.5C 42.3713,45.7839 42.038,44.1172 41.5,42.5 Z"/></g>
<g><path style="opacity:0.914" fill="#3a6530" d="M 21.5,43.5 C 19.8413,46.833 17.1746,48.4997 13.5,48.5C 16.1586,46.8365 18.8252,45.1698 21.5,43.5 Z"/></g>
<g><path style="opacity:0.682" fill="#456b37" d="M 37.5,46.5 C 39.1172,47.038 40.7839,47.3713 42.5,47.5C 40.5453,48.9302 38.8786,48.5969 37.5,46.5 Z"/></g>
<g><path style="opacity:0.02" fill="#1b4113" d="M 28.5,47.5 C 28.0269,48.9063 27.0269,49.573 25.5,49.5C 25.9731,48.0937 26.9731,47.427 28.5,47.5 Z"/></g>
<g><path style="opacity:0.831" fill="#3e672f" d="M 25.5,49.5 C 24.8333,50.1667 24.1667,50.8333 23.5,51.5C 20.1667,51.5 16.8333,51.5 13.5,51.5C 13.5,51.1667 13.5,50.8333 13.5,50.5C 17.5191,50.3542 21.5191,50.0209 25.5,49.5 Z"/></g>
</svg>
