<?xml version="1.0" encoding="UTF-8"?>
<!DOCTYPE svg PUBLIC "-//W3C//DTD SVG 1.1//EN" "http://www.w3.org/Graphics/SVG/1.1/DTD/svg11.dtd">
<svg xmlns="http://www.w3.org/2000/svg" version="1.1" width="78px" height="66px" style="shape-rendering:geometricPrecision; text-rendering:geometricPrecision; image-rendering:optimizeQuality; fill-rule:evenodd; clip-rule:evenodd" xmlns:xlink="http://www.w3.org/1999/xlink">
<g><path style="opacity:0.239" fill="#01260f" d="M 74.5,0.5 C 73.6935,1.72813 72.6935,2.72813 71.5,3.5C 68.4552,3.50795 65.4552,3.84128 62.5,4.5C 62.5,4.16667 62.5,3.83333 62.5,3.5C 66.6222,2.92531 70.6222,1.92531 74.5,0.5 Z"/></g>
<g><path style="opacity:1" fill="#0b5f3a" d="M 74.5,0.5 C 77.0479,2.03777 77.0479,3.70444 74.5,5.5C 74.1788,3.95186 73.1788,3.28519 71.5,3.5C 72.6935,2.72813 73.6935,1.72813 74.5,0.5 Z"/></g>
<g><path style="opacity:0.639" fill="#05341c" d="M 55.5,3.5 C 55.2627,4.79105 55.596,5.79105 56.5,6.5C 56.8333,7.5 57.5,8.16667 58.5,8.5C 58.7271,10.9328 57.7271,12.5994 55.5,13.5C 55.5106,11.9826 56.1772,10.8159 57.5,10C 54.698,8.26904 54.0313,6.10238 55.5,3.5 Z"/></g>
<g><path style="opacity:1" fill="#0d4a2d" d="M 62.5,3.5 C 62.5,3.83333 62.5,4.16667 62.5,4.5C 59.9179,4.02539 57.9179,4.69206 56.5,6.5C 55.596,5.79105 55.2627,4.79105 55.5,3.5C 57.688,2.37734 60.0213,2.37734 62.5,3.5 Z"/></g>
<g><path style="opacity:1" fill="#036b39" d="M 71.5,3.5 C 73.1788,3.28519 74.1788,3.95186 74.5,5.5C 73.0158,7.07365 71.3492,8.40698 69.5,9.5C 65.5,8.83333 63.8333,10.5 64.5,14.5C 63.1331,18.9731 62.1331,23.6398 61.5,28.5C 59.7188,31.0912 57.7188,33.4245 55.5,35.5C 47.6484,35.8254 39.9818,35.492 32.5,34.5C 39.6695,31.574 45.3362,26.9073 49.5,20.5C 49.8333,20.5 50.1667,20.5 50.5,20.5C 54.0988,18.7371 56.9322,16.0705 59,12.5C 59.765,10.9343 59.5983,9.60093 58.5,8.5C 57.5,8.16667 56.8333,7.5 56.5,6.5C 57.9179,4.69206 59.9179,4.02539 62.5,4.5C 65.4552,3.84128 68.4552,3.50795 71.5,3.5 Z"/></g>
<g><path style="opacity:0.2" fill="#022c15" d="M 74.5,0.5 C 74.5,0.166667 74.5,-0.166667 74.5,-0.5C 75.5,-0.5 76.5,-0.5 77.5,-0.5C 77.5,1.5 77.5,3.5 77.5,5.5C 75.3852,7.89073 72.7186,9.22406 69.5,9.5C 71.3492,8.40698 73.0158,7.07365 74.5,5.5C 77.0479,3.70444 77.0479,2.03777 74.5,0.5 Z"/></g>
<g><path style="opacity:0.161" fill="#012a0f" d="M 69.5,9.5 C 68.791,10.404 67.791,10.7373 66.5,10.5C 66.1977,13.3725 65.531,16.0392 64.5,18.5C 64.5,17.1667 64.5,15.8333 64.5,14.5C 63.8333,10.5 65.5,8.83333 69.5,9.5 Z"/></g>
<g><path style="opacity:1" fill="#0f5e38" d="M 58.5,8.5 C 59.5983,9.60093 59.765,10.9343 59,12.5C 56.9322,16.0705 54.0988,18.7371 50.5,20.5C 52.5798,18.4268 54.2464,16.0934 55.5,13.5C 57.7271,12.5994 58.7271,10.9328 58.5,8.5 Z"/></g>
<g><path style="opacity:0.239" fill="#013015" d="M 64.5,14.5 C 64.5,15.8333 64.5,17.1667 64.5,18.5C 64.2766,22.1621 63.2766,25.4954 61.5,28.5C 62.1331,23.6398 63.1331,18.9731 64.5,14.5 Z"/></g>
<g><path style="opacity:0.722" fill="#02341b" d="M 55.5,13.5 C 54.2464,16.0934 52.5798,18.4268 50.5,20.5C 50.1667,20.5 49.8333,20.5 49.5,20.5C 47.0657,22.7491 44.399,24.9157 41.5,27C 38.1069,29.0757 34.4402,30.2424 30.5,30.5C 34.7726,28.3637 39.1059,26.1971 43.5,24C 44.7433,22.8455 45.7433,21.5122 46.5,20C 49.916,18.4186 52.916,16.2519 55.5,13.5 Z"/></g>
<g><path style="opacity:1" fill="#07643a" d="M 49.5,20.5 C 45.3362,26.9073 39.6695,31.574 32.5,34.5C 30.0971,34.448 27.7638,34.7814 25.5,35.5C 27.3603,34.0613 29.027,32.3947 30.5,30.5C 34.4402,30.2424 38.1069,29.0757 41.5,27C 44.399,24.9157 47.0657,22.7491 49.5,20.5 Z"/></g>
<g><path style="opacity:0.639" fill="#012f19" d="M 30.5,30.5 C 29.027,32.3947 27.3603,34.0613 25.5,35.5C 23.5,36.5 21.5,37.5 19.5,38.5C 22.6012,35.0669 26.2679,32.4002 30.5,30.5 Z"/></g>
<g><path style="opacity:1" fill="#016736" d="M 32.5,34.5 C 39.9818,35.492 47.6484,35.8254 55.5,35.5C 55.1075,37.2838 54.4408,38.9505 53.5,40.5C 52.596,41.209 52.2627,42.209 52.5,43.5C 57.0536,43.7454 61.5536,43.4121 66,42.5C 67.0299,42.8361 67.5299,43.5028 67.5,44.5C 67.5,45.1667 67.1667,45.5 66.5,45.5C 63.0172,46.7523 59.3505,47.5856 55.5,48C 54.8333,48.6667 54.1667,49.3333 53.5,50C 50.8333,50.3333 48.1667,50.6667 45.5,51C 42.0901,53.3716 38.4234,55.2049 34.5,56.5C 30.694,57.5873 27.0273,58.9207 23.5,60.5C 18.9765,61.0119 14.4765,61.6786 10,62.5C 8.16667,62.3333 6.33333,62.1667 4.5,62C 5.25244,61.3292 5.58577,60.4959 5.5,59.5C 6.04309,59.44 6.37642,59.1067 6.5,58.5C 5.00654,57.8589 4.00654,56.8589 3.5,55.5C 4.23891,55.631 4.90558,55.4643 5.5,55C 7.38752,52.2933 9.38752,49.7933 11.5,47.5C 12.5,45.8333 13.8333,44.5 15.5,43.5C 19.2071,41.3115 22.5405,38.6448 25.5,35.5C 27.7638,34.7814 30.0971,34.448 32.5,34.5 Z"/></g>
<g><path style="opacity:1" fill="#0e5e37" d="M 25.5,35.5 C 22.5405,38.6448 19.2071,41.3115 15.5,43.5C 16.8333,41.8333 18.1667,40.1667 19.5,38.5C 21.5,37.5 23.5,36.5 25.5,35.5 Z"/></g>
<g><path style="opacity:0.6" fill="#003217" d="M 61.5,28.5 C 60.0778,33.1779 57.7444,37.3445 54.5,41C 58.9549,41.5779 63.2883,41.0779 67.5,39.5C 68.1667,39.5 68.8333,39.5 69.5,39.5C 66.0422,41.4325 62.2088,42.4325 58,42.5C 56.0145,42.4313 54.5145,41.7647 53.5,40.5C 54.4408,38.9505 55.1075,37.2838 55.5,35.5C 57.7188,33.4245 59.7188,31.0912 61.5,28.5 Z"/></g>
<g><path style="opacity:0.6" fill="#002b13" d="M 70.5,37.5 C 70.1667,38.1667 69.8333,38.8333 69.5,39.5C 68.8333,39.5 68.1667,39.5 67.5,39.5C 67.9731,38.0937 68.9731,37.427 70.5,37.5 Z"/></g>
<g><path style="opacity:0.4" fill="#023319" d="M 70.5,37.5 C 71.9187,36.5489 73.5853,36.2155 75.5,36.5C 75.7593,38.9893 74.7593,40.656 72.5,41.5C 72.7214,40.2652 73.3881,39.2652 74.5,38.5C 73.3112,37.5713 71.9778,37.238 70.5,37.5 Z"/></g>
<g><path style="opacity:1" fill="#095c35" d="M 70.5,37.5 C 71.9778,37.238 73.3112,37.5713 74.5,38.5C 73.3881,39.2652 72.7214,40.2652 72.5,41.5C 70.5887,42.075 68.922,43.075 67.5,44.5C 67.5299,43.5028 67.0299,42.8361 66,42.5C 61.5536,43.4121 57.0536,43.7454 52.5,43.5C 52.2627,42.209 52.596,41.209 53.5,40.5C 54.5145,41.7647 56.0145,42.4313 58,42.5C 62.2088,42.4325 66.0422,41.4325 69.5,39.5C 69.8333,38.8333 70.1667,38.1667 70.5,37.5 Z"/></g>
<g><path style="opacity:0.122" fill="#02240c" d="M 72.5,41.5 C 71.0892,43.914 69.0892,45.5806 66.5,46.5C 66.5,46.1667 66.5,45.8333 66.5,45.5C 67.1667,45.5 67.5,45.1667 67.5,44.5C 68.922,43.075 70.5887,42.075 72.5,41.5 Z"/></g>
<g><path style="opacity:0.761" fill="#03341c" d="M 19.5,38.5 C 18.1667,40.1667 16.8333,41.8333 15.5,43.5C 13.8333,44.5 12.5,45.8333 11.5,47.5C 7.95471,49.2295 5.28805,51.8962 3.5,55.5C 2.16667,56.5 0.833333,57.5 -0.5,58.5C -0.5,57.8333 -0.5,57.1667 -0.5,56.5C 2.9988,53.8338 5.9988,50.6671 8.5,47C 12.0613,43.9274 15.728,41.0941 19.5,38.5 Z"/></g>
<g><path style="opacity:0.465" fill="#002e14" d="M 66.5,45.5 C 66.5,45.8333 66.5,46.1667 66.5,46.5C 59.8694,48.6599 53.2027,50.4932 46.5,52C 41.7568,55.0383 36.7568,57.5383 31.5,59.5C 32.3065,58.2719 33.3065,57.2719 34.5,56.5C 38.4234,55.2049 42.0901,53.3716 45.5,51C 48.1667,50.6667 50.8333,50.3333 53.5,50C 54.1667,49.3333 54.8333,48.6667 55.5,48C 59.3505,47.5856 63.0172,46.7523 66.5,45.5 Z"/></g>
<g><path style="opacity:1" fill="#0c6038" d="M 11.5,47.5 C 9.38752,49.7933 7.38752,52.2933 5.5,55C 4.90558,55.4643 4.23891,55.631 3.5,55.5C 5.28805,51.8962 7.95471,49.2295 11.5,47.5 Z"/></g>
<g><path style="opacity:1" fill="#054a27" d="M 3.5,55.5 C 4.00654,56.8589 5.00654,57.8589 6.5,58.5C 6.37642,59.1067 6.04309,59.44 5.5,59.5C 4.18514,60.4756 2.85181,61.4756 1.5,62.5C 6.79207,63.4948 12.1254,63.8282 17.5,63.5C 15.5,64.1667 13.5,64.8333 11.5,65.5C 7.5,65.5 3.5,65.5 -0.5,65.5C -0.5,64.1667 -0.5,62.8333 -0.5,61.5C 0.833333,61.1667 0.833333,60.8333 -0.5,60.5C -0.5,59.8333 -0.5,59.1667 -0.5,58.5C 0.833333,57.5 2.16667,56.5 3.5,55.5 Z"/></g>
<g><path style="opacity:1" fill="#054f2b" d="M 34.5,56.5 C 33.3065,57.2719 32.3065,58.2719 31.5,59.5C 30.791,60.404 29.791,60.7373 28.5,60.5C 26.8333,60.5 25.1667,60.5 23.5,60.5C 27.0273,58.9207 30.694,57.5873 34.5,56.5 Z"/></g>
<g><path style="opacity:1" fill="#065931" d="M 5.5,59.5 C 5.58577,60.4959 5.25244,61.3292 4.5,62C 6.33333,62.1667 8.16667,62.3333 10,62.5C 14.4765,61.6786 18.9765,61.0119 23.5,60.5C 22.8333,61.1667 22.1667,61.8333 21.5,62.5C 20.4324,63.4345 19.099,63.7678 17.5,63.5C 12.1254,63.8282 6.79207,63.4948 1.5,62.5C 2.85181,61.4756 4.18514,60.4756 5.5,59.5 Z"/></g>
<g><path style="opacity:0.361" fill="#002c13" d="M 23.5,60.5 C 25.1667,60.5 26.8333,60.5 28.5,60.5C 26.4006,61.6118 24.0673,62.2785 21.5,62.5C 22.1667,61.8333 22.8333,61.1667 23.5,60.5 Z"/></g>
</svg>
