<?xml version="1.0" encoding="UTF-8"?>
<!DOCTYPE svg PUBLIC "-//W3C//DTD SVG 1.1//EN" "http://www.w3.org/Graphics/SVG/1.1/DTD/svg11.dtd">
<svg xmlns="http://www.w3.org/2000/svg" version="1.1" width="37px" height="37px" style="shape-rendering:geometricPrecision; text-rendering:geometricPrecision; image-rendering:optimizeQuality; fill-rule:evenodd; clip-rule:evenodd" xmlns:xlink="http://www.w3.org/1999/xlink">
<g><path style="opacity:0.467" fill="#012a14" d="M 27.5,-0.5 C 29.5,-0.5 31.5,-0.5 33.5,-0.5C 33.5751,2.20616 33.9084,4.87283 34.5,7.5C 34.1667,7.5 33.8333,7.5 33.5,7.5C 33.6716,6.50838 33.3382,5.84171 32.5,5.5C 32.5,4.16667 32.5,2.83333 32.5,1.5C 29.1667,1.83333 25.8333,2.16667 22.5,2.5C 24.42,1.93479 26.0867,0.93479 27.5,-0.5 Z"/></g>
<g><path style="opacity:1" fill="#065630" d="M 32.5,5.5 C 31.596,4.79105 31.2627,3.79105 31.5,2.5C 28.1353,3.0396 24.802,3.70627 21.5,4.5C 21.8333,3.83333 22.1667,3.16667 22.5,2.5C 25.8333,2.16667 29.1667,1.83333 32.5,1.5C 32.5,2.83333 32.5,4.16667 32.5,5.5 Z"/></g>
<g><path style="opacity:1" fill="#026f3a" d="M 32.5,5.5 C 33.3382,5.84171 33.6716,6.50838 33.5,7.5C 33.4142,8.4959 33.7476,9.32924 34.5,10C 32.6183,10.1981 30.9516,10.6981 29.5,11.5C 27.5,11.5 26.5,12.5 26.5,14.5C 26.4431,15.609 26.1098,16.609 25.5,17.5C 23.7868,18.6354 23.1201,20.302 23.5,22.5C 22.8333,21.5 22.1667,20.5 21.5,19.5C 20.5,19.8333 19.8333,20.5 19.5,21.5C 18.8333,21.8333 18.1667,22.1667 17.5,22.5C 17.0296,21.3065 16.0296,20.6399 14.5,20.5C 13.5,20.6667 12.5,20.8333 11.5,21C 10.6719,22.9923 9.3386,24.4923 7.5,25.5C 6.16667,25.5 4.83333,25.5 3.5,25.5C 3.76781,23.901 3.43448,22.5676 2.5,21.5C 2.16667,20.8333 1.83333,20.1667 1.5,19.5C 1.65827,15.8285 3.32493,12.9951 6.5,11C 9.95229,10.1153 13.2856,9.282 16.5,8.5C 18.1667,7.16667 19.8333,5.83333 21.5,4.5C 24.802,3.70627 28.1353,3.0396 31.5,2.5C 31.2627,3.79105 31.596,4.79105 32.5,5.5 Z"/></g>
<g><path style="opacity:1" fill="#0d6239" d="M 16.5,8.5 C 13.2856,9.282 9.95229,10.1153 6.5,11C 3.32493,12.9951 1.65827,15.8285 1.5,19.5C -0.0150172,15.4127 1.31832,12.246 5.5,10C 9.06007,8.76326 12.7267,8.26326 16.5,8.5 Z"/></g>
<g><path style="opacity:0.467" fill="#002510" d="M 34.5,7.5 C 35.1667,7.5 35.8333,7.5 36.5,7.5C 36.5,8.83333 36.5,10.1667 36.5,11.5C 36.1667,11.5 35.8333,11.5 35.5,11.5C 35.5674,10.0413 35.2341,8.70792 34.5,7.5 Z"/></g>
<g><path style="opacity:1" fill="#034d29" d="M 33.5,7.5 C 33.8333,7.5 34.1667,7.5 34.5,7.5C 35.2341,8.70792 35.5674,10.0413 35.5,11.5C 33.5,11.5 31.5,11.5 29.5,11.5C 30.9516,10.6981 32.6183,10.1981 34.5,10C 33.7476,9.32924 33.4142,8.4959 33.5,7.5 Z"/></g>
<g><path style="opacity:0.4" fill="#00260d" d="M 29.5,11.5 C 31.5,11.5 33.5,11.5 35.5,11.5C 33.3432,12.4067 31.0098,13.0733 28.5,13.5C 28.8333,12.8333 29.1667,12.1667 29.5,11.5 Z"/></g>
<g><path style="opacity:1" fill="#02351b" d="M 22.5,2.5 C 22.1667,3.16667 21.8333,3.83333 21.5,4.5C 19.8333,5.83333 18.1667,7.16667 16.5,8.5C 12.7267,8.26326 9.06007,8.76326 5.5,10C 1.31832,12.246 -0.0150172,15.4127 1.5,19.5C 1.83333,20.1667 2.16667,20.8333 2.5,21.5C 2.5,22.8333 2.5,24.1667 2.5,25.5C 2.16667,25.5 1.83333,25.5 1.5,25.5C 1.59794,23.4471 0.931268,21.7804 -0.5,20.5C -0.5,18.1667 -0.5,15.8333 -0.5,13.5C 3.83301,8.23461 9.49968,6.06795 16.5,7C 18.1137,4.87331 20.1137,3.37331 22.5,2.5 Z"/></g>
<g><path style="opacity:1" fill="#005129" d="M 29.5,11.5 C 29.1667,12.1667 28.8333,12.8333 28.5,13.5C 27.8333,13.8333 27.1667,14.1667 26.5,14.5C 26.5,12.5 27.5,11.5 29.5,11.5 Z"/></g>
<g><path style="opacity:0.737" fill="#002c11" d="M 28.5,13.5 C 28.0075,15.8185 27.0075,17.8185 25.5,19.5C 25.5,18.8333 25.5,18.1667 25.5,17.5C 26.1098,16.609 26.4431,15.609 26.5,14.5C 27.1667,14.1667 27.8333,13.8333 28.5,13.5 Z"/></g>
<g><path style="opacity:1" fill="#005027" d="M 25.5,17.5 C 25.5,18.1667 25.5,18.8333 25.5,19.5C 24.8333,20.5 24.1667,21.5 23.5,22.5C 23.1201,20.302 23.7868,18.6354 25.5,17.5 Z"/></g>
<g><path style="opacity:0.2" fill="#012a12" d="M 17.5,22.5 C 17.5,26.5 17.5,30.5 17.5,34.5C 16.4371,30.3609 15.7704,26.0275 15.5,21.5C 14.448,21.3505 13.448,21.5172 12.5,22C 11.3783,24.1238 9.87827,25.9571 8,27.5C 7.51597,29.1933 8.01597,30.5267 9.5,31.5C 8.5,31.5 7.5,31.5 6.5,31.5C 6.5,30.1667 6.5,28.8333 6.5,27.5C 6.83333,26.8333 7.16667,26.1667 7.5,25.5C 9.3386,24.4923 10.6719,22.9923 11.5,21C 12.5,20.8333 13.5,20.6667 14.5,20.5C 16.0296,20.6399 17.0296,21.3065 17.5,22.5 Z"/></g>
<g><path style="opacity:1" fill="#0a6839" d="M 2.5,21.5 C 3.43448,22.5676 3.76781,23.901 3.5,25.5C 4.83333,25.5 6.16667,25.5 7.5,25.5C 7.16667,26.1667 6.83333,26.8333 6.5,27.5C 5.83333,27.8333 5.16667,28.1667 4.5,28.5C 3.83333,28.5 3.16667,28.5 2.5,28.5C 2.5,27.5 2.5,26.5 2.5,25.5C 2.5,24.1667 2.5,22.8333 2.5,21.5 Z"/></g>
<g><path style="opacity:1" fill="#145d3b" d="M 19.5,21.5 C 19.3718,25.8814 19.7051,30.2147 20.5,34.5C 19.5,34.5 18.5,34.5 17.5,34.5C 17.5,30.5 17.5,26.5 17.5,22.5C 18.1667,22.1667 18.8333,21.8333 19.5,21.5 Z"/></g>
<g><path style="opacity:0.6" fill="#002f13" d="M 21.5,19.5 C 20.962,24.4671 21.6287,29.1338 23.5,33.5C 22.5987,34.2905 21.9321,35.2905 21.5,36.5C 20.5,36.5 19.5,36.5 18.5,36.5C 18.1667,35.8333 17.8333,35.1667 17.5,34.5C 18.5,34.5 19.5,34.5 20.5,34.5C 19.7051,30.2147 19.3718,25.8814 19.5,21.5C 19.8333,20.5 20.5,19.8333 21.5,19.5 Z"/></g>
<g><path style="opacity:1" fill="#105c37" d="M 21.5,19.5 C 22.1667,20.5 22.8333,21.5 23.5,22.5C 23.3359,25.1873 23.5026,27.854 24,30.5C 24.6708,31.2524 25.5041,31.5858 26.5,31.5C 26.1788,33.0481 25.1788,33.7148 23.5,33.5C 21.6287,29.1338 20.962,24.4671 21.5,19.5 Z"/></g>
<g><path style="opacity:1" fill="#10482d" d="M 1.5,25.5 C 1.83333,25.5 2.16667,25.5 2.5,25.5C 2.5,26.5 2.5,27.5 2.5,28.5C 2.97461,31.0821 2.30794,33.0821 0.5,34.5C 0.166667,34.5 -0.166667,34.5 -0.5,34.5C -0.5,33.5 -0.5,32.5 -0.5,31.5C 0.166667,29.5 0.833333,27.5 1.5,25.5 Z"/></g>
<g><path style="opacity:0.863" fill="#002f14" d="M 25.5,19.5 C 25.3305,21.8484 24.9971,24.1817 24.5,26.5C 24.4365,28.5139 25.1032,30.1806 26.5,31.5C 25.5041,31.5858 24.6708,31.2524 24,30.5C 23.5026,27.854 23.3359,25.1873 23.5,22.5C 24.1667,21.5 24.8333,20.5 25.5,19.5 Z"/></g>
<g><path style="opacity:1" fill="#00381c" d="M 2.5,28.5 C 3.16667,28.5 3.83333,28.5 4.5,28.5C 4.5,28.8333 4.5,29.1667 4.5,29.5C 3.54885,30.9187 3.21552,32.5853 3.5,34.5C 2.5,35.8333 1.5,35.8333 0.5,34.5C 2.30794,33.0821 2.97461,31.0821 2.5,28.5 Z"/></g>
<g><path style="opacity:1" fill="#185939" d="M 6.5,27.5 C 6.5,28.8333 6.5,30.1667 6.5,31.5C 7.5,31.5 8.5,31.5 9.5,31.5C 8.81658,33.1765 7.48324,33.8432 5.5,33.5C 5.56745,32.0413 5.23411,30.7079 4.5,29.5C 4.5,29.1667 4.5,28.8333 4.5,28.5C 5.16667,28.1667 5.83333,27.8333 6.5,27.5 Z"/></g>
<g><path style="opacity:0.156" fill="#01250d" d="M 4.5,29.5 C 5.23411,30.7079 5.56745,32.0413 5.5,33.5C 4.83333,33.8333 4.16667,34.1667 3.5,34.5C 3.21552,32.5853 3.54885,30.9187 4.5,29.5 Z"/></g>
<g><path style="opacity:0.537" fill="#012814" d="M 9.5,31.5 C 10.404,32.209 10.7373,33.209 10.5,34.5C 8.58533,34.7845 6.91866,34.4511 5.5,33.5C 7.48324,33.8432 8.81658,33.1765 9.5,31.5 Z"/></g>
<g><path style="opacity:0.6" fill="#022c17" d="M 26.5,31.5 C 28.0481,31.8212 28.7148,32.8212 28.5,34.5C 26.5853,34.7845 24.9187,34.4511 23.5,33.5C 25.1788,33.7148 26.1788,33.0481 26.5,31.5 Z"/></g>
</svg>
